<svg xmlns="http://www.w3.org/2000/svg" viewBox="0 0 92.34 92.34"><defs><style>.cls-1{fill:#e52827;}</style></defs><g id="Layer_2" data-name="Layer 2"><g id="Vector_Graphics" data-name="Vector Graphics"><path class="cls-1" d="M1.81,33.4A46.16,46.16,0,1,0,58.94,1.81,46.2,46.2,0,0,0,1.81,33.4ZM81.13,30a33.92,33.92,0,0,1,.44,5.76s-2,1.77-2.31,3a11.41,11.41,0,0,0,2.5-1.65A12,12,0,0,1,80.91,41a5.12,5.12,0,0,0-1,3.88A9.7,9.7,0,0,0,76,47.27a5.39,5.39,0,0,1-.75-2.94,5.93,5.93,0,0,0,2.11-4.48,18.1,18.1,0,0,0,.84-4.68,13.84,13.84,0,0,0,1.24.83,5.59,5.59,0,0,0-1.71-2.34s-.73-3-4.55-7.95a24.48,24.48,0,0,0,5.15.87,8.54,8.54,0,0,0,.11,1.81,28,28,0,0,1,2-4.44,6.53,6.53,0,0,1,.65,4.45s-2.61,1.59-3.24,3A12.22,12.22,0,0,0,81.13,30Zm-2.21,16.9a21.46,21.46,0,0,0-1,2.12c.18-.23,1.22-1.42,1.22-1.42-.27.72-.82,2.81-.82,2.81A15.65,15.65,0,0,1,79.54,48a6,6,0,0,0-.24,2.06,4.17,4.17,0,0,1,1-2.17c-.57,6.44-6.35,4.36-6.35,4.36.85-.12,2.16-2.26,3-4.06s1.89-1.91,1.89-1.91a6.63,6.63,0,0,0-.74,1.33,6.88,6.88,0,0,1,.85-.74ZM62.08,7.68c1.17.51,4.37,2.35,1.62,6.41-2.13,3.15-6.37.63-6.41.5s-.85-.74-.94-1.24l1,.72-.13-.89,1.56,1.48-.63-1.23L60.05,15,59.1,13.5l2,1.41L60,13.33l2,1.22L60.6,12.91,62.72,14l-1.53-1.67,2.06,1.1-1.52-1.61,1.92.64L62.1,11.13l2.16.84-2-1.59L64,11,62.23,9.65l2,.61L62.05,8.72l1.67.46-2-1.65a1.21,1.21,0,0,1,.22.08l.18.07Zm7.3,7.81a22,22,0,0,1,.91,5.17,8.68,8.68,0,0,0-1.43,2.84A10.74,10.74,0,0,0,70.59,22a13.52,13.52,0,0,0,1.19,3.71,10,10,0,0,0,.14,5.16,36.31,36.31,0,0,0,.77-4A24.57,24.57,0,0,1,75.58,31,14,14,0,0,0,75,34.75a19.42,19.42,0,0,0,1.51-2.47,7.61,7.61,0,0,1,.65,4.29,12.67,12.67,0,0,0-2.27,2.92,13.43,13.43,0,0,0,2.27-1.4,11,11,0,0,1-.28,1.32c-1.36.67-1.38,2.84-1.86,4.36S72,47,72,47c-1.6-5-4-6.21-4-6.21a8.92,8.92,0,0,1-.47,2.88,15.5,15.5,0,0,0-1.23,2.3c-3.34-4.38-9.08-2.7-9.08-2.7a5,5,0,0,1,4-3.68c3.69-.54,3.69-1.29,3.69-1.29A3.24,3.24,0,0,0,66.43,38c.61-.46,0-1.5,0-1.5a1.67,1.67,0,0,0-.75-2.23,10.13,10.13,0,0,1-3.4-2.64c2.83-4,.32-7.09.32-7.09l1.72.61-1-.89,2.16,1-1.36-1.35,1.94.76-.86-.78,1.72.57-1.27-1.09,2.21.38-2.07-1.12,1.8.29-2.36-1.07h2.09L65,21.2l1.59-.29-2.13-.33,2-1-3,.55L65,18.52l-1.91,1.16,1.55-2.25c-.57.51-2.39,2-2.39,2,.21-.64.53-2.14.53-2.14-.39.78-1.31,2.29-1.31,2.29l.3-1.93-1.26,2.25.08-1.82a12.59,12.59,0,0,1-.94,2V18.88l-.48,1.69,0-1.09-.63,1.58-.16-.69A19.49,19.49,0,0,1,57.42,23a7.4,7.4,0,0,1-2.92-1.28c.24-.26,1.57-2.62,1.57-2.62a14,14,0,0,0,.76,2.36,9.17,9.17,0,0,0-.89-5.8c.14-.07.12-.57.12-.57.4.47,4.93,3.13,7.82.56S66,10.4,66,10.4c.43.51,2.48,3.32,2.48,3.32a12,12,0,0,0-.44,4.51,16,16,0,0,0,1.31-2.74ZM73.77,48a13.44,13.44,0,0,0-.16,2.61,16.81,16.81,0,0,1,.78-2.38l.1,2a14.32,14.32,0,0,1,.63-2.34A3.84,3.84,0,0,1,75,50.16a2.41,2.41,0,0,1-2.49,1.33,1.15,1.15,0,0,1-.84-1.18,3.26,3.26,0,0,1,1.57-2.88s-.57,2.68-.57,3A13.87,13.87,0,0,1,73.77,48Zm-2.44-.31c0,1-.67,1.83-.77,3.65a4.68,4.68,0,0,1-2.72-6.17,14.68,14.68,0,0,0,.93,2.09,11.76,11.76,0,0,1-.12-1.73,9.24,9.24,0,0,0,1,2,12.62,12.62,0,0,1-.46-2.23,19,19,0,0,0,1.57,2.47,17.09,17.09,0,0,1-.91-2.86s.47.69.89,1.18a14.31,14.31,0,0,1-.64-1.81,5.24,5.24,0,0,1,1.22,3.42Zm-.53,5s-8.92,2.92-10.31-5.67l2.14,1.76-1.57-2.26,2.28,2L61.29,46,64,48l-2.17-2.47,2.61,1.11L62.06,45l1.9.47-2.29-1.31s3.49-.15,5,4.07,4.08,4.48,4.08,4.48Zm9.46,8.55-2.35-1.45,1.49,1.92-3-1.08,2.36,1.41-2.26-.56,2.14,1.17c-7.86-1.2-6.38-8.18-6.38-8.18,2.36,3,3,2.92,5.85,3.76s3,2.41,3,2.41L78.22,59l2,2.24Zm-.38,2.83c1.94.09,2.59.61,2.8,1A41.14,41.14,0,0,1,72.27,78h-.1A2.74,2.74,0,0,0,71,75.71c3.91-2.39.4-4.24.4-4.24a1.88,1.88,0,0,0-.51-2.12c-1-.93-2.81-.26-2.81-.26-.35-.8-2.14-1.16-2.14-1.16C68.36,65.25,71.8,58,71.8,58a8.93,8.93,0,0,0,8.08,6.11ZM21.22,76.9A2.6,2.6,0,0,0,18,76.13c-.55-.53-1.09-1.07-1.62-1.63a5.34,5.34,0,0,1,5.83.94c2,1.62,1.94,4.25,1.8,5.4-.61-.39-1.21-.8-1.79-1.22a3.28,3.28,0,0,0-1-2.72Zm-7.48-5.47c.71,0,2.75.18,3.77,1.36a7.88,7.88,0,0,0-2,.78c-.62-.69-1.21-1.41-1.78-2.14ZM12.06,69.1a7.52,7.52,0,0,1,6.53-.32,7,7,0,0,1,3.76,5.36l-3.37-1c-1.6-2.67-4.88-2.74-6-2.68-.32-.43-.62-.87-.92-1.31ZM8.54,62.7l.39-.19C15.7,62.06,16.2,67,16.2,67l-1,.14a4.69,4.69,0,0,0-5.5-2c-.42-.8-.81-1.62-1.17-2.44ZM6.07,36.44l.37,1.74A23.43,23.43,0,0,0,9.79,45.9c-.43,0-2.42-.7-2.42-.7a7.25,7.25,0,0,0,3.2,2.31c.7,1.07.74,3.86.74,3.86a11.86,11.86,0,0,0-2.68-2,16.22,16.22,0,0,1,1.65,2.89,1.18,1.18,0,0,0,1,.66,5.66,5.66,0,0,1-1.59,4.39c0-1.14-.27-3.33-.27-3.33A22.6,22.6,0,0,1,9,57.15a28.06,28.06,0,0,0-.12-2.86A19.34,19.34,0,0,1,8.3,57a21.78,21.78,0,0,0-.56-3.37,13.92,13.92,0,0,1-.07,3.11c-.11-.63-.53-2.24-.53-2.24a14.37,14.37,0,0,1,0,2.24L6.59,55c.1.52.17,2,.21,3a41.5,41.5,0,0,1-.73-21.6ZM14,29.21s4.13-.16,4.62,2.74c0,0,.53,2.53-2.39,1.92a3.8,3.8,0,0,1-2-2,4.23,4.23,0,0,0-1.49-1.81,8.56,8.56,0,0,1,3.62,1.53s-1.94-2.09-2.4-2.42Zm.88-2.16s2.54-1.82,4.3-1.92c1.29-.06,1.88.11,2.16,1,.2.63-1.47,3.22-5.2,1.75l3.14-1.66-4.4.85Zm4.61-12.69c0,1.1-.15,2.91-.15,2.91a11.27,11.27,0,0,0,1.53-4A39.45,39.45,0,0,1,25,10.4c-.13.67-.52,2.28-.52,2.28a9.49,9.49,0,0,0,2.33-3.32,41.63,41.63,0,0,1,5.67-2.52A27.19,27.19,0,0,0,31,9.56c1.59-.66,2.69-2.7,3.12-3.28,1.09-.33,2.19-.63,3.3-.87-2.75,4.88-1.28,6.8-1.28,6.8a6.88,6.88,0,0,1-.92,1.28A22.05,22.05,0,0,0,31.39,13a18.9,18.9,0,0,0,2.93,1.56,11.55,11.55,0,0,1-5.4,3,6.61,6.61,0,0,0-3.78-.78,22.79,22.79,0,0,0,2.52,1.49,23.58,23.58,0,0,0-3.26,1.55,9.59,9.59,0,0,0-4.13-.8c1.43.8,3,1.55,3,1.55a4.64,4.64,0,0,0-1.94,2.63,3.59,3.59,0,0,1-.94,1,7.65,7.65,0,0,0-3.41.37c1.83-4.47-1-5.46-2-5.66a41.4,41.4,0,0,1,4.55-4.53ZM53.87,5.2A2.46,2.46,0,0,1,49.8,5a7,7,0,0,0,4,.19l.06,0Zm-8,.5-1.6,1.51,2.11-1.09L44.22,8.28l2.47-1.59L45,8.9l2.18-1.62-1.3,1.89L48,7.27l-.4,1.09.73-.75c-.3,1.33-3,3.66-4.67,1.32C41.78,6.26,45.62,5,45.62,5l-1,1.32,1.25-.6Zm16,24.48.65-.45-.87-.1.91-.17-1-.36,1.26-.2-1.42-.49,1.44-.28-1.5-.37,1.5-.43-1.72-.21,1.3-.39-1.59-.3L62.14,26l-1.53-.12,1.13-.31-1.58-.36.82-.16-1.31-.68A4,4,0,0,1,63,27.15a4,4,0,0,1-.85,3.41l.11-.51-.42.13Zm-7.62-4.06,1.44,1.41s-.22-.91-.28-1.08a0,0,0,0,0,0,0s0,0,0,0,1.11,1.13,1.11,1.13l-.53-1,1,.8-.48-.79,1,.53L56.54,26l.6.06-.82-.69,1.15.11L56,24.58l.81-.12-1.18-.68.64,0-.89-.65s3.33.75,2.27,5.22c0,0-3-.2-4.36-2.12l.93.58,0-.72ZM53.1,22.6c-2.64,2.48-3.36,3.47-4.26,6.6a33.88,33.88,0,0,1-2.22,6A9.45,9.45,0,0,0,44,37.88,22,22,0,0,0,38,42.77s.07-2.08-.74-2.25c0,0-.07,0,0-.58a15.84,15.84,0,0,1,1-3.44,8.84,8.84,0,0,1,1.11,1.67s.42-2.17-.73-3.27a27.23,27.23,0,0,0,1.76-3.12s1.07,1.8,1.41,2.2a4.57,4.57,0,0,0-1-3.58,19,19,0,0,1,1.34-3.71s1.09,1.32,1.52,1.72A21.88,21.88,0,0,0,42.2,24.5a25.08,25.08,0,0,1,.55-3.6,23.84,23.84,0,0,1,1.32,2.62s.33-3.21-.86-5a22.68,22.68,0,0,1,1.46-2.71s1.52,3.15,4.18,3.52A8,8,0,0,0,55.4,17a7.28,7.28,0,0,1-2.3,5.64Zm-3,8.36-.73,1.51.81-.83-.77,2,.72-.86-.59,1.92.72-1L49.79,35s.71-.74.84-.82l-.76,1.62,1-1.13-.68,2,1-1.19.09-.11L50.91,37l.86-1.14-.46,1.74,1-1.24a17.28,17.28,0,0,0-.43,1.94l1-1.66.05-.09-.56,2.16,1-1.65L53.15,39l.91-1.65-.28,1.91.79-1.31-.16,1.33.71-1.09L55,39.5l.75-1.57,0,1.58L56.67,38l-.13,1.38.75-1.19-.09,1.28L58.05,38l-.11,1.26,1-1.48a5.35,5.35,0,0,1,0,1.05,1.87,1.87,0,0,0,.77-1s.16,2.84-6.15,1.76c-1-.18-4.19-2.23-4.64-4.77A8.24,8.24,0,0,1,49.61,30l-.14,1.34.64-.42Zm13.35,4,1.4.78s-1.19,0-1.4-.78Zm.88,2.17A2.67,2.67,0,0,1,62,36.76a5.77,5.77,0,0,1,2.31.42ZM48.4,38.56l-.9,1.67L48.88,39l-.65,1.45,1.29-1-.4.8,1.31-.74a2.4,2.4,0,0,1-4,.23c-1.34-1.56.49-3.51.49-3.51l-.21.5.33,0-.33.44.77-.4-.92,1.42,1.08-.73-1,1.5,1.34-1L47,39.63l1.44-1.07ZM70.08,58.05s-1,5.2-6.27,10.92l0-2.13L63,69.07l.26-2.22-1.19,2.59L62.24,67l-.92,2.13.1-1.66-.85,2,.19-1.72L59.6,70.07l.3-2.18L58.72,70.4l.2-1.47a12.55,12.55,0,0,1-1.53,2.71s-.25-.36-.46-.35a2.08,2.08,0,0,0-1.14-2.7s-.32-1.3.6-5.35a15.18,15.18,0,0,0,0-7.05,5.77,5.77,0,0,1,3.83,1.31c2.17,1.55,5,3.31,9.83.55ZM64.93,73.44l-.74,1.49,1.1-.84-.69,1.37,1.21-1-.65,1.5,1.17-1.13-.55,1.43L67,75.11l-.52,1.24,1.13-1.07-.38,1,.74-.83-.17.64.72-.51c-.1.53-2,2.26-4.22,0A2.36,2.36,0,0,1,64.43,72l-.28,1.91.78-.46Zm4.47,3.64s-1.71,1.86-4.4.07a10,10,0,0,0,4.4-.07ZM70,73.63a.88.88,0,0,1,1-.77.89.89,0,0,1,.74,1,.88.88,0,0,1-1,.77.89.89,0,0,1-.74-1Zm-6.8,2.57a2.44,2.44,0,0,0-2.22.89c-.93-2.67-1.53-3.21-1.53-3.21l2.48.63-1.76-1.07,2,.46-1.49-1,2,.21-1.32-.72L63,72.08l-1.18-.2,1.71-.56H62.31a15.12,15.12,0,0,1,2.12-.86c-2.54,3.36-1.28,5.73-1.28,5.73Zm-14,5a14.94,14.94,0,0,1-2.64-.17c4-4.24-.86-5.51-.86-5.51.44-.28.43-1.1.43-1.1C47.14,73,45,72.75,45,72.75c-.78-1.42-3.19-2.6-3.19-2.6C45.2,67.3,44.9,58.58,44.9,58.58c1.47.77,2.75,3.13,3.16,5a7.77,7.77,0,0,1-.35,5.4c-1.6,3,.47,3.22.47,3.22-.3,2,1.61,1.32,1.61,1.32,1.19,1.41,1.72-.2,1.72-.2,1.36.59,1.51-.74,1.51-.74a2.41,2.41,0,0,0,2,0,1.78,1.78,0,0,0,.89.63,1.51,1.51,0,0,0,1.18-.13s1.12.53,1.54,2.75c.48,2.5,1.81,2.85,1.81,2.85-1.39,1.5-9.8,2.51-9.8,2.51C51,80.62,53,78.54,53,78.54a8.68,8.68,0,0,0-3.84,2.7Zm-19.85-2.3a6.42,6.42,0,0,1-1.49-.58s3.44-1.31,2.6-4.37c0,0,3.75-.62,7.71,3.27a3.87,3.87,0,0,1,.7,2s1,1.76,2.25.27c0,0,.8.33,1.18-.18s-.12-1.15-.12-1.15.82-.32.71-.9-1.24-.76-1.53-.93a15.74,15.74,0,0,0-5.53-4.82,12.1,12.1,0,0,1,4,.32,6,6,0,0,1,2.48,3s.6,1.83,1.76,1.33a2.91,2.91,0,0,0,1.61,3.64s-2-3.26.45-3.1c2.14.13,1.5,3.3-.75,4.15s-3.84,1-7.68-.2a33.74,33.74,0,0,0-8.32-1.79ZM11.4,60.69l2.28-1.35-2.4.64,2.09-2.09-2.12,1.37a11.72,11.72,0,0,0,1.38-2.85,23.61,23.61,0,0,1-1.78,2.32s1.88-4.41,1.64-6.57c0,0,.5.19,1.3,2.15l-1-.29,1.62,1.66-1.61-.59s1.35,1.15,2,1.77l-1.65-.54a17,17,0,0,1,2,1.72l-1.83-.59s2.24,1.55,2.36,2L14,58.85l2,1.46L14.25,60l2.67,1.59-1.79-.25,2.65,1.52L16,62.53,18.73,64l-1.89-.41L19.38,65l-2-.06L20.58,66,19,66.32l2.45.62L20,67.09l2.24.37-1.42.31,2.63.4-1.3.22,2.26.43L23.29,69a12.44,12.44,0,0,0,3.12.57,4.71,4.71,0,0,0,1.84,2.85s-3,.28-2.51,4c0,0,1.41-3.69,3.32-2.24s-1.87,4.5-4.09,3.07a12.21,12.21,0,0,0-1.67-2.45,9.28,9.28,0,0,0-5.93-7.67,9.11,9.11,0,0,0-6-5.75l3.11-.77-3.12.14ZM17.92,53l.41-1.53L17.8,52l.48-1.43-.65.79.59-1.55-.73.78.68-1.37-.84.68,1.1-2-.94.75.89-1.6-1.11.81L18,46.58l-.92.67,1.19-2-.92.62.82-1.13-1,.53,1-1.37-.76.35,1.14-1.34-1.06.44,1.2-1.14-1.32.49,1.05-1-.73.15,1.27-.7-1-.06,1.6-.7-1.16-.07L20,39.92l-1.16-.37,1.69-.14-.9-.42,1.64-.07-1-.59,1.48.2L20.89,38l1.45.41-1.08-1,1.51.87-.18-.53.72.56-.17-.86,1.06,1.11-.11-.73.64.84v-.75l.56,1.12.09-.65.38.92.28-.88.2,1.37.29-1L26.6,40l.3-.71v1.17l.54-.59-.52,1.43,1-.87-.86,1.1.8-.31-.84.63.57.12-.92.29.75.32-1.12,0,.91.71-1.41-.4.78,1-1.34-.64.48.77-1.5-1.24L24.73,44,22.8,42.44l.83,1.28-2.06-1.16L23,44l-1.9-.5,1.5,1L20,44.39l2.32.74-2.11.21,2.35.53-2,.56,2.45.12-1.54.58,1.93-.07L21.89,48l2.22-.36-2,1.27,2.69-.76-1.66,1.19,2.22-.66-1.24,1.09,1.83-.84-1.32,1.41,2.1-1.3-.66.87L27.73,49s-3.83,3-4.3,9.89c-.14,3.86.45,3.53-.1,5.46l-.78-.78-.13.36L22,62.5l-.22.72-.22-1.49-.27.5-.18-1.81-.37.9-.25-1.53-.4.82L20.16,59l-.39.74.15-1.78-.44.86L19.71,57l-.52.76.32-2-.65,1.08.32-1.46-.59.67L19,54.2l-.69.82.41-1.53-.71.65.54-1.84-.63.66ZM30.77,38.07l1.83.32L30.07,37l1.61.14-1.94-.69,2.19-.22-2.38-.35,1.79-.69-2.28.17,1.7-.67L29,34.84,30,34.28l-1.72.18a21.48,21.48,0,0,1,2.86-3,6.24,6.24,0,0,0-.25,2.72,19.19,19.19,0,0,0,1.42-2.48A4.78,4.78,0,0,0,32.71,30s5.22-3.42,5.95-3.68c0,0-.11,2.66-.72,3.47a6.31,6.31,0,0,0-2.44,1.67s2.92.07,3.94-.56a28.56,28.56,0,0,1-1.57,3.45,6.63,6.63,0,0,0-3.94,2.54A22.18,22.18,0,0,0,37.17,36a15.64,15.64,0,0,0-.73,4A2.52,2.52,0,0,0,36,41.58c.16.65,1.19,1.39,1.08,2.15,0,0-.18.75-4.12,2.22a13.1,13.1,0,0,0-2,1L31,45.33l.52.65-.2-1.63.92,1.38-.63-2.3,1.56,1.44L31.59,42l1.59,1.24-1.59-2.2,1.38.81-1.5-1.77,1.85.84-2.21-2.06,1.46.52-1.8-1.34Zm9.36-12.9c.3-.37,1.12-1.51,1.12-1.51.24.36-.4,4.87-1.16,5.52a1.26,1.26,0,0,1-1.52.12,10.27,10.27,0,0,0,1.56-4.13ZM43.89,40.4l-.69,1.21,1.13-1-.71,1.75,1.08-1.22-.7,2.1,1.31-1.47-.57,1.57,1.1-1.31L45.31,44l1.24-1.77-.23,1.72,1-1.25L47,43.84l1.29-1.35a2.1,2.1,0,0,1-1.6,1.76s-2.95.33-4-1.61.93-3.22.93-3.22L43.1,41l.79-.57ZM50.42,44,50,46l.88-1.42-.28,1.9.73-1.17-.11,1.57.7-1.3L52,47.13l.7-1.51,0,1.07.47-1.06.05,1.48.61-1.58.09,1,.81-1.35,0,.12a2.37,2.37,0,0,1-2.9,2.2c-4.16-.9-2.2-4.62-2.2-4.62v1.92l.7-.84Zm-10.53-.79.87-.63-1,1.83,1.17-1L40,45.15l1.22-.93-.69,1.66,1.2-1.22s-.41,1.16-.65,1.63c.35-.38,1.18-1.18,1.18-1.18l-.6,1.64,1.25-1.33-.47,1.63,1-1.27-.33,1.52,1-1.24-.26,1.25L45.17,46,44.86,47,46,45.9c.16,1.16-3.17,3.3-5.74.48s0-5,0-5l-.43,1.82Zm8.16,3.65-.54,1.93.92-1.22L48,49.3l.77-1-.5,1.34,1.14-1.22-.51,2L50,48.8l-.39,1.73,1-1.62-.24,1.51.76-1.22L51,50.29,52.27,49c0,.29-1.54,3.08-4,1.5a2.85,2.85,0,0,1-.9-4.26l.05,1,.59-.45Zm-2.23,8.69.1,1.76.46-1.09.16,1.87.4-1.33.37,1.68L47.47,57l.43,1.47L48.09,57l.59,1.49.15-1.57.48,1,.25-1.62s1,2.28-1.47,2.49a4,4,0,0,1-.8-.12c-3.33-1.15-2.44-3.89-2.44-3.89l.66,1.62.31-.89Zm-8.06,2.77a4.63,4.63,0,0,1,5,.73,10.64,10.64,0,0,0-5-.73Zm-8.29-3.78c-2.13-3.75.24-5.56.24-5.56l-.35,1.38L30,50l-1,1.62,1.08-.83L29,52.5l1.33-1.07L29.34,53l1.25-1-1.12,1.77,1.19-1-.77,1.39,1.19-1-.69,1.45,1-1-.68,1.69.82-.84-.44,1.42,1-1.11-.42,1.53.86-1.16-.26,1.27.71-.89-.25,1.26.68-1-.2,1.47L34,56.09l-.08,1.23.54-.93,0,1.29.76-1.46,0,1.49.56-1.35.08,1.28.58-1.43,0,1.15L37,56c.36,3.28-5.4,2.26-7.52-1.49ZM27.7,56.23l-.6,1.61,1.08-1.17L27.76,58l.87-1-.33,1.26.72-.92-.22,1.06.9-1.06-.21.86.69-.69c-.31,1.67-3.59,1.5-4.73-1a3.18,3.18,0,0,1,.82-3.94l-.45,1.89.93-.7-1.1,1.86,1.15-.9-1.16,1.66,1.49-1.14-1,1.43,1.28-1-.92,1.75,1.17-1.28ZM31.4,69.4l1.29.81-.48-1,1.43.76-.79-1,1.82,1-1.15-1.42,1.68.81-1.05-1.12,1.77.68L34.7,67.68l1.62.59L35,67l1.54.68-1.31-1.44,1.44.49-1.19-1.1,1.18.55L35.78,65s1.82.44,1.23,2.89A3.37,3.37,0,0,1,36,69.66a5.29,5.29,0,0,1-6.56.1l1.23.18-.26-.69L32,70.43l-.6-1Zm-5.23-4.31.92,1.52-.18-1.18,1,1.43-.28-1.35,1.29,1.74-.39-1.4L29.4,67,29,65.61l1.31,1.29-.52-1.26,1.26,1.14-.65-1.48L32,66.63l-.88-1.53,1.28,1-.71-1.35,1.33.94-.76-1.31,1,.73L32.57,64l1.26.89L32.74,63.2s2.46,1,.68,2.85-7.74,2.53-8.37-1.49l1.11,1.06v-.53ZM25.35,60l.24,1.68.27-1.4.44,2.2.28-1.71.49,2,.2-1.79.5,1.71L28,61.18l.67,1.72,0-1.84.56,1.63.06-1.84.53,1.57.27-1.79.4.94.05-1.35c1.16,1.63-1.8,4-4.17,2.78a3.48,3.48,0,0,1-1.8-3.77l.53,1.56.28-.81Zm7.44.14L33,61.2l.15-.78.41,1.48.18-1,.39,1.22.19-1,.39,1.29.2-1.14.56,1.33.08-1.32.65,1-.12-1.21.63,1.11L36.61,61,37.33,62l-.15-1.21.65,1-.19-1.11.66.88V60.37l.46.47,0-1.14c1,1.29-1.45,4-4.48,2.88s-2.47-3.15-2.47-3.15l.76,1.48.18-.79ZM37.25,70l1.2.29-.38-.38,1.1.4-.46-.61L40,70l-.69-.72,1.16.25-.91-.81,1.68.29-1.06-.73,1.83.19-1.43-.69,2,.06-1.34-.56L42.8,67l-1.33-.27,1.32-.32-1-.16,1.58-.66s-.06,5-5.93,5L37.25,70Zm-.06-5.6,1,.47-.13-.52,1.3,1-.44-1,1.25,1-.51-1,1.07.77-.47-1,1.09.89-.55-1.27,1.21,1-.69-1.46,1.13.9-.61-1.31,1.1.8-.66-1.29,1,.64-.79-1.35.81.63-.75-1.45s2.19,1.37-.18,3.84c-2.1,2-5.12.26-5.22-.22ZM33.74,46.55,33,48l.92-.35-1,1.06,1-.37-1.42,1.46L34,49l-1.32,1.38,1.52-.76-1.31,1.54,1.66-.87-1.25,1.59,1.41-1-1.07,1.48,1.45-1-.95,1.47,1.41-.94-.7,1.25,1.16-1-.51,1.05,1.11-.82-.41.7,1.06-.67c0,.53-2.79,2.62-4.56-.78a3.64,3.64,0,0,1,1.09-5.08Zm-5.9.06a.31.31,0,1,1,.26.39.33.33,0,0,1-.26-.39Zm9.93-.7-.86,1.51,1-.74-.68,1.59,1.12-1.1-1,2,1.53-1.35-1,1.93,1.26-1.23-.75,1.81,1.36-1.48-.52,2,1.15-1.57L40,51.22l.9-1.57-.14,1.71.84-1.55-.22,1.63.8-1.52,0,1.57.76-1.62-.08,1.27,1-1.52s0,3.72-4.56,1.72-2.61-6-1.91-6.33l-.15,1.14.56-.24Zm.9,7.76-.37.89.69-.47-.5,1,.86-.61-.46,1.35.71-.59-.19.88.71-.59,0,.84.74-.62v.85l.68-.82,0,1,.45-.72.14.77.35-.71.17,1.06s-2.9-.36-3.57-.93a2.33,2.33,0,0,1-.67-3.41l-.21,1,.47-.22ZM51,59.12a2.84,2.84,0,0,1,2.52,2.39c.55,2.37-.74,3-.6,5.39a6.66,6.66,0,0,0,.59,3s-1.09.35-1.26,1.25c0,0-3.25-1-1.25-12.07Zm-7.41-3.31A3.23,3.23,0,0,1,43.47,53a5.06,5.06,0,0,1,.09,2.86Zm1.2-4.53a2.44,2.44,0,0,1,.66-2.36l-.12,1.62L46,50l-.48,1.69.82-1-.62,1.58.91-.94-.52,1.52.85-.76-.73,1.47,1-1-.5,1.12.91-1.16-.38,1.64a7.77,7.77,0,0,1,1-1.52L48,54.41l.9-1.38-.08,1.31.67-1.23,0,1,1.06-1.36s-.61,2.48-2.67,2.2-3.1-3.05-3.09-3.64ZM54,49.19c-.1,1.64-2.57,5.35-2.57,5.35A7.5,7.5,0,0,1,54,49.19ZM50.62,71.51a.44.44,0,0,1-.49.38.44.44,0,0,1-.37-.49.43.43,0,0,1,.86.11Zm11.29,6.91a1.06,1.06,0,1,1,.91,1.1,1,1,0,0,1-.91-1.1ZM65.05,70a1,1,0,0,1,1.11-.83,1,1,0,0,1,.86,1.1,1,1,0,0,1-2-.27Zm3,1A1.08,1.08,0,1,1,69,72.23,1.1,1.1,0,0,1,68.09,71ZM51.69,57.83l.16-1,.48.38,0-1.36.73.67-.15-1.49.81,1-.22-1.81.94,1.13-.54-1.8.89,1.09-.36-2,.75.73L54.88,52l.69.91-.45-2L55.67,52s0-.59,0-2.53a7.15,7.15,0,0,1-4,8.41Zm4.54-4.93c.44-2.32.49-3.6.44-8.2,0,0,2.57-.27,3,3.15.26,2.38,2.54,4.74,2.54,4.74s-2.45-.13-6.1,2.46c0,0-.28.18.16-2.15Zm-3.15-9.06c-2.16-.56-1.73-3-1.73-3l.11.5.29-.18,0,.5.43-.69.06,1.57.51-1.11.08,1.65.59-1.42.11,1.87L54.13,42l.24,1.76.45-1.67.32,1.47.5-1.45.14.83.71-1.23c0,1.43-1.26,2.72-3.41,2.16ZM58.13,33a2,2,0,0,1-.92-1.54,23.42,23.42,0,0,0,3,2.14,3.19,3.19,0,0,1-2.07-.6Zm2.17-.47a2.14,2.14,0,0,0,.85-.51l.47.81s-1.56-.22-1.32-.3Zm-.55-.83a.47.47,0,0,1-.41-.52.47.47,0,1,1,.41.52Zm-1.17-.64a1.34,1.34,0,0,1-.75-.92,2.49,2.49,0,0,1,1.33,0s-.66.56-.58.92ZM48.07,18.2c-4.25-1.65-2.13-6.06-2.13-6.06a15.74,15.74,0,0,1,.17,2l.68-.87L46,16.12,47.34,14,46.7,16.7,48,14.45l-.44,2.9L48.64,15l-.13,2.65.77-2.27L49.45,18,50,15.69l.23,2.49.47-2.53.35,1.72.32-1.88.48,2.14.2-2.25.52,2,.06-2.16.3,1.08.22-2L53.75,16l-.08-2,.54,1.41.16-2.15c1.68,2.9-2.17,6.53-6.3,4.93ZM41,6.49l-3.4,1h2.76l-2.77,1,2.66-.21-3,1.2,3.15-.42-2.81,1.43,2.91-.67L38,11.39l2.9-.9-1.94,1.56L41.37,11l-1.68,1.46,2.49-1.12L40.63,12.9l2.29-1.19-1,1.12,2-1a4.05,4.05,0,0,1-4.59,1.23,3.55,3.55,0,0,1-2.64-4.33c.17-.75,1.2-3.66,5.2-3.72l-2.4,1.24L41,6.49ZM49,12.38a2.75,2.75,0,0,1,0-3.45l.3,2.14.52-1.59L50,12.33l.52-2.48L50.72,12l.43-2.13.37,2.2.28-2.4.46,2.06.2-2.45L53,11.38,52.92,9a2.87,2.87,0,0,1-.27,3.41,2.45,2.45,0,0,1-3.63,0Zm-32.52,9c.75,1.7-1.36,3.94-1.36,3.94a20.44,20.44,0,0,1-.09-2.93,28.25,28.25,0,0,1-1.5,3.33c.07-.14-.16-3.82,1.09-5,1-.9,1.67.22,1.86.63Zm6,5.2a2.68,2.68,0,0,0-1-1.89A8.78,8.78,0,0,0,23.28,22a15.77,15.77,0,0,1,2.45-1.73,6.39,6.39,0,0,0-.43,2.56,11.19,11.19,0,0,0,1.77-3.25s4.26-1.75,4.69-1.84c0,0-.43,1.91-.59,2.44,0,0,1.92-2.35,2.06-3.39,0,0,3.06-2.19,4-3.71a7.45,7.45,0,0,0,6.82.6s.08,1.66-1.79,4.63a8.84,8.84,0,0,0-3.62,2.38,15,15,0,0,1,3.19-.84A8.45,8.45,0,0,1,39,24.46a5.87,5.87,0,0,0-4.07.21,14,14,0,0,0,3.21.68s-7.1,4.54-7.48,5a10.81,10.81,0,0,0-3.32.62s1.54.3,2.42.36a21.44,21.44,0,0,1-2.49,2.77,3.59,3.59,0,0,1,1.09-1.54,14.39,14.39,0,0,0-1.73.93,7.8,7.8,0,0,1,1-1.34s-1.91,1-2.27,1.23A8.8,8.8,0,0,1,26.54,32l-2.83,1.42,1.62-2.07-2.81,1.79,1.38-1.78L21.7,32.9l1.41-2.16L20.77,33l.91-1.88L19.4,33.31s.79-2.73-1.28-3.86c0,0,4.22-.07,4.36-2.88ZM13,32.15a6.34,6.34,0,0,0,2.6,2.9c.54.19-.1,1.39-.1,1.39l-.65-1.55,0,2.33-.7-1.66.13,2.09L13.68,36l.23,3.17L13,37.49l.75,3.4L12.6,38.82,13.36,42l-1.09-1.53.94,2.8L11.8,41.65l1.14,3-1-.87,1.22,2.37L11.66,45l1.42,2.3-1.18-1,1.26,2.06-1.57-1.22,1.68,2.49-1.14-1,1.32,2-.9-.67L13.83,52l-1.44-1.53c-.27-3.4-3.62-8.07-3.62-8.07a17.38,17.38,0,0,0,.42-3.15l-1,1.65a8.3,8.3,0,0,1-.63-3.58c.07-2,.49-4.3,2.33-5.63a2.15,2.15,0,0,1,3.11.44Zm1,35a5.92,5.92,0,0,0-2.58,1c-.42-.66-.82-1.34-1.2-2,2-.9,3.78,1,3.78,1ZM25.25,78.42c1.41,1.13,6.05,1.83,6.44,2s1.68.57,1.6,1.81S31,83.81,30.68,83s.79-1.39.79-1.39c-1.93.39-2.14,1.46-2,2.2a43.27,43.27,0,0,1-4.23-2.19c.09-1.06,0-3.18,0-3.18Zm9.52,7.32c-1-.28-1.88-.59-2.79-.92,3.73-1.42,1.45-4.31,1.45-4.31a17.88,17.88,0,0,1,6.15,2.12c1.07.69,1.9,1.87,1.72,2.47a1,1,0,0,1-.51.55c-1.18.62-1.78-1-1.78-1a1.9,1.9,0,0,0-.24,2c-1.33-.24-2.67-.56-4-.94ZM41,82.63a15.53,15.53,0,0,0,4.33-.5,42.14,42.14,0,0,0,4.27.14s1.41,1.2,3,2.6a13.7,13.7,0,0,0-1.71-2.7S57.8,81,60.29,80a5.35,5.35,0,0,0-1,2.59,11.5,11.5,0,0,1-.16,2.58l0,.07a40.61,40.61,0,0,1-17.82,1.82c.66-.69,1.66-2.31-.3-4.43Zm19.92.09a4.24,4.24,0,0,0,1.26-2.12,4.32,4.32,0,0,0,1.62,0,3,3,0,0,0,1.29-1.21,1.53,1.53,0,0,0,2.09-.15,9.09,9.09,0,0,0,2.28.81,41.85,41.85,0,0,1-9.31,4.79,2.24,2.24,0,0,1,.77-2.16Zm3.86-24.23a5.72,5.72,0,0,1-4.48-2.11l2.52.18-1.94-.77,2.74.12-2.78-.79,2.89-.07-2.41-.7,2.65-.1-2.44-.54a11.7,11.7,0,0,1,4.36.22,14.13,14.13,0,0,0,5,.1s-.41,4.62-6.15,4.46Zm8-44.19c-2.56-1.2-3.5-1-3.5-1-.4-.7-1.35-2-2.08-3a41.4,41.4,0,0,1,5.58,4ZM59.69,8.38a3.09,3.09,0,0,1-2.4,2.77c-2.34.61-3.18-2.61-3.18-2.61l2.2,2.14L55.8,9.29l1.37,1.38-.72-1.5,1.49,1.37-.83-1.8,1.69,1L57.4,8.17l1.83.69L57.76,7.53l1.17.6L57.81,6.81l1.13.47L57.87,6.17l.69.21a2.3,2.3,0,0,1,1.13,2ZM13.13,21.17a20.84,20.84,0,0,0,0,4.81,4,4,0,0,1-2,3.34,18.77,18.77,0,0,0-3.9,3.18s0,0,0,0a41.09,41.09,0,0,1,5.91-11.28ZM85.75,57.38a41.65,41.65,0,0,1-2.7,7c-.84-5.38-3.25-6.83-3.25-6.83a9.05,9.05,0,0,0,5.48-4.06A9,9,0,0,1,87,51.73a43.77,43.77,0,0,1-1.2,5.65Zm-1-7.56-3.27,1.6,2.34-.56-2.31,1.32,2.17-.62-2.37,2.09,2.49-1.41L82.1,54.47l2.51-1.91s-.92,3.46-5.88,4.25a5,5,0,0,1-6-3.62c3.18.6,5.15.54,7.35-1.79a4.81,4.81,0,0,1,4.68-1.58ZM78.38,25.75s-3.28-1.88-6-.86c0,0-1.27-2.8-.89-4.59a9.43,9.43,0,0,0,3,1.91s-1.27-2.72-3.36-3.51a27.35,27.35,0,0,0-1.18-4.38,22.63,22.63,0,0,0,4.56,1.47,41.43,41.43,0,0,1,5.4,6.3,5.65,5.65,0,0,0-1.47,3.66Zm8.78,24.16a7.47,7.47,0,0,0-1.77-.36c-1.85-1.27-4.57-.52-4.57-.52a5,5,0,0,1,2.25-4,6.23,6.23,0,0,0-2.46-.38,4.91,4.91,0,0,0,.72-3.49,12.24,12.24,0,0,0,1.19-5.87,27.14,27.14,0,0,0,1.62,2.39,15.34,15.34,0,0,0-1.93-4.9c-.06-.3-.24-2.68-.24-2.68a5.38,5.38,0,0,0,1.56.94A7.35,7.35,0,0,0,82,28.55c.1-.77.14-1.8.16-2.7a41.58,41.58,0,0,1,5,24.06Z"/></g></g></svg>