<svg xmlns="http://www.w3.org/2000/svg" viewBox="0 0 92.32 92.33"><defs><style>.cls-1{fill:#FFB200;}</style></defs><g id="Layer_2" data-name="Layer 2"><g id="Vector_Graphics" data-name="Vector Graphics"><path class="cls-1" d="M92.23,43.25a46.16,46.16,0,1,0-43.16,49,46.22,46.22,0,0,0,43.16-49ZM20.76,70.18c.5-1.28-1.17-1.85-1.17-1.85a1.67,1.67,0,0,0-.66-1.88c-.92-.57-2.38.74-2.38.74-.29-.57-1.29.16-1.29.16a6.3,6.3,0,0,1,1.78-3A13.14,13.14,0,0,0,19.09,61l1,2.61.15,1,.43-1.16-.36-3,1.71,1.86.39,2.28L23,62.38,20.88,59c.25-.14,2.71-4.23,2.71-4.23C24.51,66.6,28,70.65,28,70.65c-1.24-.43-1.74.27-1.74.27S24,69.81,24,73.33c-.09,4.52-2.15,5.11-2.15,5.11-.8-3.5-4.73-7.31-5-7.67s-1-1.69.59-1.84,1.09,1.36,1.09,1.36c.22.19,1.79,1.18,2.3-.11ZM68.14,11.32c-1,.08-5.18.54-5.56,2.7a3.83,3.83,0,0,0-2.69-.24,6.86,6.86,0,0,0,.57-2.42s-3,3-3.91,1.29S59.84,8,63.14,11A27.8,27.8,0,0,0,61.91,8.1a42.19,42.19,0,0,1,6.23,3.22ZM54.27,86.55a7.75,7.75,0,0,0-1.94-2.34l3.3.55,1,1.25c-.77.2-1.55.38-2.35.54ZM56,84s-3.52-.15-5.1-1.94S51,78,51,78l8.2.61-2.69,2.43,1.27,2.26,1.87.43-1.38-1.29.19-1,3.88-2.17a31.84,31.84,0,0,0,6.51,1.23,40.82,40.82,0,0,1-11.59,5.29L56,84ZM40.25,81.13c.23,1.66-2.57,3-6.79-1.46a5.34,5.34,0,0,0-2.08-1.08s-1.44-1.54-4.6-.59-2.63.84-3.68.82a9.92,9.92,0,0,0,1.81-4.59c.21-2.52,3.39-1.22,1.37.58,0,0,.75,1.21,1.79.52a1.08,1.08,0,0,0,.41-1.58s.86-.93.84-1.22a24,24,0,0,0,9.23,6.36,6.32,6.32,0,0,0-1.72,2.58s3.18-2,3.42-.34ZM19.79,49.45c-.8,2.15-2.37.21-2.37.21a2.53,2.53,0,0,0,2.37-.21ZM16.5,51a1,1,0,0,1-1.27-1.12L16.5,51Zm7.67-2.35a4,4,0,0,1,2.15-1.71c2.68-.78,4.52,2.52,4.52,2.52l-1.55-1.28.33,1.3L28.49,48,29,49.59l-1.62-1.84.78,2L26.55,48l.79,2.11-1.6-2,1.06,2.41L25,48.9l1.24,2.28L24.77,49.8l.88,1.92-1.28-1.3.88,2-.83-.73.57,2.1s-1.93-3-.82-5.14ZM5.4,52.07A14.22,14.22,0,0,0,7.88,49.2a11.18,11.18,0,0,1-.3,3.22,12.71,12.71,0,0,1-1.84,1.67c-.13-.66-.24-1.34-.34-2Zm-.17-1.35c-.07-.65-.13-1.3-.17-2a40.63,40.63,0,0,1,.4-8.92c.74.95,2.4,3.46,1.91,6.25-.54,3-1.62,4.15-2.14,4.63ZM20.46,14l.06.7A3.64,3.64,0,0,0,22,17.4c-3.22.68-2.09,4.12-2.09,4.12a2.71,2.71,0,0,1,2.31-2.67c.58,0,.93.68,1,1s-.24.76-1.06,1.82c-1.33,1.75-4.48,2.17-6.36,2.76a41.28,41.28,0,0,0-6,3.2L9.23,28A41.51,41.51,0,0,1,20.46,14Zm10.28,4a1.44,1.44,0,0,1-1.36-1.55c.13-1.42,1.85-1.65,1.85-1.65s1-2.26,2.64-2.33,2,2.1,2,2.1a3.3,3.3,0,0,1,1.79,4.09,4.55,4.55,0,0,1-4.68,2.93s1.89-1.44,2.21-2.8.11-3.27-2-3.8-2.41,3-2.41,3Zm8.58-8.76c-.26.76-.82,1.9-.82,1.9-.31-3,1.67-3.81,1.67-3.81A2.84,2.84,0,0,1,43,5.25,1.78,1.78,0,0,1,43.7,8c1.59,2.69-1,2.45-1,2.45A2,2,0,0,0,42.48,8c-1.18-1.18-2.89.46-3.16,1.24Zm.49,1.22c.13-.35,1.3-2.75,2.12-1.67s-1.25,1.61-1.25,1.61a4.09,4.09,0,0,0,3.49,1c0,.12.46,2.82.54,3.1s.58,1.75-.51,1.95-.7-2.19-.7-2.19C41,18.81,45.81,21,44.67,21.74s-2.42-2.92-2.42-2.92c.53,5.33,3,5.46,2.76,6.92-1.09,3.17-4.88,2.25-6.61,2.14a19.41,19.41,0,0,1-5-1.13,22.88,22.88,0,0,0-4.52-1.5c-1.65-.27-6.56-1.82-6.56-1.82a25.45,25.45,0,0,1,4.43-.53s8,.66,10.48-1.6c3.51-3.18.11-7.19.11-7.19a9.65,9.65,0,0,0,2.44-3.67Zm27,8c-.42-.6,0-.91-.08-1.22s-.44-.47-.41-1a1.54,1.54,0,0,1,2.44-.62c1.31.86.18,1.71-.61,1.26,0,0,1.12,2.22,2.26.93A1.76,1.76,0,0,0,70,15.12c-.3-.26-3.38-2.3-5,.29a1.84,1.84,0,0,0,.17,1.65s.32,3.65,3.21,2.62c0,0,4.87,2.72,5.92-3.59.54.51,1.07,1,1.59,1.57-.2,1.37-1.17,5.23-5.59,3.72,0,0-3.18,2.21-5-1,0,0-3.13.57-2.65-3.26,0,0-2.55-.65-2.22-1.8s3.23.45,3.23.45.42-5.21,6.09-2.58,1.83,7.67-.67,5.25c0,0-1.92.53-2.33-.07Zm18.6,40.49a4.48,4.48,0,0,0-2.09-.81c-1.35-.13-1.73-.14-2.67-1.17,0,0,2-1.3,2.36-2.33a1.67,1.67,0,0,0,1.21-.2c.43-.36,1.52-.43,1.53.41s-.85,1.09-1.55.68c0,0,.65,1.34,1.84,1.31-.19.71-.4,1.42-.63,2.11Zm-8-.61s-.82,1-1.46.8-.79-1.28-.79-1.28l1,.9,1.27-.42ZM68,59.75l.08-.08-.08.08A17.77,17.77,0,0,1,62.63,63l6.43-2.29-5.25,3.14L71,61a15.13,15.13,0,0,1-5.36,2.6s5.48-.68,7.84-2.42c0,0-1.52,1.81-6.41,3.2,0,0,5.33-.42,8.92-3.19,0,0-1.45,2.85-8.14,3.69a10.22,10.22,0,0,0,6-.51l-.44.95s-1.64-.06-1.66.9a2.47,2.47,0,0,0,1.63,2s.74,3,3.24-.45c0,0-2.19.43-2.17-1.2s2.31-1.2,2.64-.59,2.22,3.29-2.72,9.29c0,0,.29-2.11-.74-2.5,0,0-.72-2.72-2.89-.66,0,0-1.9-.87-1.95,1.63,0,1,1.17,1.94,1.17,1.94s1.08-2.87,2.3-2.11.6,2.93-.21,4-3.38,2.85-8.48,1c0,0,4.07-.47,6,.12l-1.3-1.21-5.33-.29,3.59-1.44,2.22.65-2.17-1.87-4.46,1.66L61,76.84s-4.52-2-5.61-1.94c0,0,3.61-4.54,3.09-9.44s-.83-3.92-.38-6.76l4.64-1.34-3.53,2.36s5.62-1.44,6.15-2c-.17.23-1,1.17-4.46,2.35a18.3,18.3,0,0,0,5.26-1s-.37.82-4.94,2.7c0,0,5.89-1.3,6.7-2ZM48.28,64.09l.3,2.71.52-1.69.25,2.37.51-1.73.59,2.85.34-2.19.48,2.14.36-2.19.56,2.35.3-2.65.69,2.49.13-3,.82,2.14L54,65.52l.76,1.58L54.68,65l.66,1.52-.07-2.09.58,1.21L56,63c1,2.63-1.26,6.39-4,6.25-6.33-.32-4.74-5.48-4.74-5.48l.59,1.91.46-1.6Zm-6.51,3.74-1.89.9L41,69l-2.7.42,1.84.38-2.22.52,2.37.26-2.92.56,2.41.38-2.53.6,2.29.11L36.88,73l2.86,0L37,73.88h2.67l-2.27.8,2.51.06-1.76.45,2.28.3-2,.31,2.19.34L39,76.32l1.9.8s-4.88-.29-4.54-4.74c.4-5,5.46-4.55,5.46-4.55Zm8.48,3A3.5,3.5,0,0,1,51,76a8.47,8.47,0,0,0-.73-5.1ZM48.48,76.7a1.69,1.69,0,0,1-1.29-.08l1.67-1s.17.8-.38,1.09Zm-3.7-2.06,1.78-.55a.78.78,0,0,1-.5.94,1.45,1.45,0,0,1-1.28-.39Zm3-1.32a6.41,6.41,0,0,0,1.57-.95s.59.85-.2,1.24a1.15,1.15,0,0,1-1.37-.29Zm-.87-1.8A1.29,1.29,0,0,1,45.33,71a3.44,3.44,0,0,0,2-.79.82.82,0,0,1-.42,1.31Zm-3.62-.74A9.41,9.41,0,0,0,45,77.11s-4.19-2.19-1.68-6.33ZM75.41,44.1c1-3.08,2.8-.85,2.8-.85a2,2,0,0,0-2.8.85ZM74,43c-2.54-.55-2.67,2.13-2.67,2.13a2.09,2.09,0,0,1,.48-2.45C72.77,42,74,43,74,43Zm5,8.51c1.26.63,1.34,1.38,1.33,1.8s-2,1.59-2,1.59l2.79-.14S80.6,56,80,56.19a2.76,2.76,0,0,1-2.62-1,8.13,8.13,0,0,0-2.26-2c-.91-.48-.69.26-1.81-.8s-3.09-1.94-4-2.68-.11-1.16-.11-1.16l5-1.11a7.09,7.09,0,0,0,3.07,2.23c.39.23.46,1.23,1.71,1.86Zm3.49-1.1a.65.65,0,0,1,.08,1.29.63.63,0,0,1-.66-.6.63.63,0,0,1,.58-.69Zm-.25,2.4A.61.61,0,1,1,82.3,54a.61.61,0,1,1-.08-1.21Zm-8.55,4.1s-.73,1.09-1.54.72a1.22,1.22,0,0,1-.65-1.55l.71,1.17,1.48-.34Zm-18-1.59s6.46-2.54,7-2.86c0,0-3.25,3.55-7,2.86Zm9.07-3.62a8.05,8.05,0,0,1,.78,1.16l1.23.13s-2.48,1.88-2-1.29Zm5.12,3.61s-.78.88-1.61.35S68,54.23,68,54.23l.75,1.29,1.07-.19Zm-6.66-.71S61.33,57.71,56.43,57c0,0,6.33-1.78,6.75-2.39Zm4-4.35c1.47,2.08,5,3,6.64,5,0,0-2.39-1.32-5.42-2.88s-4.62-5-.26-6.77c0,0-2.43,2.54-1,4.63Zm-3.06-.69s-2.33-1.19.09-2.52l-.46,1.29.37,1.23Zm8.48-4.36a.58.58,0,0,1,.54-.64.59.59,0,0,1,.62.56.58.58,0,1,1-1.16.08Zm3.87-.35a.54.54,0,1,1,.57.51.55.55,0,0,1-.57-.51Zm-11.37.26c-.45-1.82,1.74-1.62,1.74-1.62l-1.31.58-.43,1Zm-2.92-1.74a6.64,6.64,0,0,0-4,1.42,13.23,13.23,0,0,1-4.85,2.11c5.62-4.5,8.86-3.53,8.86-3.53Zm.12,1.91s-3.09,2.08-4.77,3.36a7.58,7.58,0,0,1-4.59.83,17.66,17.66,0,0,0,4.73-2C59,46.39,61.16,45,62.3,45.3Zm-.73,3s-2,4.39-8.53,3.46c0,0,7.09-1.74,8.53-3.46Zm.11,2.42S59.79,54,54.1,54c0,0,6.68-2.35,7.58-3.28Zm-12,2.86-1.53,2.16,2-1.35-1.69,2,1.92-1.31-1.92,2.29,2.26-1.46-2,2.66,2.31-1.68-1.6,2.52,2.22-1.68-1.26,1.93,1.76-1.46-1.25,2.09,2-1.82-1,1.85,1.84-1.72-.88,1.59L54.24,59l-.63.92,1.3-.77s-3.31,3.56-6.32.27c-2.8-3.05.47-6.4.47-6.4L48.9,54l.79-.45Zm37,.3a3.62,3.62,0,0,0-2.79-.8,2,2,0,0,0-.07-1.17,2.5,2.5,0,0,0,.76-1.26,16.86,16.86,0,0,0,2.74-1.84,42.31,42.31,0,0,1-.64,5.07Zm-1.8-9.65a3,3,0,0,0-2,2.14s1.38-2,3.17-.79-.6,3.68-2.13,4.07a2.94,2.94,0,0,0-2.57-1c-1.71.15-1.2-.47-1.5-.57s.07-.89-2-2c0,0,.85-.47.86-1l3.85-2.58-2.4,1,2.48-2.42L79.86,42.9l1.08-2.71-1.6,2.36.57-3.46-1,2.87-.77-1.59s-.14-.16.14-1-.87-4.55-1.08-5.21l.87.49s.85,3.59,4,2.68c0,0,2.67,1.68,3.92-2a40.92,40.92,0,0,1,1.38,8.28l0,.59a7.14,7.14,0,0,0-2.47.05Zm-30.4-.76c5-4.75,8.76-2.47,8.76-2.47-3.69-.23-8.76,2.47-8.76,2.47Zm.65-3.72c5.86-4,9.31-.34,9.31-.34s1,.73-2.12-.36-7.19.7-7.19.7Zm2-3.27s5.94-2,8.51,2.14a14.38,14.38,0,0,0-8.51-2.14Zm11.57-7.67c.39,1.23,1.37,1.7,2,2.57a3.34,3.34,0,0,1,.67,1.75s-.22,0,.25.45c0,0,3,2.19,1.32,3.53-.9.74-1.56,0-1.86-.43a4.07,4.07,0,0,1-.35-1,9,9,0,0,0-2.2-3.88s-4.59-4-3.5-6.59c0,0,.44-1.47,1.42-1.41a4.54,4.54,0,0,1-.37,2.13c-.5,1.47.13,2,.13,2s1.86-1.05,2.47.88ZM82,28.49c1.67,2,3.94,5.68,2,7.72-.62.63-1.8-.17-1.82-.39,0,0-3,1.63-3.45-2,0,0-2.47-.82-1.64-2.57s2.12-.23,2,.38c0,0,2.35-1.06,2.85.38s-1.22,1.59-1.24,1.18c0,0-.34-.35.22-.89,0,0-.06-.44-.41-.51a.83.83,0,0,0-1.09.63,2.07,2.07,0,0,0,1.53,2.26c1.79.55,2.38-1.53,2.06-2.58a3.85,3.85,0,0,0-1.81-2.39c-1.5-.85-1.81.14-1.81.14s-1.31-1.8-3.6-.21c0,0-.4-.88-2.17-.55,0,0,.47-2.61,4-1.23,0,0,2.68-1.3,4.34.67Zm-9.49,2.82c2.08-2.36,3.19-.17,3.26.9a6.27,6.27,0,0,0,1,3.6c1,1.63.44,2.39.44,2.39-.4-.35-2.51-1.5-2.51-1.5-.88-3.46-.9-1.7-2.78-5.16a5,5,0,0,1,.57-5.91c0-.06,1.54-1.44.64,1.19a10.9,10.9,0,0,0-.66,4.49Zm-4.28,2.12s3.26,2.59,1.92,5.15c0,0-1.33-4.48-1.92-5.15Zm.52,4.9s-1.39-3.34-3.1-4.66a4.5,4.5,0,0,1,3.1,4.66ZM67.28,38s-3.4-3.47-5.75-4.2c0,0,4.83.24,5.75,4.2ZM77.71,26.4c-1.21-.74-3.26.05-3.26.05-.24-2.78-1.12-2.75-1.12-2.75-2.51.06-3.11,5.47-3.11,5.47-1.65-3.23-3-3.17-3-3.17a16.6,16.6,0,0,0,.44-2.89c2.24.14,2.53-.69,2.53-.69,5,1.42,6.18-2.82,6.41-4a41.11,41.11,0,0,1,6.1,8.7,4.83,4.83,0,0,0-5-.74Zm-16.4-8.53C62,21.78,65,21.47,65,21.47l.7.61c-4.26,4.19.84,9.3.84,9.3-4.67-.34-6.54.79-6.54.79l-6.72-.9,3.7,1.34-4.11.1,2.85.8a12.93,12.93,0,0,1-7.77.36,6.07,6.07,0,0,0,2-2.79s-2.53,3.14-3.42,1.56c-.62-1.11,1.67-2.37,3.09-3A14.1,14.1,0,0,1,51.47,29a6.3,6.3,0,0,0,4.63-4.72,9.93,9.93,0,0,1-1.42,1.35c-.4.27-1.33.89-1.83.49s.22-1.61,2.14-2.39c5.06-2.05,4.28-5.89,4.28-5.89-.08.29-1.44,3-2.69,2.11s-.24-2.71.45-3.26S59,15,59,15a3.67,3.67,0,0,0,2.34,2.84ZM15,35.7l-1.72-1.37.81,1.36L12.24,34.3l1.35,2-1.86-1.61,1.2,2.09-1.42-1.2,1.18,1.78-1.87-1.23s1.07,1.47,1.1,1.59a15.07,15.07,0,0,1-1.51-1.06l1.22,1.8-1.05-.72.82,1.14-1-.62,1,1.85c-.78-.39-2.74-3.13-.81-5.26,3.17-3.48,5.37.51,5.37.51l-1.66-1.05L15,35.7Zm.71,2.84-1.31,3.63s-.66-2.56,1.31-3.63ZM17,40s1.09,1.37,1.45,1.47c0,0-1.92,1-1.45-1.47Zm1.9-5.77c2.47-3.14,8.46-1.79,8.46-1.79s-7.08.26-7.82,3A4.88,4.88,0,0,0,21,40.09s-4.63-2.76-2.16-5.89Zm-1.59-2.35.47-1-.93.78.79-1.9-1.26,1.39,1-2.29-1.51,1.79.94-2.41-1.69,2L16,27.88,14.4,29.65l.62-2-1.45,1.94.61-1.82-1.39,1.84L13.23,28l-1.14,1.45.34-1.18-1.56,1.76c-.23-.68,2.88-4.17,5.88-2.41,3.58,2.09,1,4.83,1,4.83l.09-1-.6.35Zm5.3-5.25,1.72-.53-2.35,0,1.89-.62-2.56-.09s4-1.64,5,2.41c.57,2.43-3.43,2.68-3.43,2.68l1.38-.63-.81-.24,1.74-.24L23,28.87l2.53-.37-2.41-.43,1.78-.24L23,27.45l2.43-.57-2.86-.28Zm11.6,4.16-1.48-.32,2.41-.28-2.21-.53,1.91-.25-2.22-.69,1.71-.07-1.9-.88s3.15.22,3.09,2.44-3.39,1.43-3.39,1.43l2.08-.85Zm8.63-.63c0,1.22-2.64,1.38-2.64,1.38l1.3-.66-.68-.25,1.64-.48L41.11,30l1.2-.29-1.41-.41s1.91-.33,1.9.88Zm3.55-.05c-6.5,5.05-14.62,2.43-14.62,2.43,10.3.77,14.62-2.43,14.62-2.43ZM47.13,25s1.22-1.65,2.5-.69a1.63,1.63,0,0,1,.21,2.34s-.16-2.13-2.71-1.65Zm6.19-5a6.67,6.67,0,0,1-2.13,2.62s.71-2.18,2.13-2.62Zm-3,1.23s1.37-4.61,4.53-5.81c0,0-3.67,5-4.53,5.81Zm4.23.36a9,9,0,0,1-2.75,2.72,6.64,6.64,0,0,1,2.75-2.72ZM48.17,27a.49.49,0,0,1-.45.51.47.47,0,0,1-.51-.45.48.48,0,0,1,.45-.51.49.49,0,0,1,.51.45Zm1-6.74s.25-5.35,4.42-7.55c0,0-4.19,6.82-4.42,7.55Zm-1.58.48s-.9-5.31,2.11-8a68.32,68.32,0,0,1-2.11,8Zm-1.52.66S44.65,18,46,16.23a11.55,11.55,0,0,1,.14,5.14ZM13.71,44.66l.45,2.64a36.36,36.36,0,0,1-5.78-2.12l-.45-3.61L5.66,38.65A40.68,40.68,0,0,1,7.3,32.52c.34,1.88,1.82,8.5,6.41,12.14Zm8.07-2.43a1.06,1.06,0,0,1-1.91,0c.2.21,1.91,0,1.91,0Zm1.57,1.88a7,7,0,0,1-1.43,3.29s.38-2.47,1.43-3.29Zm-4.67,1.65,2.18-.3a1.34,1.34,0,0,1-2.18.3Zm-3.11-2,2.22.33c-1.3,1.77-2.22-.33-2.22-.33Zm.34,3.43,2.14.05a1.17,1.17,0,0,1-2.14-.05Zm17.2,5.34C31.69,47,27,43.31,26.66,42.87c0,0,5.95,2.29,7.89,10.14s1.61,7.08,2,8.12c0,0-1.3-.26-3.43-8.57Zm.49,5.31-1.12-1L32.61,58l-.82-1.55.27,1.81L30.91,56.5l.15,1.9-1-1.66.38,2L29.11,56.3l.64,3.19L28.24,57l.6,2.47-1.11-1.59.56,2.38-1.54-2s1,2.6,1,2.73-1.27-1.77-1.27-1.77l.88,2.45-.92-1.13L27,62.9c-.4-.35-2.6-5.39,1.44-7.09s5.21,2.06,5.21,2.06Zm6.06.43s-.67,2.77-1.59,2.23-.32-2.67.22-4.06a3.62,3.62,0,0,0,0-2.57s-.78,2-1.58,1.2.58-4.12.53-6A13.08,13.08,0,0,0,36.81,46s-.48,3.8-1.93,2.76,1-4.67-2.22-7.27c0,0,.91,2.66-1.21,2.28-1.52-.28-1-3.39-4.09-5.71,0,0,1.43,3.3-.64,2.8s-1.79-3.93-4.22-5.22c0,0,1,2.38-.85,2.44s-1-2.29-1-2.29.17-.8,2.18-.83a5.16,5.16,0,0,1,3.13.84,7.45,7.45,0,0,0,2.17.14l.09-.07S26,35,26.67,34.14s2.29,0,2.55.06S33,37,35.64,36.43c0,0-2.55-1.69-1.48-2s2.15.74,2.74,1,3.47,1.38,4.87.17c0,0-2.43-.2-2.11-1.1s1.78-.17,2.16-.1,2.91.38,3.66-.17c0,0,5.59,1.57,5,1.73-.15,0-5.78.36-5.85.33l6,1L44.4,38.39l5.9.41-7.67,1.4,8.41,0L42,42.31l9.55-.45L41.48,44.79l9-.7S42.79,46.21,41,50.15c0,0,3.22-2.24,3.7-1S41.82,51.79,41.12,56c0,0,2.09-2.61,2.79-1.49S41.8,58,42.08,60.78c0,0,1.54-1.44,2-.47s-1.05,2.27-2,2.07S40,62,39.66,58.3Zm5.75-4.11c.63-6.56,5.22-8.11,5.22-8.11-4.29,3.62-4.46,11.62-4.42,13.46s-1.55,4-3.84,4.89a3.15,3.15,0,0,1-3.66-1s2.83.55,3.57.2c3.21-1.54,2.5-2.88,3.13-9.45ZM36.7,64.61l-1.45-.13.67.77s-1.54-.81-2-1.1c.36.36,1.51,1.66,1.51,1.66l-2.63-1.4,1.78,2-2.46-1.26,2,1.79-2.85-1.39,2.1,2-2.54-1,2.34,1.83-3-1L32.74,69s-2-.39-2.63-.57c.55.28,2.2,1.28,2.2,1.28l-2.51-.46,2.51,1.5-2.22-.49,2.45,1.54L31,71.36l1.56,1.47c-1.32,0-5.26-3.8-2.5-7.34s6.6-.88,6.6-.88ZM47.39,78.8l1.85-.65s-.38,1.94-1.85.65ZM80,63.6c.25-.56,1.45-1.52,1.87-.75s-.49,1.45-.49,1.45c.26.7,1.06.59,1.58.44a41.72,41.72,0,0,1-5.64,8.38c.79-2,2.42-9,2.68-9.52Zm1.74-2.16c-1.3-1.43-2.38.11-2.56,1.2a7.55,7.55,0,0,1-.86,2.24A1.85,1.85,0,0,0,76.15,63a8.21,8.21,0,0,0,3.09-4.79l.82-.14a5.27,5.27,0,0,0,3,1.28,3.14,3.14,0,0,1,2,.53c-.29.82-.61,1.63-1,2.42a2.1,2.1,0,0,0-2.36-.86ZM52.09,9a6,6,0,0,1,8-1.3,11.39,11.39,0,0,0-5.5,2C52.28,11.53,52,9.2,52.09,9Zm-3.52,1.54c-1.52,2.66-3.8-.08-1.32-2.5a4.57,4.57,0,0,0-2.14,1.36S44.92,8.33,44.83,8a4.23,4.23,0,0,0-.06-3,40.57,40.57,0,0,1,9.13.7,14.14,14.14,0,0,0-5.33,4.85ZM40.09,5.43a2.31,2.31,0,0,1-.93,1.69c-1,1-1.61,4.4-1.61,4.4a5.72,5.72,0,0,1-1,1.92,4.12,4.12,0,0,0-3-2C31.55,11.4,31,13,30.32,13.8c0,0-2.06.79-1.75,2.71s2.51,2.48,3.09,2.6c0,0-.38-3.49,2-2.76a1.71,1.71,0,0,1,.58,2.07,4.14,4.14,0,0,1-1.53,1.88,10.2,10.2,0,0,1-4.4,1.34,13.86,13.86,0,0,1-1.95,0,8.84,8.84,0,0,0-3,.27s1.35-2,.36-3.67S22.11,17,21.7,15s1.57-2.45,1.63-.48l0,1.07s1.72-2.19-.18-3.62A41,41,0,0,1,40.08,5.43Zm-30,60.62A40.59,40.59,0,0,1,5.92,55c.74-.65,2.77-2.33,2.77-2.33.22-.55.89-4.29.89-4.29,7,7.59,10.52,4.07,10.52,4.07a28.63,28.63,0,0,1-1.36,4.8l-4.4-2.11-1,.59-.44,1h2l2.9,2.61c-.21-.24-1.13.07-1.13.07-1.6-1.5-2.43.72-2.43.72C12.51,60,14,63.28,14,63.28c.92-1.91,2-1.66,2.16-1.61s1.39.69-.05,2.26a12.69,12.69,0,0,0-2.07,2.92,7.75,7.75,0,0,0-3.94-.8ZM26.85,79.21c2-.8,3.35.54,3.09,1.1s-1.49.93-1.63.07c0,0-.72,2.51,1.3,2.05,0,0,.89.9,1.65.27s.11-1.6.11-1.6a1.24,1.24,0,0,0,.5-1.33,6.25,6.25,0,0,1,2.64,2c.92,1.37,4.47,5.16,6.76,1.62a1.62,1.62,0,0,0,1.63-1.27c.38-1.36-1-1.69-1.32-1.71,0,0-.26-.2,0-.84a12.28,12.28,0,0,0,4.94.07s1.15,3.52,1.4,3.55a38.38,38.38,0,0,1-3.81,1.33l-1.61,2.65a41,41,0,0,1-19.49-7,18.35,18.35,0,0,0,3.89-1Zm21.94,8.06a41.2,41.2,0,0,1-5.33,0l1.36-2,3.75-.9,3.17,1c.35.12.86.9,1.15,1.38-1.35.22-2.71.38-4.1.47ZM10.91,67.43a4.42,4.42,0,0,1,3.54.93,5.28,5.28,0,0,0,3,4.75c2.25,1.27,2.87,3.81,3,5.21a41.38,41.38,0,0,1-9.56-10.89Z"/></g></g></svg>