<svg xmlns="http://www.w3.org/2000/svg" viewBox="0 0 92.32 92.32"><defs><style>.cls-1{fill:#FFB200;}</style></defs><g id="Layer_2" data-name="Layer 2"><g id="Vector_Graphics" data-name="Vector Graphics"><path class="cls-1" d="M10.26,17.11a46.18,46.18,0,1,0,64.95-6.85,46.24,46.24,0,0,0-64.95,6.85ZM83.39,28.5c-6.52-.37-9.65,2.06-9.65,2.06,2.34-5.25-.3-13.32-1.39-16.21a41,41,0,0,1,11,14.15Zm-21.87-2A9.58,9.58,0,0,1,57,22.33a14.09,14.09,0,0,0,.09,2.93c-1.22.11-2.95.36-2.95.36a11,11,0,0,0,1.95-3.91,8.41,8.41,0,0,0,3.71-1.55,12.35,12.35,0,0,0-3,0C59,16.5,64,18.67,64,18.67c1.81,2.11,3.36,1.83,3.36,1.83,2.08,7.9-.23,10.26-.23,10.26-1.42-1.79-2-2.47-5.56-4.25ZM74.27,45.13,73,43.75l.61,1.63-1.24-1.33.76,1.53-1.37-1.11L72.49,46l-.87-.59.45,1.44s-1.9-2.57.45-3.62S76,44.71,76,44.71L74.78,44l.28,1-1.18-1.28.39,1.39ZM63.63,40.39l-1.87,1.12,2.05-.33L62,42.27l1.84-.35-1.6,1,1.86-.16-1.44,1,1.79-.43-1.4,1,1.79-.42-1.38,1L65,44.47l-.84.71,1.45-.33-1.13.8,2.05-.27-1,.67,2.24-.39s-3.64,2.6-6.08-2.78c-2.17-4.76,3.43-7.43,3.43-7.43l-1,.81.55.18-1.1.51,1,.22-2,.87L64.24,38l-2.2.86,1.87-.05-1.62.74,1.38.09-2,.92,1.94-.15Zm23,13.43c-.56.65-3.63,1.08-5.35.44A29.6,29.6,0,0,0,77,53.16s3.25-1,5-.38a29.28,29.28,0,0,0,4.64,1ZM75.49,55.05S81.62,54,81.8,62.2c0,0-1.67-5.44-6.31-7.15Zm-15,8.77-.41,1.6.75-1-.26,2.11L61.21,65,61,66.87l.59-1.2-.2,1.8L62,66.3l-.06,1.64.61-1.39.13,2,.35-1.4.25,1.92.36-1.47.16,1.78.35-1.29L64.44,70l.34-1.18.5,2,.12-1.73L65.76,71,66,69.53l.47,1.83.21-1.64.46,2.74c.19.11-13.46-6.42-8.38-15.47l-.4,1.91.73-.44-.7,1.8.91-1-.74,1.7.78-.64-.89,1.85,1-1.09-.71,1.7.92-1.11-.53,1.72.76-1.16-.47,2,.75-1.26-.35,2.14.71-1.26ZM34.55,85.7,36,84.23v1.41l1.67-.87,1.13-3.44.47,2.76L37.86,86l1.41-.75-.31,1,1.7-1.61.45-3.35A11.84,11.84,0,0,0,50.59,83l-.21,2.25-1.62,1.8,1.79-.81-.48.89A41.45,41.45,0,0,1,34.55,85.7ZM8.39,29.77c.52.45,1.29,1.84,3.24,1.13l1.58.14L11.6,32.93A10.33,10.33,0,0,0,14.81,31s3.59-.2,5.45-.07A12.25,12.25,0,0,0,18,33.37a8.1,8.1,0,0,0-3.87,1.74,15.3,15.3,0,0,0,3.35-.55,15.61,15.61,0,0,0-.62,3s-3.48,3-11.77,5.18a41.17,41.17,0,0,1,3.25-13l0,0Zm18.54,1.89c4.78,1.61,5.55,5,5.55,5-8.37-3.27-14.49.16-14.49.16A5.51,5.51,0,0,1,20.1,32a6.12,6.12,0,0,1,5.43-.92,6.06,6.06,0,0,0-2.23,1.42c3-.05,3.63-.83,3.63-.83ZM31,30l-1.09.62,1.65-.05-1.12.65L32,31l-.91.66,1.69-.3-1,.73,1.64-.23-.88.68,1.52-.22-.85.66,1.71-.39-.9.72L35.69,33l-.81.53,1.86-.17-.65.34,1.45.26c-7.21.35-9.22-5.15-9.22-5.15l1.44.62-.4.49L31,30ZM63.29,12.21a19.92,19.92,0,0,1,3.56,6.62A5,5,0,0,0,64.24,18a10.24,10.24,0,0,0-4.34-1A5,5,0,0,0,61,14.57a7.38,7.38,0,0,0-2.57,2.92l-2,1.08a7.67,7.67,0,0,0-1.07-5.05,3.91,3.91,0,0,0-.36-2.8,7.46,7.46,0,0,1-.6,1.94l-1.44-1.37a22.58,22.58,0,0,0,3.64-5A41,41,0,0,1,69.1,11.93c5.53,8.29,1.8,17.24,1.8,17.24a20.54,20.54,0,0,0-7.61-17ZM51.44,25.41a3.74,3.74,0,0,0,0,2.3,9.58,9.58,0,0,0-2.47,3.85l-1.5-1.34A9.94,9.94,0,0,0,48.57,33l-.31,2.18s-3.17-5.2,0-9.79c0,0-.12-1.15-4.8,1.39a58.61,58.61,0,0,1-3.15-7.91,28.36,28.36,0,0,1,4.17.87s-1-1.59-1.24-2.21a17.47,17.47,0,0,0,9.2,1,12.07,12.07,0,0,0-2-1.63c-1.5-1.09-1.82-1.79-3.83-2.49,0,0,4.2-1.6,5.88-2.54l2.31,2.64a4.68,4.68,0,0,0-3.22.09,6.27,6.27,0,0,1,2.74,1.74c1,1.25,1.19.72,1.19.72a11.75,11.75,0,0,1-2.87,8.64,7.12,7.12,0,0,0-1.05-3.34,12.34,12.34,0,0,1-.22,3Zm7,14.41-2,1.22,2-.24-2,.74,1.82,0-2.21,1,2-.21-1.88.8,2.08-.25-2.36,1.26,2.52-.27-2.06,1.23,1.9-.5L56.63,45.8l2.21-.68-1.73,1.34L59,45.73l-1.81,1.44,2.37-.88L57.8,47.87l2-.92L58.47,48.1l2.14-.85L59,48.79l2-1.1L59.55,49l2.26-1.07-1.6,1.45,2.07-1-.92.93,1.86-.76c-1,1.62-6.55,1.91-7.74-3.14a5.74,5.74,0,0,1,3.86-7.09L57.6,39.81Zm-5.63,1.3-1.43,1.05,1.1-.3-2,1.28,1.62-.46-1.67,1.06,1.39-.32-1.55,1,1.5-.33-1.78,1.13,1.74-.47-1.85,1.35,1.78-.54-2,1.45,2.12-.7L49.61,48l2.49-.89-2.05,1.67,2.16-.88L50.4,49.64l2-.9-1.76,1.64L53,49.28,51.17,51,53.38,50l-1.63,1.74,2.19-1.18-1.51,1.74,2.11-1.42-1.47,1.88,2.32-1.4-1.45,2,2-1.44-1.27,1.77,1.84-1.41-1.1,1.36,2-1.21L56.24,54l1.87-1.44-1.06,1.51,1.78-1.41-1.1,1.42,1.58-.82-.52.65,1.94-.74c-2,2.56-9.91,2.15-11.48-4.55a7.13,7.13,0,0,1,4.37-8.73l-1.33,1.19.48.06Zm-8.3,6.08-2.17.88,2.44,0-2,.87,1.94-.14L42.45,50l2.06-.49-2,1.14,2.36-.4L43,51.3l2-.39-2,1.22,2.08-.25-1.75,1.17,2.42-.46L43.9,54l2.22-.62-1.7,1.31,2.13-.7L45,55.26l2.09-.79-1.62,1.28L47.61,55l-1.67,1.4,2.23-.89-1.48,1.22,2-.77-1.51,1.41,2.35-1.11-1.38,1.36,2-.92-1.18,1.2,1.93-.86-1.09,1.21,1.69-.83-1,1,1.68-.89-.68.85,1.25-.55-.42.52,1.92-.44c-5.82,2.87-12-2.24-12.4-9.07s6.43-8.61,6.43-8.61l-2.39,1.56,1,.08L45,42.51l1.21.17-2,.63,1.67.12L44,44l1.45.2s-2.29.57-2.37.67a12.44,12.44,0,0,0,2,.15L43,45.81l2-.21-2.22.89,2.48-.14-2.11.87,1.37,0ZM55,61.25l-1,1.94,1.11-1.12-1,1.82.91-.67-1.2,2L55,64l-1,1.82,1.12-1.19-.81,1.85,1-1.24-.79,2.18,1-1.35-.69,2.3.92-1.35-.66,1.72.93-1.1L55.4,70l.88-1.58-.48,2,.8-1.29L56.12,71l.73-1.26-.3,1.78L57.4,70l-.18,2.16.58-1.51,0,2.08.59-1.58-.1,1.93.56-1.4.06,2.07.54-1.26.21,2.18L60,72.83l.09,2.09.43-1.63.2,2,.47-1.77.06,3s-12.1-8.42-6.36-16.81l-.7,2.06.82-.47ZM38.6,76.12l1.15,1.63-.26-1.34.79,1-.21-1.13,1.19,1.06L40.66,76,42,77l-.76-1.31,1.39.8-1-1.62,1.56.94L42,74.38l1.25.59-1-1.41,1,.45-.73-1.29c1.09.45,2.35,2.88-.37,5S37.28,76,37.28,76l1.3,1,0-.95ZM26.68,63.93l-1.47,1,1-.19L24.7,65.83l1.57-.34L24.3,67l1.49-.53-1.68,1.43,1.48-.49-1.75,1.56,1.47-.67-1.46,1.41,1.39-.57-1.31,1.52L25,69.94,24,71.37l1.29-.81-1.2,1.74,1.17-.75-1,1.4.94-.53-.66,1.36.8-.73-.59,1.38.72-.7L25,75l.78-.7-.56,1.28.74-.61-.36,1.29.78-.87L26,76.85l.62-1-.43,2s-6.36-9.34.69-15L26.08,64l.6,0Zm-8-.93-.74,2.3.89-1.16-.6,2.2,1-1.65-.36,1.91.81-1.6-.24,1.9.88-1.82-.26,1.84.78-1.68-.07,1.34.83-1.69-.15.79.83-1.1s-1.14,4.07-3.77,2.54-.62-5.35-.62-5.35l0,2.14.8-.91ZM41.13,40.89l-1.91.23,1.5.41-2.38.28,1.64.36-2.58.34,1.74.38-2.41.31,2.08.55L36.58,44l1.77.41-2.53.32,2.47.55-2.88.63,2.33.37-2.3.4,2.23.35-2.15.41,1.95.24-2.34.63,2.38.05L35.15,49l2.33.1-2.21.74,2.16,0-2.09.67,2.76,0-2.68.84,2.63-.18-2.42,1,2.3-.39-2.1.94,2.27-.21L36,53.29l2.24-.11-2.1.61,2.71,0-2.24.77,2.72-.11-2.24.77,2.38-.07-2,.74,2.2-.06-1.56.79,2-.27-1.82.79,2.4,0-1.88.74,2.33-.16-1.28.58h2.26l-1,.56,1.82.07c-1.9,1.48-10.45-2.43-8.83-11s7.83-8,7.83-8l-2,.71,1.16.29Zm10.63,20-.66,1.08c-11.72,6.7-20.61.42-20.61.42l1.83-.4-.53.64,1.92-.44-1,1,2-.63-.82,1,1.56-.73-.81,1,2.07-.91-.71,1.21,1.83-1.33-1.06,1.51L38.7,63l-.88,1.49,1.58-1.3-.64,1.2,2-1.49-.87,1.6L41.53,63l-.76,1.53,1.72-1.67-.69,1.59,1.71-1.78-.68,1.44,1.53-1.56-.94,1.76,1.85-1.89-.66,1.68,1.67-1.66-.48,1.38,1.33-1.56-.52,1.3L48,62l-.54,1.33,1.3-1.47L48.22,63l1.62-1.54-.61,1,1.41-1.28-.36.78,1.48-1.16ZM33,66.81a3.93,3.93,0,0,0-1.3-2.19c4.07,1.36,5,1.32,5,1.32A7.8,7.8,0,0,0,36,67a7.61,7.61,0,0,0-3-.18Zm4.24,2.46a.81.81,0,1,1-1.13.14.81.81,0,0,1,1.13-.14Zm-3-29.08-2.67,0,1.66.54L30.41,41l2.11.58-2.8.21,2.47.6-2.45.17,1.88.4-2.69.34,2.06.38-2.72.43,2.45.43L28.06,45l2.54.38-2.68.52,2.48.4-2.77.55L30,47l-2.82.62,2.94.23-3,.71,3.11.26-2.65.49,2.58.26-3,.67,2.89.08-2.38.76,2.7,0-2.77,1L30.35,52l-2.29.83,2.6-.09L28,53.63l2.93,0-2.43.88L31,54.33l-2,.83L31.26,55l-1.92.71,2.75.13L30,56.54l2.69-.08-1.91.77,2.57-.12-1.92.65,2.76-.09-2.06.81,2.64-.12-1.61.52,2.33.11-1.19.33,2.6.65c-5.07.74-12.12-5.82-10-13.86s8.26-7,8.26-7l-1.88.74,1,.37Zm-6.62-.87-2.75.15,1.69.5-3,.33,2.15.52-2.89.32,2.52.54L22.9,42l1.92.34L22,42.75l2.1.32-2.81.55,2.51.36-2.75.54,2.59.31-2.77.65,2.53.31-2.86.69L23,46.6l-2.92.75,3,.13-3.15.85,3.19.16-2.74.61,2.64.18L20,50.09l3,0-2.48.88,2.78-.12L20.34,52l2.83-.25-2.38,1,2.68-.2-2.75,1.07,3-.15-2.53,1,2.5-.24-2.05.95L24,54.85l-2,.81,2.82,0-2.15.86,2.78-.18-2,.88L26.1,57l-2,.75,2.84-.19-2.15.92,2.71-.23-1.67.61,2.39,0L27,59.3l2.64.58c-5.23,1-12.23-5.63-9.78-14.1s8.77-7.64,8.77-7.64l-2,.83,1,.35Zm-5.31-.82-2.72-.08,1.62.63-2.93.08,2.07.7-2.87.07,2.44.74-2.51.06,1.86.49-2.78.22,2,.49-2.81.31,2.44.56-2.76.31L18,43.6l-2.79.4,2.47.53L14.78,45l2.38.32-2.94.5,3,.38L14,46.73l3.13.43-2.75.37,2.59.39-3.09.54,2.92.23-2.52.66,2.75.11-2.95.93h2.81l-2.43.74,2.66,0L14.32,52l3,.1-2.58.78,2.47,0-2.09.76,2.32-.11-2,.63,2.77.27L16,55.06l2.74,0-2,.69h2.63l-2,.58,2.81,0-2.19.73H20.6l-1.7.47,2.35.22L20,58.12l2.55.8c-5.23.51-11.57-6.57-8.44-14.71s9.28-6.79,9.28-6.79l-2,.66,1,.42ZM39.53,73.1l-.11-2.72s1.66,1.34.2,3.87a3.64,3.64,0,0,1-1.44-1.87,6.82,6.82,0,0,1,1.35.72ZM43.34,80l-.72-.63,1.7.62-.68-.82,1.91.36-1-1.11,1.37,0-1.36-.57,1.36,0-1.07-.54,2,.29-1.51-.73h1.84L45.45,76h1.61l-1.56-.67H47l-1.32-.69,1,0-1.28-.82A2.75,2.75,0,0,1,47.38,78a4,4,0,0,1-5.71,1.88l1.67.12Zm4.06,1.3L47,80.87l1.39-.05-.76-.46,1.62-.14-1.1-.51,1.73-.21-1.44-.41L50,78.72l-.93-.32,1.24-.13-1.21-.44,1.15-.15L49,77.19,50.55,77,49,76.32l1.35-.2-1.56-.67,1.23.08-1.53-1c.26,0,3.21.61,2.21,4.1a4.21,4.21,0,0,1-4.49,3.09l1.17-.45Zm5-.76-.66-.26,1.46-.6-1-.1L53.64,79l-1.26-.11,1.41-.47-1.26-.17,1.22-.51-1.14-.12L53.82,77l-1.26-.17,1.07-.59-1.32-.09,1.08-.42-1.53-.16L53,75.16,51.44,75l1-.31-1.4-.33c.34-.16,2.65-.49,3.27,2.86s-3.09,4.22-3.09,4.22l1.15-1ZM42.08,70c-1.23-.94-2.74-2.33-2.74-2.33a6.24,6.24,0,0,1,2.19.22c.06-1.14-1.57-2-1.57-2,5.57.42,12.42-3.07,12.42-3.07C51.74,66,54,71,54,71c-2.88,4-10.71-.06-11.94-1Zm2.53-31.81A16.77,16.77,0,0,0,46.77,35a34,34,0,0,0,2.49,3.7,11.12,11.12,0,0,1-4.65-.58ZM34.1,14.64A4.22,4.22,0,0,1,30.61,12a4.32,4.32,0,0,1,3.49,2.66Zm2.3.73a.56.56,0,1,1-.71.87.56.56,0,1,1,.71-.87Zm1.06,2.3a9.58,9.58,0,0,1,3,4.41c.27.91,1.16,3.4,1.16,3.4a9,9,0,0,1-4.21-7.81Zm-8-.09a5.19,5.19,0,0,1,4.79-1.49,4.18,4.18,0,0,1-4.79,1.49Zm5.67-.09s-1.12,3.93-3.7,4.27a6,6,0,0,1,3.7-4.27Zm-.58,3.16a23,23,0,0,0,1.52-2.52s.79,2.46-.53,4.14a29.11,29.11,0,0,0-1.9,2.49,12.87,12.87,0,0,1,.91-4.11Zm1.35,3.12a22.49,22.49,0,0,0,.37,4.93,13.36,13.36,0,0,0-2.23-1.48,4.68,4.68,0,0,1,1.86-3.45Zm1.41-2.09c1.31,3.16,5.46,6.15,5.46,6.15a10.06,10.06,0,0,0-1.68,5.78,11.35,11.35,0,0,1-3.78-11.93Zm6.48,6.69s-1.15,4.16-.64,6.38c0,0-2.36-3.76.64-6.38Zm1.08,7.54L45,34.83l.74-1.37-.81.55.86-1.6-.69.45.73-1.35-.83.42.63-1-.72.3,1-1.53-.79.57L45.74,29l-.76.39.71-1.52-.7.56A2.16,2.16,0,0,1,46.13,27s-.24.49,0,3.88-1.22,5-1.22,5Zm-1.68-24S44.89,10.18,49,9.77a26.37,26.37,0,0,0,4.27-.54S51.36,13,43.66,13.9a14.54,14.54,0,0,1,2.1-1.85,7.17,7.17,0,0,1-2.56-.13Zm6.49,5.94C45.94,18.7,42,15.51,42,15.51c5.5-1.12,7.74,2.35,7.74,2.35ZM38,14.76s1.29-1.94,4.69-1.57A4.56,4.56,0,0,1,38,14.76Zm4.35,3.44a5.13,5.13,0,0,1-4.63-2.3s3.32,0,4.63,2.3Zm7-9.39C45.64,9,45,9.52,45,9.52A48.5,48.5,0,0,0,46.75,5a41.57,41.57,0,0,1,8.72,1c-.48.88-1.93,2.61-6,2.79Zm-9.2,3c2.51-4.94,5.05-5.59,5.05-5.59-.41,4.59-5.05,5.59-5.05,5.59Zm-3,1.5s-.17-1.78,2.09-3.23a3.36,3.36,0,0,1-2.09,3.23Zm-1.76.84s-2.71-2.64-1.22-5.87c0,0,3,2.89,1.22,5.87ZM33.09,9a6.67,6.67,0,0,0-.33,2.8,17,17,0,0,0-5.24-1.46,9.31,9.31,0,0,1,2,2.31c-1.61-.62-4.61-.61-6.64-.52A40.92,40.92,0,0,1,33.11,7.09a2.77,2.77,0,0,1,0,1.93Zm-1.37,6a12.7,12.7,0,0,1-9.08-1.74s5.79-1.48,9.08,1.74ZM29.13,16.5A10.2,10.2,0,0,1,26.53,18a17,17,0,0,1,2.2,1.06c-3.29,1.82-8.94,2.3-8.94,2.3,5.11-5.91,9.34-4.89,9.34-4.89Zm2.54,2.59s-.32,2.88-6,5.23c0,0,2.92-5.26,6-5.23Zm-1.49,3.83-.27,1.59A9.88,9.88,0,0,1,33,22.72a8.09,8.09,0,0,0-.14,4.4c-5.33-.48-6.33-1.94-6.33-1.94.55-.23,3.68-2.26,3.68-2.26ZM38,31.66l-.78-.57,0,.33-.57-.89,0,.57L35.91,30l.06.86-1.14-1.52L35,30.48,33.87,29l.23,1-1.45-1.6.48,1.14-1.21-1.3.24.84-1.09-1.05.15.88-1.15-1,.11.52-1.3-.84s5.69-.39,9.08,4.07ZM41,35.44c2.9.29,2,2.79,2,2.79-2.75.73-8.65-1.35-8.65-1.35a13.91,13.91,0,0,0-1.44-2.67c3.87,1.2,5.37.95,8.1,1.23ZM5,44.52,7,44,5.9,45.7l1.95-1.57-1,1.72,1.75-1.57L7.4,46.19l2-1.68L7.91,47.2l2.43-2.55L9,47.65l2-2.73-.95,2.41,1.77-2.52-.7,2.26,1.45-2.34A14.45,14.45,0,0,0,14,55.41c3.09,5.81,2.24,7.7-.16,10.92,0,0,5.58,5.38,4.27,10A41.16,41.16,0,0,1,5,44.52ZM20.6,76.47l1.88,1.32-1.66-4.37c-1.52-5.46,2.25-6.53,2.25-6.53-1,4.86,1.5,10.26,2.14,11.42a6.47,6.47,0,0,1,.69,2.49l1.68,1.36a1.42,1.42,0,0,1,.12.84,40.39,40.39,0,0,1-6.19-3.83l-.91-2.7ZM30,81.61l2.43.23s-4.36-5-3.95-6.63c0,0,2.33-4.27,1.49-7,0,0,1.77,1.2,2.14,1.34l-.49-2.38A9.39,9.39,0,0,0,32.88,69c.44.35,0,2.18,3,5.26a10.05,10.05,0,0,0,1.07,7.2l-3.29,3.92c-1.18-.37-2.34-.8-3.49-1.29L30,81.61ZM52,86.2a7.08,7.08,0,0,1,.88-3.12L53.56,85l-.8,1.74,1.46-.92-.21.78c-.95.19-1.91.34-2.87.45L52,86.2Zm4.17-2.35a16,16,0,0,1-1.58-3.09,5.36,5.36,0,0,0-.69-6.82,4,4,0,0,0,1-2.11s4.4,4.49,4.85,5.67l.69,4a15.23,15.23,0,0,1,3.94,1.64,41.41,41.41,0,0,1-9.18,3.23,14.54,14.54,0,0,1,1-2.5Zm7.7-3.29,2.51.34-2.91-3.24s.73-3.93-.26-6.06l6,3.34,1,2.17a17.06,17.06,0,0,1,4-.72,40.62,40.62,0,0,1-8.28,6l-2-1.78Zm2-14.07s.51-2.22,1.75-2.83a3.91,3.91,0,0,0,1.65-1.3,8.49,8.49,0,0,0,1.08.12s-1.91,3,0,5.59c1.61,2.21,1.73,2.58,1.56,3.79,0,0-4-.44-6-5.37Zm2.27-5.26a5,5,0,0,0-3.05,3.82S63,61.62,63.85,59.93c1.66-3.37,8.37-3,8.37-3s.66.31-2.08,1.17-2,3.09-2,3.09Zm1.18-.39c-.65-.74-.44-1.59,1.12-2.06S72.92,58,72.92,58c-.48,2.85-2.92,3.61-3.56,2.88Zm3.21.28,1.53-2.95c.59.59,1.12,3.27.06,4.57s-2.19-.49-1.59-1.62Zm-1.51-5.25a11.42,11.42,0,0,0-7.59,2.73c.08-3.48,3.93-4.78,5.93-4.93A19.93,19.93,0,0,0,75,52.13s.78,3.81-3.89,3.74Zm8.78-1c-.64-.61,3.2,1.7,6.47.54A40.59,40.59,0,0,1,82.3,66c.46-2.76.8-8-2.46-11.1Zm-9.16-2.31a13.65,13.65,0,0,0-7.34,2.56c-.11-8.16,5.88-6.8,5.88-6.8l-3.14,2.62,2.33-1.29-1.5,2.12,2-1.81-.74,1.65,1.15-1.43-.47,1.45.93-1.08-.48,1.66,1-1.54L70.21,52l.61-1.29,0,1.05.7-2.07a4,4,0,0,0,3.21,0s.32,2.67-4,2.83ZM69.09,39a.94.94,0,1,1,1.29-.16.92.92,0,0,1-1.29.16ZM64.7,33.59a14.79,14.79,0,0,0-5,2.34c-3.2,2-9,2.51-9,2.51S49.09,36,49.09,36a23.53,23.53,0,0,1,.48-2.83,17.57,17.57,0,0,0,2.68-2.72,9.17,9.17,0,0,0-2.09.89c2.25-5.92,7.49-4.67,7.49-4.67a15.75,15.75,0,0,0,7.05,6.88Zm8.51,4.87-.38.07.32-1.19-.5.35.26-1.51-.55.68,0-1.22-.47.91-.24-1.43-.3.83-.25-1-.29.62-.51-.89-.16,1-.27-.8-.24.56-.47-1.08a4.28,4.28,0,0,1,3.38,1,3.44,3.44,0,0,1,.68,4.15l0-1.1ZM61.07,28.52c1.45.69.39.11,2.78,1.2a4.07,4.07,0,0,1,2.61,2.8,8.09,8.09,0,0,1-5.39-4Zm18.59,2a8.39,8.39,0,0,1-4,2.56c-1,.07-2,.06-2,.06a6.42,6.42,0,0,1,5.94-2.62ZM44.53,5a24.88,24.88,0,0,0-3.94,4.16,3.25,3.25,0,0,1,.14-1.26s-3.42,2-4.09,3.15c0,0-.08-1.77-2.25-4.37A42.07,42.07,0,0,1,44.53,5Zm-24,8.85a6.33,6.33,0,0,1,2.25.82A8.77,8.77,0,0,0,25.6,16a16,16,0,0,0-8.36,7.63,20.15,20.15,0,0,1,5-1.78c1.62-.26,3-.16,4.23-.49,0,0-2.46,3.54-3.88,6.1a16.61,16.61,0,0,1,2.77-1.63,18,18,0,0,1,3,5.41s-2.21-1.75-6.62-1.49a6.12,6.12,0,0,0-3.56-2.68,34.79,34.79,0,0,0,2.22,2.69s-3.31.06-4.82.17a4.27,4.27,0,0,0-2.13-1.8s.81,1.54,1,1.86a12.39,12.39,0,0,1-2.27.06s-.05-1.33-2.49-.56a1.33,1.33,0,0,1-1-.42A41.38,41.38,0,0,1,20.58,13.85ZM75.46,75.14a32.2,32.2,0,0,1-3.14-1.36S75.84,73,76,72.85l-2.85-.59a7.66,7.66,0,0,0-.79-4.88c-1.3-2-1.82-3.46-.88-4.48a2.61,2.61,0,0,0,3.34,1.31A6.33,6.33,0,0,0,78.24,69s-1.43-2.28-1.44-3.47a2.72,2.72,0,0,0-1.33-2.8s1.12-2.65-.84-6.27c0,0,6.41-.94,6.73,11.14a41,41,0,0,1-3.17,4.49,40.18,40.18,0,0,1-2.73,3.06ZM86.79,53a6.65,6.65,0,0,1-3.44-.8c-2.91-1.43-7.26-.35-7.26-.35a5.6,5.6,0,0,0-.22-3c.56.3,1.8.17,2.36-1.43s-1.06-2.92-1.34-5.16-.61-3.68-.61-3.68l2.34,1.53-2.83-3,2.57,1.56-2.44-2.26,2.57,1.11-2.87-2,3.13.77-3.89-1.85c1.92.15,4.53-1.36,5.84-2.7a10.07,10.07,0,0,1,3.1-2.26,41.4,41.4,0,0,1,3,23.55Z"/></g></g></svg>