<svg xmlns="http://www.w3.org/2000/svg" viewBox="0 0 92.32 92.32"><defs><style>.cls-1{fill:#e52827;}</style></defs><g id="Layer_2" data-name="Layer 2"><g id="Vector_Graphics" data-name="Vector Graphics"><path class="cls-1" d="M64.06,3.61A46.16,46.16,0,1,0,88.7,64.06,46.22,46.22,0,0,0,64.06,3.61ZM79.58,70.76a30.55,30.55,0,0,1-3.91.36s-.31-3.9,6.55-4.69h.08a39.94,39.94,0,0,1-2.72,4.33ZM32.05,44.07c4.29,3.16.32,5.18.32,5.18,1.68-3.3-.32-5.18-.32-5.18Zm-.7-2.4C35.22,38.89,36.06,43,36.06,43c-2.54-2.49-4.71-1.31-4.71-1.31ZM18.31,49,15.56,46.8l-3.17.53,1.06,12-.86-.23-2.35-3s-2.87.34-4.18-.26A42.27,42.27,0,0,1,5,47l.14-4A41.1,41.1,0,0,1,7.68,31.66L15.16,27,9.39,32.67,14.72,29l-3.85,4.13L16,29.65l-4.38,4.4,5.2-4.19-3.3,3.9,4.65-3.65-3.24,3.75,4.49-3.49-2.3,2.27,2.77-2-1.46,1.66s3.51-2.71,5.76-1.53c.94.49-.12,3-.12,3a2.71,2.71,0,0,0,.7,2.9S18.31,39.24,18.31,49Zm-7.39,10.4-1.73.36-1.35-1.9,2.1,0,1,1.56ZM63.15,10.28C65.8,11,75.36,20.9,75.36,20.9c-6-2.07-11.12-7.6-11.12-7.6a2.73,2.73,0,0,0,1.08.19,10.61,10.61,0,0,1-2.17-3.21Zm-.62,2.3a2.6,2.6,0,0,1-2.13,3.31,4.79,4.79,0,0,1-4.94-3.25l2,1.45-.6-1.18,1.91,1.7-.85-1.53,2.41,1.71-1.82-2.07L60.6,14.2l-1.51-1.94,2.65,1.56-2.29-2.34L61.69,13,59.48,10.6l2.2,1.24-2-2,1.7.9L59.76,8.87a5.16,5.16,0,0,1,2.77,3.71ZM55.48,24.23s-2.06-1.56-2.15-1.6,1.59,2,1.59,2l-1.81-1.39L55,25.39s-2.27-1.58-2.35-1.61,3,3.37,3,3.37l-4.85-3.63L53.08,27l-2.6-2.41,2.13,3.27s-2.47-2.38-2.56-2.42,2,2.76,2,2.76l-1.76-1.4,1.1,1.77-1.76-1.5L50.87,29,48,26.08l2.71,4.44-4.79-3L48.63,30,45.4,28.32,48,30.45,45.3,29.23l2.4,1.91-2.49-.88L48,32.35l-2.84-1.17,3.13,2.12L44.83,32l3.43,2.38L46,33.56C47.6,34.7,50.3,36.63,48.87,39s-5.78,1.53-9.61-1.6a12.35,12.35,0,0,0-7.33-3.07c8.67-6.4,7.58-14.88,7.58-14.88,4.06,4.46,8.08-1.89,8.08-1.89,3.11,4.36,6.23,2.09,6.23,2.09l2.13,4L53.6,21.75l1.88,2.48Zm-8.1,25.18-2.17,1.27,2.59-.48-1.87,1,2.53-.44L46.3,51.9l3-.71-1.86,1.2,2.67-.61-1.58.87,2.12-.2c-.64,1-6.65,1.16-7.46-3.23-1.1-5.85,4.59-6.93,4.59-6.93L45.5,43.64l1.32.11-2.34.79,1.81,0-1.94.73,1.76,0-2.32.9,2.53,0-2.24.8,2.33.13s-2.08.74-2.57.86c.48,0,2.44-.13,2.44-.13l-2.38.88,2.84,0-2.43,1.16,3.07-.41Zm16-12.29-.94,1.42,1.19-1L63,38.92,63.9,38l-.42,1.33.89-.89-.53,1,1.08-.78-.39.69.92-.09s-2.52,1.64-4-1.57a4.73,4.73,0,0,1,1.67-5.94L62,33.62l.75-.33-1.48,1.6,1.55-.78L61.44,35.8,62.68,35l-1.23,1.64,1.2-.76-.91,1.36,1-.72L62,38l1.34-.9Zm1.59-3.41a.37.37,0,0,1,.49-.2.38.38,0,0,1,.2.5.37.37,0,0,1-.49.2.38.38,0,0,1-.2-.5Zm15.23,4c.38.71-.5.88-.89.72s-.52-.59-1.28-1.27c0,0,1.79-.16,2.17.55ZM78.9,35s1.79-.15,2.17.56-.51.88-.89.72-.53-.59-1.28-1.28Zm0,5.23,2.6-.56.64.58-3.56.62,2.56.06L78.1,42.34l3.45-.83L78.3,44l3.45-1.65-2.21,2.93,3-2.6a16.62,16.62,0,0,0-.24,5.72s-1.22,4.21-.47,7.23L80,56.74l-1.49-4.33.56,3.29-1.54-2.26,1,2.43-2-2.28L78,56.4l-3-1.94,2.31,2.28-3-1.63,2.3,2L73.49,56l2.74,1.68-2.91-.86,3,1.41-4.24.64,4.18.33-3.19,1.53,3.75-1L73.9,62.08l3.33-1.7-1.85,2.16,2.67-2.09a6.72,6.72,0,0,0,.12,4,9,9,0,0,0-3.84,2.93L73.55,64l.11,3.23L72.4,64.29l.66,3.06-1.52-2.46.94,2.86-2.34-2.94,1.53,3.25L69,65.76l2.13,2.72L68,67.1l2.77,2-3.39-.45,3.3,1.23-3.38.18,3.31.55-2.83.68h3L68.4,72.4l3.42-.61a9.24,9.24,0,0,0-3.59,3,45.27,45.27,0,0,1-5-15.17,10.28,10.28,0,0,0,.81-9.7s1.23-3.18,1.63-4.79,1.35-1.71,2.37-3.16a4.12,4.12,0,0,1,2.69-1.55A5,5,0,0,0,76,39.14a12.12,12.12,0,0,1,3,1.07Zm8.31,3a.57.57,0,0,0,0,.14,11,11,0,0,0-2.8,2.14,6,6,0,0,1,2.53-5c.13.9.24,1.81.31,2.73ZM79,63.27c-.5-1,.07-3.82,1.69-4.94s5.38-4,5.38-4c-.35.91-1.52,1.85-4,3.62S79,63.27,79,63.27Zm3.79-9.06a9.13,9.13,0,0,1,3.72-9s-3.43,5-3.72,9Zm4.61-7.85c-.18,6.68-3.39,8-3.39,8-.77-4.75,3.39-8,3.39-8ZM82.12,59.19a24.75,24.75,0,0,1,3.66-2.25c-1.08,5.85-5.56,6.79-5.56,6.79-.32-.61.16-3.22,1.9-4.54Zm1-13.85a7.62,7.62,0,0,1,3.4-6.68c-1.58,1.74-3.4,6.68-3.4,6.68Zm-10,27.36c2-.33,3.45-.19,4.14-.37a7.26,7.26,0,0,1-2.82.79,14.3,14.3,0,0,0-3.93.77,4.12,4.12,0,0,1,2.61-1.19Zm-44.3,11s-1.68-3.36,2-4,4.41,3.78,5.89,6.1c0,0-1.12-.47-2.06-3.11s-5.91-3.23-5.8,1.06Zm2-1.66c.78-1,2.53,0,2.84.93S34.92,86,34.92,86c-4.58-.76-4.92-3-4.14-4Zm21.4,2.54A8.21,8.21,0,0,0,46,83.86c2.25-3.11,10.8,2.39,10.8,2.39s-1.16,0-4.61-1.68Zm2.29,2.34c-1.08.63-9.06,1-7.42-1.78s7.42,1.78,7.42,1.78Zm-8.15.29a6.23,6.23,0,0,1-2.45-2.27c-1.29-1.83-4.34-1.89-6.09-1.72,0,0,4.21-3.14,8.54,4Zm-2,.07s-6,.06-6.41-2.48c0,0,3.07-3.22,6.41,2.48Zm16.9-5.17-2-1.53a19.11,19.11,0,0,1,2.61-2.77,23.12,23.12,0,0,1-1.49-8l3.78,5.08A4.25,4.25,0,0,1,63.62,80l-2.38,2.1Zm-1.43.4-1.17.74L57.5,82.16s1.6-.46,2.31.34ZM49.52,55.76,47,55.85l2,.47-2.67,0,1.91.63H45.71l2.09.68-2.42.18,2.32.57-2.93.23,2.51.52-2.6.36,2.38.26-2.71.7,3,.22-2.77.61,2.65.27-1.79.68h2.18l-2.14.81,2.53-.2-1.8.88,2.14-.29-1.84,1L49,64l-1.93,1,2.64-.39s-1.11.68-1.39.78c.4,0,2.59-.14,2.59-.14-2.79,1.8-7.54-1.41-7-4.8,1-6.9,6.39-5.34,6.39-5.34l-1,.24.32.44Zm.81,6.84c1.4-2.8,3.1-2.83,3.1-2.83-.24.46-1.86,2.37-1.86,2.37.24,0,2.49.22,2.49.22a3,3,0,0,1-3.73.24Zm4.27-4.41A3.27,3.27,0,0,1,54,54.35c2.87.94,3.08,2.71,3.08,2.71a26.68,26.68,0,0,1-2.5-1.5c.07.23.06,2.63.06,2.63Zm-1.27-8c-5.24-4.7-.83-10.71-.83-10.71l-.6,2.08.87-.69-1.65,2.38,1.69-1.27L51.4,44l1.41-1.19-1.26,1.87L53,43.47,51.5,46l1.8-1.78-1.39,2.26,1.71-1.57-1.38,2.16,1.7-1.61L52.78,48l1.57-1.8-1.13,2.22,1.53-1.71-1,2.51,1.52-2-1,2.64L56,47.6,55,50.12l1.72-2.56-1.09,3.1,1.84-2.79-.74,2.67,1.45-2.64L57.45,51l1.39-2.83-.49,2.46L59.74,48l-.84,2.59,1.5-2.45-.66,2.7,1.39-2.74-.38,2,.93-1.8-.16,1.1,1.09-1.63c.62,1-4.43,6.69-9.28,2.34Zm5.25-15.08-1.65,1.59,1.41-.53-1.54,1.4,1.52-.62-1.76,1.86,1.81-1.09-1.59,1.86,1.46-1-1.5,2,1.69-1.34-1.11,2,1.5-1.32-1.15,2.12,1.58-1.42-1,2.19,1.66-1.62L59,43.06l1.39-1.53-.79,1.89L61,41.76l-.62,1.89L61.59,42,61,44l1.19-1.79L61.86,44,63,42.25l-.27,1.46.89-1.57-.3,1.38.93-1.25-.14.73,1-1-.36,1s-3.7,3.32-7,0c-4.34-4.3.45-9,.45-9l-.81,1.78,1.21-.68Zm11.26-1.54s-.7,0-1.54-1.13a2.24,2.24,0,0,1,1.91-.25s-.83.77-.37,1.38Zm2.08-.83c.76.22,1.33,1.46,1.33,1.46a5.64,5.64,0,0,1-1.81,0,1.57,1.57,0,0,0,.48-1.41ZM72,35.37a3.61,3.61,0,0,1-3.79-1.43A10.5,10.5,0,0,0,72,35.37Zm-3,3.62s-2.84.78-3.12-2.7c0,0,1.75,2.56,3.12,2.7Zm-6.6,16.84c-.51,3.17-2.06,3.76-2.06,3.76.09-.53,1-2.9,1-2.9-.2.12-2.33.61-2.33.61,1.53-2.24,3.34-1.47,3.34-1.47Zm-4.85,4a.9.9,0,1,1-1.15.49.88.88,0,0,1,1.15-.49Zm-.73,6c0-.23,1-2.3,1-2.3a3,3,0,0,1-.91,3.6c-2.17-2.06-1.68-3.69-1.68-3.69a27.4,27.4,0,0,1,1.63,2.39Zm2-2.35c.49,0,2.86.3,2.86.3-.16-.18-1.12-2.23-1.12-2.23a3,3,0,0,1,2.14,3c-3,.33-3.88-1.1-3.88-1.1ZM73,31.08l-.06.48-.58-1,0,.7-.78-1.18v.77L70.88,30l0,.78L70,30l.18.82-.94-.8.16.66-.69-.52.18.69-.4-.35.22.55-.91-.75c.31-.1.6-.19.88-.25,4.5-1.07,5.4,2.27,5.4,2.27l-1-1.22Zm-9.36-5A15.56,15.56,0,0,1,64,28.28a4.94,4.94,0,0,1-.86-2.66,8.77,8.77,0,0,1,3.38,1,20.92,20.92,0,0,1-2.85-.59Zm-1.86,4c-3.09.71-9.84,6.76-9.84,6.76C57.29,28.87,61.81,30,61.81,30ZM41.13,43.43,38.58,44l1.66.33L38,44.9l1.93.27-2.43.69,1.91.15-2.24.56,1.94.31-2.46.84,2.45-.06-2.36,1,2.39-.26-2.15.84,2.4-.14-2.24,1,2.25-.24-2,1,2.35-.24-1.5.73L40.44,51l-2,1.09L41,51.45,39.23,52.7l2.49-.76-1.36,1.14,2-.48-.79.66L43,53.15c-.91,1.29-6.65.19-6.88-3.88a6,6,0,0,1,5.3-6.73L40,43.33l1.15.1Zm.51,12-1.89.54,1.27.54-2.55.08,2,.61-2.43.2,2,.49-2.3.29,2.23.61-2.24.32,2.32.39-2.24.39,2.47.36-1.9.3,2.14.42-2,.43,2.59.31-1.69.38,2.3.6s-4.6.83-4.7-3.16c-.12-4.67,4.64-4.1,4.64-4.1ZM30.47,46.69C29.29,51.91,25.88,49,25.88,49c3.67.25,4.59-2.34,4.59-2.34ZM25.85,30,28,29.51,25.6,29l2.07-.32-2.47-.43,1.94-.65L25,27.52l1.85-.69H24l1.76-.8L23,26.17l1.32-.71-2.51.24,1-.51-2.07-.26s6.48-.76,7.76,3.84c.57,2.06-2.13,2.08-2.13,2.08l.94-.63L25.85,30ZM43.18,9s-2,3.56-4.06,1.19c-1.58-1.82,1.32-4.55,2.5-4.47L40.47,7.22l1-.47L40,8.43l1.36-.69L39.84,9.36l1.7-.93L40.3,9.94l2-1.22-.84,1.53L43.18,9Zm3.15.67.82,1.64,0-1.3.74,1.69-.08-1.64.77,1.4-.22-1.91,1,1.07L49,8.9s2.21,2.55-.69,3.65c-2.25.86-3.37-2.23-2.8-3.18l.77,1.32,0-1Zm5-1.55,2,.87L52.25,8l2,1L52.84,7.59l1.82.7L52.89,6.82l1.71.31-1.7-1.3s4,.79,2.42,3.49c-1.22,2.09-4.71.2-5-1L52.05,9l-.77-.84Zm2.21,5.73.75,1.64-.07-2.29A4.74,4.74,0,0,1,54,17.63,2.69,2.69,0,0,1,50.31,19a4,4,0,0,1-1.9-4l.77.93.27-1.24.4,2.37.3-1.65.77,2.66-.1-2.61.69,2.31.06-2.33,1,2.68-.29-3.08.77,2.39-.21-3.05.91,2.18-.3-2.7ZM43.21,15.84,42.56,19l1.47-3-.7,2.69,1.53-3-.48,2.58,1.25-2.68-.3,2,1.21-2.16A5.43,5.43,0,0,1,44,19.32a2.47,2.47,0,0,1-3.71-1c-.08-.2-1.08-2.88.66-4.83l.1,1.33.91-1-1,2.43,1.15-1.34-.84,2.93,1.36-2.46L41.87,18l1.34-2.11ZM33.29,31.41a43.75,43.75,0,0,0,2-7.6,9.12,9.12,0,0,1,3.31-5.73c.4,9.8-5.26,13.33-5.26,13.33ZM35.75,8.74l-2.51,1.61L35.6,9.6l-3,2.1,2.86-1-2.65,2.27,3-1.2-2.78,2,3.4-1.45L34,14l3.57-1.21-2.27,1.79,2.8-1.46-1.57,1.5,2.45-1A6.06,6.06,0,0,1,34,15a2.67,2.67,0,0,1-2.28-3.51c.08-.23,1.23-3.16,4.07-3.54L34.39,9.16l1.36-.42Zm2,7.71s-3.65,5.82-10.08,6.28c0,0,2.42-3.09,5.49-3.84a9.62,9.62,0,0,0,4.59-2.44ZM27.36,24.34a36.61,36.61,0,0,0,7.56-2.93c.09.58-1.05,7.4-3.17,10.92s-4.22,2.75-4.49,2.11c-.43-1,1-1.89,1.36-2.2a5.52,5.52,0,0,0,1.64-4.41c-.26-2.31-2.9-3.49-2.9-3.49ZM26.75,43.1c-3.72-2.14-.7-4.41-.7-4.41-1.07,3.06.7,4.41.7,4.41Zm.39,3.28c-4.56,1.14-4-3.08-4-3.08,1.56,3.35,4,3.08,4,3.08Zm1.79-1.33a1,1,0,0,1-.57-1.29,1,1,0,1,1,.57,1.29Zm-.11-4.19c.44-4.76,4.06-2.72,4.06-2.72-3.53.3-4.06,2.72-4.06,2.72ZM48.66,5.13C47,7.57,44.55,5,44.55,5l.07,0q1.53-.06,3.06,0c.57.06,1,.13,1,.13ZM34,6.83c.48-.1,1-.2,1.48-.28a30.75,30.75,0,0,1-5.92,3.83,47,47,0,0,0-8.79,4.91,18.41,18.41,0,0,1,4.72-4.71A41.64,41.64,0,0,1,34,6.83ZM30.74,11S28.93,16.64,36,16.52c0,0-4.16,1.71-6.18,2.86s-4,4.72-4,4.72a20.81,20.81,0,0,0-9.37-.59L8.72,29.16A41.23,41.23,0,0,1,20.47,14c-2.25,3.07-5.69,7.82-6,8.55,0,0,10-9.68,16.27-11.57ZM19.8,54.17a3,3,0,0,1-1.41-3s1,.7,1.41,3Zm.5-5.85.31,1.7.48-.82L21,51.09,21.57,50l-.25,2,.78-1.38L21.72,53l.86-1.48-.35,1.8L23,52l-.26,1.92.88-1.69-.33,1.92,1.05-1.85-.29,2.07.81-1.85v2l.76-1.8,0,1.65.66-1.64,0,1.5.74-1.85.05,1.43.59-1.57,0,1.09.81-1.68c.29,1.33-1.87,4-4.41,3.21-4.89-1.48-3.78-6.5-3.78-6.5Zm.51,9.94.64-1.54-.11,2.45L22,57.36v2l.6-1.76.06,2.22.64-2,.1,1.65L24,57.76l.07,1.7.62-1.82.18,1.55.56-1.75.24,1,.44-1.53c.41,1-.53,3.54-3.54,3.4-3.45-.16-2-4.14-2-4.14l.27,2.13Zm13-8.61-.57,1.78,1-.59-1.35,1.59,1.54-.83L33,53.21l1.68-.93-1.51,1.66,1.89-1-1.52,1.86,1.84-1.14L34.21,55.1,35.91,54l-1.15,1.53,2.07-1.28L36,55.49l1.52-.69c-.18.34-3.4,2.5-4.87-.42a3.7,3.7,0,0,1,1.2-4.73Zm4.12,14.44s3.57,1.33,4.61.8c0,0,2.54,4,3.85,5,0,0,6.54-3.49,8.35-2.63s3,4,2.73,8.47a5.79,5.79,0,0,0-5.66,2s5.12,1.53,5.82,2.56a17.1,17.1,0,0,0-2.46,1.24s3.12,3.29,3.08,3.68c0,0-3.29-.16-7.86-3.42l2.38-2.24-2.71,1.6,2-2.38-2.42,2,1.6-3.07-2,2.3L50,77.25,48.77,79.7,49,76.53l-.73,2.62-.34-2.66-.45,2.6L46,76.2l.58,2.94-1.5-2.69L46,79.28l-2-1.27,1.22,1.75-2.42-.61,2.51,1.38-3.2.06,3.17.66-2.12.29,2.66.58L44.64,83s-4.2-2.88-8-.62L35.37,80l2.88-.69-1.81-.13,2-.64-2.66.29L37.76,77l-2.14,1.1,1.55-2.4-1.85,1.72.83-3.07-1.31,2.46.34-3.51-1,3.16-.5-2.82-.2,2.75L32.47,74l.41,2.6-1.1-1.7.83,2.36-2-1.36,1.71,1.78-2.46-1.09L32,78.2s-1.88-.61-2.55-.31c0,0-1-3.42-6.81-2.83A26.11,26.11,0,0,0,21,72.43l-.24.07s-.36-.66.1-.23a.79.79,0,0,1,.14.16l3.38-1,3.8-6.25a11.86,11.86,0,0,0,9.71-1.09ZM56.59,76.84l-1.18,1.1-1.24-.53a4.55,4.55,0,0,1,2.42-.57ZM27.94,78.63a5.21,5.21,0,0,0-5-1.92s4.65-1.36,5,1.92ZM20.62,74c2,2,1.09,5.12,1.09,5.12s-.37-3.58-1.68-4.78-4.12-1-4.12-1a4.36,4.36,0,0,1,4.71.67Zm-1,1A3.42,3.42,0,0,1,20,78.48a45,45,0,0,1-3.56-3.34c.43-.4,2-1.71,3.23-.17Zm3.22,3.7s2.15-2.33,4.34.79a7.26,7.26,0,0,0-.3,3.66,39,39,0,0,1-3.74-2.25l-.3-2.2Zm42.87,4c4.17-2.17,3.55-4.36,3.41-5.24a1.47,1.47,0,0,1,.21-1.24,5,5,0,0,1,4.17-2.08,17.71,17.71,0,0,0,3.77-.42A41.09,41.09,0,0,1,65.4,83.14l.31-.47ZM80.17,65.73a8.22,8.22,0,0,0-5.58,4.39c.14-2.85,2.56-4.33,4.78-4.93A26.29,26.29,0,0,0,84,63c-.08.19-.15.37-.24.56a8.12,8.12,0,0,1-3.55,2.17ZM86.11,36.3l-1-1.24.43,1.79-1.29-1.92.51,2.59-1.52-2.65L84,37.5,82.6,35.36l.84,2.87-.83-.85.65,1.92-1.45-.75a8.48,8.48,0,0,0,.36-3.46c.11-.59-.76-.91-.76-.91a50.26,50.26,0,0,1-4.29-2.87c-1.05-2.69-4.43-4.17-4.43-4.17a4.36,4.36,0,0,0-.08-1.22l-2.73-4.54.22,5.44-2.84-5.59.63,3.83-7.23-6.17,2.78,4.43L60,20.2a44.83,44.83,0,0,1,2,4.08C60.78,23.61,58.22,20,58.22,20l.54,2.19-1.47-2.67L58.13,22l-1.81-3.28,1,3.42-1-1.89.8,2.44-2.43-4a7.81,7.81,0,0,0,1.41-3.15c6.34,3.93,7.78-1.13,7.78-1.13C70,20.83,78.22,23.22,80.7,23.83A42.08,42.08,0,0,1,86.11,36.3ZM79.57,22.17C74,19.89,68.48,12.4,64.38,9.94,62.77,9,61.71,8.26,61,7.75c.38.15.77.3,1.15.47a41.06,41.06,0,0,1,17.41,14ZM7.46,60.63a6.23,6.23,0,0,0,2.85,1.44L12.5,65l3.32-2.07L17,56.69s2.11,4.82,5.06,5.25,6-4.4,6-4.4,2.59-3.15,4.46-.44S28.43,62,28.43,62L26.61,60.3l-4.1,8.31L21.28,65.9l-5.6.59s3.25,3.62,3.17,4.78a10.29,10.29,0,0,0-4.68,1.32,41.61,41.61,0,0,1-6.71-12Zm13.41,8.66-1.39.2-.85-1.7,2-.24.25,1.74Z"/></g></g></svg>