<svg xmlns="http://www.w3.org/2000/svg" viewBox="0 0 92.33 92.33"><defs><style>.cls-1{fill:#e52827;}</style></defs><g id="Layer_2" data-name="Layer 2"><g id="Vector_Graphics" data-name="Vector Graphics"><path class="cls-1" d="M33.19,1.87A46.16,46.16,0,1,0,90.46,33.19,46.2,46.2,0,0,0,33.19,1.87Zm51.1,38.07c-.09.48-1.21,1.33-1.21,1.33s.51-2.83-2.14-2.9-2.72,3.05-2.72,3.05a8.93,8.93,0,0,1-.71-1.18l.59.16-.83-1.19,1,.55-.89-1.4,1.27.86-1-1.71L79,38.58l-.74-1.49,1.16,1.23-.55-1.67,1.2,1.59-.49-2.1,1.16,1.91-.22-1.95L81.25,38l0-1.9.51,2,.39-1.79.22,2.18.38-1.37,0,1.72.59-1.23-.12,1.42.48-.72-.38,1.38.69-.74-.44,1.36.66-.39ZM81,44.46a4.66,4.66,0,0,1-1.27,1.43,7,7,0,0,0,0-1.92c-.16-.78.14-1.65.85-1.46s.91,1.05.42,2ZM72.66,57.61c-2.78,2.75-4.81,3.18-4.81,3.18s1.56-4.33-1.23-10.6a19.93,19.93,0,0,1-1.49-3.47,11.21,11.21,0,0,1,3.41-1.13c.41-.09,4.77,3.11,4.77,3.11L71.72,46l2.75,2.21-2-2.82,2.92,2.68-1.7-3A4.52,4.52,0,0,1,76,48.16c-5.61,1.41-6.68,4-6.68,4-2.88,4.9,3.3,5.49,3.3,5.49ZM32.1,84.85A12.8,12.8,0,0,0,37,81.12c2.84-3.74,3.58-3.56,3.58-3.56a9.79,9.79,0,0,0-2.27,3.6s4.53-.16,6.81-2.68,3.16-2.23,3.16-2.23c-2.73,5.3,3.45,6,3.45,6A3,3,0,0,0,50.3,84.2a7.89,7.89,0,0,1-2.63,3.13A41,41,0,0,1,32.1,84.85ZM28.69,70.32c-4.5-4.6-2.89-9.4-2.89-9.4.79.16,2.32,3.34,2.46,4.85s.43,4.55.43,4.55Zm1.07,2.62a26.91,26.91,0,0,0-5.25,1c-.41.08-1.68.15-1.9-.74a1.33,1.33,0,0,1,.72-1.37,6.44,6.44,0,0,1,6.43,1.14ZM25.55,68.6a11.71,11.71,0,0,0-3.74-.81s1.86-4.43-3.17-6.85a7.54,7.54,0,0,1-.56-6,12.25,12.25,0,0,0,6-1.2s-.29,4.92.86,6.06c0,0-1.8,2.68.61,8.85Zm-9,.81-.84-.53,2.07.13-1.31-.48,2.15,0-2-.63,2.71-.19-2.09-.51L19.54,67l-2-.4L19.27,66,17.47,66l1.91-.73-2.13,0,1.43-.59-1.9.16,1.44-1-2,.41,1.14-.85L15,63.92s3.79-2.84,5,2c.72,4.67-4.68,4.53-5,3.53l1.58,0Zm-2.53-2.15a.94.94,0,0,1-1.11-.69.88.88,0,1,1,1.11.69ZM12.17,54.62S8.94,50.44,6,52.84a2.71,2.71,0,0,0-.36.59,40.8,40.8,0,0,1,.76-17.9l0,0a8.63,8.63,0,0,0,2.12,2.49c1.19.82,3.26,1.55,4,2.88,0,0-5.5-.78-5.55,4.22,0,0,.5,3.49,3.74,3.78,1.91.18,2.51-.43,2.51-.43a14.62,14.62,0,0,0-1.1,6.11Zm.95,2.67c-1.85-1.31-7.26.14-6.47-3.08,1-4,6.47,3.08,6.47,3.08Zm3-39.32a2.63,2.63,0,0,1,.52-.14c2.35-.39,2.1,2.58,2.1,2.58l-.62-.94-.09.89-.58-2-.11,2-.79-1.8.12,1.87-.83-1.19.26,1.48-.81-1.14.41,1.69L15,20.35l.18,1.2a3.14,3.14,0,0,1-.29-2.16c.41-.48.84-1,1.27-1.42ZM34.59,6.64a41.23,41.23,0,0,1,8.1-1.52A9.33,9.33,0,0,0,39,10.77s-4.21-3.24-6.62,1c-1.71,3,1.18,6.39,1.18,6.39a14.7,14.7,0,0,0-5.1,2.36,15,15,0,0,0,.28-8.81A24,24,0,0,1,26.6,16c-1.2,1.78-1.81,3.56-2.87,10a7.24,7.24,0,0,0-4.05-4.39s1-3.72-2.42-4.73A40.88,40.88,0,0,1,34.59,6.64Zm32.63,4.15c-10-1.59-14.84,5.1-14.84,5.1a2.34,2.34,0,0,0-.78-2c-2-1.59-4.41.6-5.25,1.43s-1.21.8-1.21.8c1.37-4.35-2.59-5.31-2.59-5.31C44.27,9.19,45.09,6.23,45.36,5a41.25,41.25,0,0,1,21.86,5.8Zm8.07,20.32c-1.15-1-3.53,1-4.32,2.12s-1.32.6-1.32.6c.77-.2.53-2,.36-2.94a3,3,0,0,1,.12-1.46A2.39,2.39,0,0,1,72,27.9a5.55,5.55,0,0,0,2.71-1.08,7.37,7.37,0,0,0,3.09,3.74,5.58,5.58,0,0,1,2.72,2.65,5.2,5.2,0,0,0-4.73.38c-1.63.93-1.91.56-1.91.56.54-.24,2.59-2,1.44-3Zm-3.81,3.46s1.93-3.45,3-2.61-2.61,2.59-3,2.61ZM69.8,37s1.61,1.18,2.4,1.66,2.32,2.4.84,3.22-2.52-1.08-2.62-1.44-.41-3-.62-3.44Zm-1.57-3.92a.72.72,0,1,1-.41-1.39.72.72,0,0,1,.9.49.73.73,0,0,1-.49.9Zm-1.71-4.24s-1.43-.56-.83-1.69,2-.46,2-.46a1.55,1.55,0,0,0-1.2,2.15Zm3.14,12.77a12.74,12.74,0,0,0-3.47.56,33.5,33.5,0,0,1-3.89,1.65,7.26,7.26,0,0,1,2.6-2.31A15.09,15.09,0,0,0,69,38.86a8.1,8.1,0,0,0,.69,2.78ZM65.24,40.5a7.94,7.94,0,0,0-3.34,2.08,4.78,4.78,0,0,1,3.53-4.31,5.72,5.72,0,0,0,2.92-2.1C68.88,38,67,40.12,65.24,40.5ZM50.76,25.31c.93,2.58,2.12,5.39,2.19,6.81s-.87,4.19-4.61,4.27a26.56,26.56,0,0,1-5.93-1s3.23-5.85-4.61-8.73a4.53,4.53,0,0,0,1.12-1.13s2.72,1.49,4.49-.22S44.72,22,44.72,22s1.31,3.47,2.67,4.77a22.42,22.42,0,0,1,2.76,2.7s-.41-3-.48-4.57a12.4,12.4,0,0,0-2.05-5.24,8.49,8.49,0,0,0,3.06-.33,12,12,0,0,0,.08,6ZM54.68,39.5a3.39,3.39,0,0,1-1.53.77,12.92,12.92,0,0,1-.45-1.83l.85,1.26,1.13-.2Zm-1.82,2.93a8.36,8.36,0,0,1-1.86.22,8.28,8.28,0,0,1-.36-1.73s.61,1.12.66,1.28a15.08,15.08,0,0,1,1.56.23Zm-2.21,2a10.86,10.86,0,0,1-1.77.21l-.26-1.91A8,8,0,0,1,49,44.15a10.36,10.36,0,0,1,1.65.27Zm6.43,17.23s-.84-2.43.78-3.25,2.66-.22,2.92.09c0,0-3.45,0-3.7,3.16ZM61,61.2a.81.81,0,1,1-1.55.46A.81.81,0,1,1,61,61.2Zm-2.71,4.17A13.22,13.22,0,0,0,61,66.78a7.19,7.19,0,0,1,3.8,4.12s-4.36-2.36-8.7-1.09a10.26,10.26,0,0,1,2.18,1.26,4.72,4.72,0,0,0,2.39.91,11.56,11.56,0,0,0-4.09,1.84s.17-3.42-3-3.93-3.94,1.89-3.94,1.89,0-4.8-3.41-7.34c0,0-.19,3.17-.32,4.5A11.11,11.11,0,0,0,47,74.67a9.33,9.33,0,0,0-2.52,0l-1.08-3.52a15,15,0,0,1,2.16,2.34s-.23-5.63-4.27-7.47c0,0,6.17-1.51,7-6.15a2,2,0,0,0-1-2.37c-1.53-.68-3.9-.07-4.47,0s-2.41.06-2.52-1.07.91-1.31,1.59-1.5,4.28-1.3,5.32-2.77c0,0,1,.47,1.64,4.1a10.29,10.29,0,0,0,.75-3.16,16.64,16.64,0,0,1,.66,9.18c-1,5.27,3.4,7.3,5.63,6.21a4.27,4.27,0,0,0,2.45-3.13Zm-6.48,8.72-1-.7L51.21,75a4.53,4.53,0,0,1-.77-1.81c-.13-.9.18-1.9,1.82-2.43,2.68-.87,3.3,3.14,3.3,3.14l-.9-1.29,0,.57-.53-1.83L54,73l-1.23-2.1.43,1.9-1.3-1.77.63,2-1.1-1.1.65,1.49-1.26-1.05.93,1.71Zm-1.29,1.76-1.44,1.74,1.26-.48-1.54,1.82,1.89-1.14-1.2,1.71,1.7-1.27-1,1.81,1.54-1.55L51,80.38l1.35-1.67-.47,1.41L53,78.88c.15,1.93-2.91,3.11-4.16.68s1.68-3.71,1.68-3.71Zm-3.4-9.24c1.94,2.06,2,7.8,2,7.8-3.85-1.2-2-7.8-2-7.8Zm6.4,8.88a.78.78,0,0,1,.94.55.75.75,0,1,1-.94-.55ZM56,80.3l-.84-1,2,.77L56,78.86l1.73.59-1.38-1.08,1.75.28-2-1,1.84.08L56.4,77.1l1.41,0-1.7-.86,1.14,0-1.38-.72a2.07,2.07,0,0,1,1.93,1.06c.71,1.06,1,2.72-.18,3.57a2.65,2.65,0,0,1-1.89.64c-1.16-.12-1.56-1.44-1.56-1.44L56,80.3ZM45.92,75.76a5.53,5.53,0,0,1-5.61,3.55s2.29-3.82,5.61-3.55ZM24.76,47.18s.18-4.41-3.8-4.72c0,0,1.41-3-1.14-4.76-2.13-1.48-5-.09-5.79,1.13,0,0,1.86-6,7.08-1.54C23.16,39,26,44.94,26,44.94s.2-6.61-2.54-8.67c0,0,4.57.67,6.59-1.85a11.78,11.78,0,0,1-4.57-.11,15,15,0,0,0-4.58-.41s3.94-4.26,8.86-2.1a3.14,3.14,0,0,0,2.7,3.27A7.28,7.28,0,0,0,31.33,45.3s-3.23,2.94-3.49,9.15a39.72,39.72,0,0,1-.65-4.3c0-1-.2-3.19-2.43-3Zm-9.09-5.72-.38-1.62L15,41.92a3,3,0,0,1,1.38-3.56c2.2-1.22,3.72.92,3.87,2.1a3.53,3.53,0,0,1-.81,2.67l.1-1.62-.58.9.69-2.06-1.19,1.41L19,39.2l-1,2L18,38.42l-.93,2.84-.36-2.7-.4,2.77-.42-1.82-.24,2Zm1,3a1.05,1.05,0,1,1-1.31-.74,1.06,1.06,0,0,1,1.31.74Zm4.5,4-1.73-.75L22,48,20,47.23l2.53-.09-2.12-.46,2-.59-1.85,0,2-.59-2.2-.14,2-.75-2.31.24,1.5-.78-2.17.25s3.8-2.23,4.06,2.22c.22,3.86-4.91,2.13-5.31,1.77l2.94.18ZM26.38,25a11.33,11.33,0,0,1,6.88-5.43S31.31,24,34.36,27A5.63,5.63,0,0,0,30,30.66a20.37,20.37,0,0,0-5.43-1.26S25.74,26,31.43,25a12,12,0,0,0-5.05,0Zm-.8-1.54c0-6.07,2.67-8.3,2.67-8.3.57,6.1-2.67,8.3-2.67,8.3Zm9.25-2.27L34.21,24l1.23-2.22-.58,2.53L36,22.37l-.57,2.5,1.22-2.35L36.5,24.8l.78-2.22,0,1.91.5-2S39,26.3,35.75,26.08s-2.12-5.19-1.53-5.84L34.35,22l.48-.86Zm6.66.54,1.62,1.4L41.61,21l1.89,1.22-1.58-2,1.17.67-.87-1.34s2.69,1.95.94,4.52-4.13.67-4.06-1.3l.74.91-.15-1,1.42,1.89-.74-2.09,1.5,1.74-.83-2,1.4,1.55-.95-2.07ZM42.63,12c2.32.47,2.16,3.25,1.76,3.87a3.55,3.55,0,0,1-2.18,1.78l.78-1-.67.22,1.09-1.27-.93.34,1.22-1.5-1.45.86,1.41-2-1.95,1.65.95-2.07-1.53,1.59,1-2-1.69,1.92L41,13l-1.35,1.52s.62-3,2.94-2.52Zm-2.42-.72A6.35,6.35,0,0,1,43.7,5.71a5.58,5.58,0,0,1-3.49,5.58Zm-3.05,7.27A.94.94,0,0,1,39,18a.94.94,0,0,1-1.81.53Zm1.38-4.73-1.37-2.1.43,2.08-1.41-2.4.6,2.5-1.7-2.26L36,14.18l-1.84-2,1.23,2.38-1.93-1.66,1.66,2.65L33.33,14l1.49,2.22-1.31-1.08.93,1.54S31,14.9,34,11.08a2.65,2.65,0,0,1,2.35-.82,2.92,2.92,0,0,1,1.93,1.58,4,4,0,0,1,.26,2ZM36.11,46.39a21.72,21.72,0,0,0,5.4,2.35c2.44.53,3,1,3.37,1.32,0,0-3.55-.88-5.08-1.08s-3.57-1.57-3.69-2.59Zm-1.06-3.26a5.16,5.16,0,0,0-1.87.42,5.41,5.41,0,0,1,.22-6c1.63-2.12,4.76-1.07,4.76-1.07a7.38,7.38,0,0,0-3.11,6.61Zm7,.2s.42,2.62,5.12,4.87c0,0-5.14-.74-5.12-4.87ZM37.3,33.88s1.84-2.66.22-3.61-3.42,1.37-3.42,1.37-.37.5-.79.25-.32-1.09-.2-1.34,1.68-3.35,5.27-1.18.81,5.34-1.08,4.51Zm-5,13.52c.43,1.52-1.34,2.41-1.34,2.41.18-.4,1.34-2.41,1.34-2.41Zm1.48.69a3.09,3.09,0,0,1-2.89,3.57,9.33,9.33,0,0,0,2.89-3.57Zm1.76.76a4.05,4.05,0,0,1-3,4.16s2.64-2.55,3-4.16ZM38.32,50s-2.17,2-2.56,4c0,0-.74-2.83,2.56-4ZM41,51a5.52,5.52,0,0,0-3,3.16s-.48-3,3-3.16Zm.91,1.65A4.36,4.36,0,0,0,40,54.07s-.31-1.73,1.88-1.38ZM54.28,66.38a.81.81,0,1,1,1,.51.78.78,0,0,1-1-.51ZM52.15,65.3s-.54-2.26,1-2.76a2.21,2.21,0,0,1,2.78.92S53,62.67,52.15,65.3Zm1.74-6a4.54,4.54,0,0,1-2-2.65,4.22,4.22,0,0,1,2,2.65Zm-7-12.74-.31-2.15.63,1.49,1.89.55-2.21.11Zm-2.4-26.62s4.87.69,4.28,7.17c0,0-1.11-.41-2.42-3.48-.93-2.17-.51-2.12-1.86-3.69Zm4.24-1.09c-1.3.23-3.3.25-4.3-.45a33.32,33.32,0,0,0,3.29-2.84c1.22-1.29,2.4-1.69,3.29-.28s-1,3.34-2.28,3.57Zm7,16.4a.39.39,0,0,1,.48.29.41.41,0,0,1-.25.51.42.42,0,0,1-.23-.8ZM57,40.45a4.17,4.17,0,0,1,.63-2.63,2.75,2.75,0,0,1,2.75-.94c2.15.47,2.08.93,3.93.4a3.06,3.06,0,0,0,2.13-2.37l1.16.49s-.28,1.75-3.73,2.85S61,44.07,61,44.17s-3.57.78-4-3.72Zm.66-18.59c-2.2,1.14-.4,3.16-.4,3.16a2.44,2.44,0,0,0-.9,2.68,1.55,1.55,0,0,1,.16-2.77c-1.86-2.84,1.14-3.07,1.14-3.07Zm1.78,5.72-.88,1.27,1.12-.59-1.46,1.86,1.52-.92-1.07,1.65L59.86,30,59,31.6l1.28-1-.79,1.58L60.77,31l-.69,1.84,1.47-1.48-.5,1.83,1.22-1.51-.42,1.53,1.24-1.38-.36,1.36,1.19-1.32-.19.73,1.32-1.08s-2.43,3.8-5.54,1.34c-3.42-2.69-.22-6.57-.22-6.57L58.77,28l.69-.37Zm4.91-8a5.31,5.31,0,0,1,4.67,1c3,2.17,1.72,4.49,1.65,4.51l-.22-2-.43.79.14-1.54-.43.65-.25-1.47-.34,1-.3-1.83-.32,1.08-.46-1.59-.29,1.18-.66-1.32v1l-1-1.48.24,1.35-1.21-1.25.37,1.15-1.28-1,.53,1-1.37-.75.76.92L63,20.53l.77.8L62.14,21l1.22.75-1.73,0,1.16.63-1.48,0,1,.47-1,.11.78.31L61,23.4a4.16,4.16,0,0,1,3.37-3.82Zm-3.27.13a5.13,5.13,0,0,1,1.68-1.35,8.4,8.4,0,0,1,3.7-.75A6.51,6.51,0,0,1,70.78,20c-.41-.08-2.11-.76-4.45-1.32s-5.23,1-5.23,1ZM68.56,25a5.75,5.75,0,0,0-3.77.87A2.49,2.49,0,0,1,68.56,25Zm-4.8,3.87c-.06-.22-1.38-1.4-1.16-3s2.14-2.28,2.14-2.28c-1.65,2-1.59,3.16-1,5.3Zm15.47,1.51a10.38,10.38,0,0,1-1.93-1.12A4.47,4.47,0,0,1,76,27.75,1.89,1.89,0,0,1,75.94,26s6.12.51,5.2,5.66a5.25,5.25,0,0,0-1.91-1.27ZM73.79,17.9l-1.7-2.14-.1,1-1-2.3v1.28l-.89-1.84,0,1.49-1-2,.14,1.73-1.07-2,.27,1.51L67.1,12.54l.36,1.66-1.33-1.78L66.7,14l-1.56-1.85.64,1.7-1.6-1.54.58,1.33-1.35-1.14.51,1-1.33-1.17.73,1.3-2.46-1.39,1.42,1.65-1.87-1.07L61.57,14l-1.85-.87,1.07,1-1.93-.79,1.2,1-2.2-.69,1.28.95-2.62-.45,1.65,1.08-1.69-.36,1.19.77-2.06-.32L57,16l-1.82-.14,1.06.53-1.84.1,1.41.39-1.91.31,1.24.24-1.68.47,1.07.2a7,7,0,0,0-1.77.67l1.44,0a8.61,8.61,0,0,0-1.53.69l1.17-.13a15.53,15.53,0,0,0-1.63.82l1.21-.05L52,20.86l1.06-.07-1.39.54s2.21-9.42,11-9.53c9.52-.12,11.13,6.1,11.13,6.1Zm-56,9.36L17.6,26l1.14,1.82L18.28,26l1,1-.46-1.45L20,26.72,19,24.83l.87.59-.27-1a2.44,2.44,0,0,1,.25,3.34c-1,1.33-3,0-2.92-1.19l.83.72Zm-1.35-4.21a.77.77,0,1,1,.94.48.74.74,0,0,1-.94-.48Zm-2.3.91-.71,1.49,1.12-.77L14,26l1.25-1.09-.34,1,1.11-1S15,27.74,13.39,26.05s.69-2.83.69-2.83l-.54,1,.61-.23Zm-.51-3,.26,1.14s-2.5,1.47-1.81,3.68,3.54,1.77,4,1.41c0,0,1.08,3,3.68,1.65s1.22-4.25.76-5.37c0,0,4.54,2.95.93,7.76a8.2,8.2,0,0,1-4.43,2.86s-3.19,1.06-3.89,2.65A9.19,9.19,0,0,0,10,34.36c-2.08-.9-2.49-1.86-2.49-1.86l-.08-.14a41.65,41.65,0,0,1,6.26-11.44ZM12.7,39.35s-2.11-1.16-3.17-1.71a5,5,0,0,1-2.17-3.25,9.35,9.35,0,0,1,2.43.93,4.66,4.66,0,0,1,2.91,4ZM11.39,43.2l-2.06.17,1.76.55-2.71.48,2.51.19-2.25.63h2.25l-2.07.95,2.57-.39L9.52,46.91l2.13-.55-1.53.94,2.15-.47-1,.75,1.85-.43s-2.91,2-4.58-.74a3.2,3.2,0,0,1-.13-2.95c.64-1.38,2.15-2.58,4.59-.84l-3.23.16,1.62.42Zm3.93,4.63s1.52,1.93,5.52,2.79l-2,1.75,2.55-.74-2.29,1.79,2.11-.62s-.28,1.38-3.29,1.31c0,0,1.5-3.92-1-4.34-2-.35-2.56,2.91-2.56,2.91A17.73,17.73,0,0,0,14,55.87a8,8,0,0,1,1.32-8ZM15,54.41c.44-2.77.95-3.69,1.83-3.48.42.11.56.58.59,1A8.37,8.37,0,0,1,17,54.11a23.08,23.08,0,0,0-.78,4.61A4.94,4.94,0,0,1,15,54.41Zm17.44,21.2s-1.82,1.61-4.77-.07c0,0,2.63-1.33,4.77.07Zm-2.83-7.46c-.35-5.09-1.73-6.63-1.73-6.63C32,60.52,32.07,58,32.07,58c1.75,5.41,9.5,4,9.5,4-.7,1-4.15,2.38-4.15,2.38-1.34.57-1,2.27,1.29,4.38a13.78,13.78,0,0,1,3.21,5.66l.22-2.78a7.1,7.1,0,0,1,1.09,3.57,7.19,7.19,0,0,0-1.74.38C41,75.36,40,72.87,40,72.87a9.1,9.1,0,0,0-5.86-4.68,17.14,17.14,0,0,1,1.1,3.31,13.12,13.12,0,0,0,1.67,3.79S29.87,72,29.61,68.15ZM40.36,75.8c-3.35.2-4.57-6.31-4.57-6.31A6.09,6.09,0,0,1,39.11,73a10.08,10.08,0,0,0,1.25,2.79Zm-2.12,1.61s-1.68,2.52-2.34,3.36A5.34,5.34,0,0,1,33,83s1.45-2.72,2-3.57a4.26,4.26,0,0,1,3.3-2Zm15.51,3.45a3.28,3.28,0,0,0,5.34-1.22c1.13-2.84-1.77-5-1.77-5,5.39-4.23,8.88-1.3,8.88-1.3C59,73.78,60.07,77,60.07,77s.57,2.3,3.83-.58,5.33,1.19,6.22,3.3a41.26,41.26,0,0,1-20.3,7.52c3.66-2,3.93-6.33,3.93-6.33ZM64.34,67.21a1.08,1.08,0,0,0,0,.18A14.76,14.76,0,0,0,61,65.77c-2.17-.79-2-1.53-2-1.53s4.5-.11,4.19-4.12-7-4-7-4-4.73,0-5.71-4.42A27.19,27.19,0,0,1,53.73,54a7.38,7.38,0,0,0-2.27-4.79,14.84,14.84,0,0,0,2.29-1S57,52.64,64,47.54c0,0-.26,4-.51,5.63s0,6.23,1,8a5.59,5.59,0,0,1,1,2.64,7.55,7.55,0,0,0-1.1,3.43Zm10-3.21c1.09.49,5.31,1.62,5.31,1.62a12.27,12.27,0,0,1-9,2c-3.26-1.28-4.49-.83-4.49-.83S69.94,62,74.29,64ZM65.21,50s4.17,7.16.83,12.12A13.93,13.93,0,0,1,65.21,50Zm7.49,3.1a3.68,3.68,0,0,1,1.67-2.82l-.49,1.11.75-.44-1.58,2.6,1.65-1.46-1.27,2.52,1.73-1.74-1,2,1.52-1.55-.78,2.76,1.45-2.24-.51,2.77,1.25-2.57,0,2.32.71-2.24.28,2.51L78.7,54l.14,2.36L79.38,54l.3,2,.38-2.58.31,1.7.43-2.27s1.35,5.2-4.93,4.39a4.11,4.11,0,0,1-3.17-4.19Zm6.44-5s.37,3.42-1.17,2.51c-1.22-.71.41-2.23,1.17-2.51Zm-1.61-4.72a2.65,2.65,0,0,1-.75,4c-2.08-3.9-3.12-4.56-3.12-4.56,2.22-2.15-.1-4.41-1.91-5.54S70,35.41,70,35.41c.17.11,3.37.64,5.08-.35a6.67,6.67,0,0,1,2.62-1c-5,4.28-1.1,7.9-.17,9.38ZM81.75,32.8s1.33-4-1.72-6.18c-1-.71-3.06-1.38-3.53-1.89a5.3,5.3,0,0,0,.15-3.81,17.66,17.66,0,0,1-.57-2.71L76,17.78a41,41,0,0,1,9.69,16.81c.06.21.12.41.17.62a6.77,6.77,0,0,0-4.11-2.41ZM6.64,57.74c-.1-.34-.2-.69-.29-1l.14.13a7.23,7.23,0,0,0,2.09.57,11.4,11.4,0,0,1,8.69,4.15A8.68,8.68,0,0,0,13,63.77a6,6,0,0,1-3.27,1.59,41.88,41.88,0,0,1-3.08-7.62Zm7.09,13c3,4.27,7.72-.62,7.91-1.45,0,0,3.77.32,5,1.44,0,0-5.14-.52-5.05,2.21.08,3,3.94,1.66,4.37,1.53,0,0,2.95-1,4.38-.24a13.71,13.71,0,0,0-5.87,2.23,17.9,17.9,0,0,1,3.65.36,15.42,15.42,0,0,0,4.73.08c.76-.09,2.58-.8,3.67.14,0,0-1.62.34-3.16,3.21-1.39,2.6-2.07,3.39-2.92,4A41.23,41.23,0,0,1,10.52,66.8a24.42,24.42,0,0,1,3.21,3.92ZM75.9,74.65c-7.51-2.47-8.86-4.77-9.12-5.11s-1.18-3.11,2.87-1.39C74,70,81.11,66.37,82.41,65.67a41.26,41.26,0,0,1-6.51,9ZM72.4,62.93c-2-.38-5.81,2-5.81,2a6.14,6.14,0,0,1,3.54-4.08,11.74,11.74,0,0,0,4.2-2.36s.35,4.07,4.34,3c5.44-1.66,3-10.61,3-10.61s-1.81-3.72.93-6.34a28.24,28.24,0,0,0,4.18-4.84,41.1,41.1,0,0,1-3.75,24.73C81,65.53,74.27,63.28,72.4,62.93Z"/></g></g></svg>