<svg xmlns="http://www.w3.org/2000/svg" viewBox="0 0 92.32 92.32"><defs><style>.cls-1{fill:#FFB200;}</style></defs><g id="Layer_2" data-name="Layer 2"><g id="Vector_Graphics" data-name="Vector Graphics"><path class="cls-1" d="M46.16,0A46.16,46.16,0,1,0,92.32,46.16,46.22,46.22,0,0,0,46.16,0ZM7.1,59.24c.25-.65.9-2.37,1.22-3.58,0,0,0,2.82-.12,3.63,0,0,1-3.65,1.08-4.43a38.59,38.59,0,0,1,.07,5.27,41.61,41.61,0,0,0,1-5.58,41.92,41.92,0,0,1,.36,6.26,71.62,71.62,0,0,0,.65-7.55,22.92,22.92,0,0,1,.32,9.65s1.69-4.81.87-8.63a11.77,11.77,0,0,1,.83,9.82,2.55,2.55,0,0,0,.67,3.14A24.7,24.7,0,0,1,19,73.54s-1.1,1.58-1.2,1.86c0,0,1.77.87,2.13,1l-.52,1L19,77.12A41.24,41.24,0,0,1,7.1,59.24Zm0-.15c-.2-.6-.38-1.2-.55-1.8a5.91,5.91,0,0,0,.65-1s0,1.78-.1,2.85ZM28,9.21c1,.35,2,2.61,2.2,3.15a19.12,19.12,0,0,0,2.12,3.37c2.46,3.35,8.62,3.85,8.62,3.85a21.71,21.71,0,0,0-4,4.54c0-3.21-.69-3.55-.69-3.55-1,4,.11,5.43.11,5.43-1.93,5.08-5.93,6-5.93,6s1.58-3.68.16-6.42-5.12-4.25-5.12-4.25a4.67,4.67,0,0,0,.39-3.62c-.71-1.66-2.18-2.59-2.88-3.56a2.4,2.4,0,0,1-.52-1.58A40.31,40.31,0,0,1,28,9.21ZM68.42,80.8c-.12-.38-.94-2.7-2.46-3.4a9,9,0,0,0-9.07-4.3,14.56,14.56,0,0,1-1-6.7,5.73,5.73,0,0,0,3.59,1,4.72,4.72,0,0,0,3.94.56,4.3,4.3,0,0,0,4.16.08s.71-.28,2.6,1.19a5.77,5.77,0,0,0,2,.54s3.94,2.23,5.57,1c0,0-2.41-1.21-2.86-2.43,0,0,1.63,1.56,3.24.91A3.85,3.85,0,0,1,80.44,69a41.68,41.68,0,0,1-12,11.83Zm-2.14,1.28a13.84,13.84,0,0,0-.16-1.74,2.45,2.45,0,0,1,.12-1.78,2.33,2.33,0,0,1,1.45,2.7c-.47.28-.94.56-1.41.82ZM28,83.13,27.9,83A7.84,7.84,0,0,0,31,82s2,.33,4.53.69,6.85,1,9.92-1c0,0,2.84.77,2.64,2.28-.53,1.82-7,2.64-9.19,2.71A41.2,41.2,0,0,1,28,83.13Zm-4.43-6.27-.23-.68c3.57.36,8,2.28,7.07,4.42S26,81.78,26,81.78c.21-.06,2.22-.62,2.41-2-.29-3-4.83-2.94-4.83-2.94ZM20.13,65.65a5.18,5.18,0,0,1,1.11-3.88c2.43-2.78,2.83-4,2.83-4,.9,1.86-.62,3.92-.62,3.92-.59.62-.46.79-.46.79.32,1.44,3.16,4.51,4.47,6.16s2,5.12,2,5.12a2.57,2.57,0,0,1,1.89-.22c.82.35,0,.92,0,.92l-9.46-1c-.84-3-1.8-7.79-1.8-7.79ZM21.46,77.2A.29.29,0,0,1,21.1,77a.28.28,0,0,1,.09-.39.28.28,0,0,1,.36.17.29.29,0,0,1-.09.4ZM8.77,28.89a42,42,0,0,1,2.34-4.34,10.6,10.6,0,0,0,8.41-1.08l.1-.27-.1.27c-.25.74,0,0-.66,2.11a5.18,5.18,0,0,1-2.52,3c.33.12,4.46,1.71,7-.28s2-5.73,2-5.73c3.42,1,4.17,3.41,4.17,3.41,1.12,3.39-.17,5.15-.17,5.15a10.66,10.66,0,0,0-1.71-3,16.86,16.86,0,0,0,1.11,4.62c-3.3-2.28-9.12-1.5-11.83,1.29s-4.07,2.37-4.07,2.37c.55-.41,2.53-3.54.85-6.15-1.35-2.11-4-1.63-4.94-1.37ZM10.6,35.4a3.31,3.31,0,0,1-1.46-2.94,1.36,1.36,0,0,1,1.15-1.18s1.56-.15,1.93,2c.17,1.41-1.62,2.15-1.62,2.15Zm2.8-14.18a20.9,20.9,0,0,0,5.71.34s-4,1.68-6.07.45l.36-.78Zm5,1.79s-3.55,2-6.55.62l.44-.82s4.11.8,6.11.2Zm3-5.33a6.1,6.1,0,0,0,1.48,3.17,2.91,2.91,0,0,1-2.95-2.64c-.39-1.87,1.39-3.77,1.39-3.77a20,20,0,0,0,.08,3.24Zm.95.62a4.65,4.65,0,0,1-.05-2.89,25.36,25.36,0,0,1,1.95,1.72,3.63,3.63,0,0,1,.39,3.7,8.23,8.23,0,0,1-2.29-2.53ZM19.52,28.5s-.33,0,1.08-.77a4.27,4.27,0,0,0,2.49-2.86A10.14,10.14,0,0,1,24,22.09s1.94,6-4.46,6.41Zm3.23-6.65s-.2,1.32-.35,2.37A4.94,4.94,0,0,1,19,28a8.16,8.16,0,0,0,1-2.29,4,4,0,0,1,2.73-3.82ZM37.2,27.16s1.71-5.43,5.74-7.59a3.13,3.13,0,0,0,.14,2.51c.48.8,1.61.34,1.61.34s-.77,2.25.28,3.19,2.89-.29,3.24-.74c0,0,1.21,1.75,3.46,0A13.62,13.62,0,0,0,54.34,33a12.55,12.55,0,0,0-7.45.5c-4.25,1.52-6,1.88-8.55,1.7S32,33.92,31.11,33.19c0,0,3.66-2.26,4.37-3.5,0,0,1.78.31,3.55-2.11a8.12,8.12,0,0,1,1.27-1.33s-.93-.29-3.1.91ZM33.81,15.92a13.82,13.82,0,0,1-2.34-3.08c-.41-.83-1-1.94-1.65-3.27a11.31,11.31,0,0,1,4.82,3c2.2,2.35,3,3.87,7,5.63,0,0-3.74,1-7.83-2.31Zm9.66-.05,1.33.26-1-.7,1.58.36-1.3-.85,1.93.42-1.6-1,2,.39-1.58-.94,2,.32-1.7-.93,2,.22-1.72-.79,1.91.06-1.74-.84,1.58.08-1.52-.63L47,11.21l-1.69-.73,1.08,0L45,9.84c2.33-.6,3.55,3,1.82,5.25A3.16,3.16,0,0,1,43,16.38l.92-.14-.48-.37Zm7.41-5.54-.42,1.85,1-1.67L51,12.86l1.11-1.67-.35,2.19.9-1.8-.28,2.11.92-1.77L53,13.85,53.9,12,53.71,14l.76-1.5-.13,1.65.85-1.72-.06,1.53.75-1.64v1.13l.69-1.37-.16.83L57,12.1l-.42,1.05s-1.54,2.4-4.75,1A3.38,3.38,0,0,1,50,9.17l.12,1.3.4-.8-.28,1.63.65-1ZM86.69,38.81a24.6,24.6,0,0,1-4.8-3.54C79.23,32.77,79.66,33,78.51,32a33.35,33.35,0,0,0,6.14-.43,40.31,40.31,0,0,1,2,7.29Zm-1.55.31c-2.72.25-7.63-3-9.39-5.16a24.65,24.65,0,0,0-4.88-4.23c4.42.65,7.42,3.5,9.46,5.69a21.39,21.39,0,0,0,4.81,3.7Zm-11.62-10a12,12,0,0,1,8.66,1.72s-3.64,1.45-8.66-1.72ZM70,28.31c4.28-4.07,8-3.11,8-3.11a9.57,9.57,0,0,1-8,3.11ZM69.33,35c-1.53,1.22-2.93-1.38-2.93-1.38a3.54,3.54,0,0,0,1.69,3.15c3.21,10.19-3.47,12.5-3.47,12.5s-1.69-.54-3.57-7.75-4.11-8.37-4.11-8.37a18.81,18.81,0,0,1-.5-5.38A8.28,8.28,0,0,0,56,25a3.12,3.12,0,0,0,3-1c1.39,2.38,4.07,5.33,6.68,5.81A6.53,6.53,0,0,1,69.49,32c.32.66,1.14,2-.16,3Zm.53,3.19s5.48,5.34.34,12.86a4.89,4.89,0,0,1-4.37-.64,11,11,0,0,0,4-12.22ZM77.44,63.1l.15.38-.77-.66.41,1.12L76,63.05l.34,1-.87-.75.52,1.1-1-.72.58,1.18-.73-.5.55,1-.72-.48.25,1.1a1.94,1.94,0,0,1,0-2.77c1.26-1.67,3.16,0,3.16,0l-.62-.1Zm.18,4.43a.49.49,0,1,1,.16-.62.47.47,0,0,1-.16.62ZM74.47,57.3v.54L74,56.66,74,57.5l-.77-2v1.17l-.83-1.6.07,1.23-1-1.33.29,1.15L70.51,55l.34,1-1.16-.77.38.71-1-.59.35.72-.9-.37.38.45-1.21-.55c2.69-1.44,5.2-1.08,6.05-.41a6.08,6.08,0,0,1,2.18,4.07c-.15-.1-1.47-2-1.47-2Zm-7.11,3.59-1,.78,1.67-.33-1.26,1.17,1.72-.46-1.12,1.23,1.55-.59-.8,1.06L69.75,63l-.6,1.08,1.4-.87-.55.84,1.25-.8-.7,1.08,1.41-1-.46.71,1.35-.64a3.84,3.84,0,0,1-4.68.73,3.76,3.76,0,0,1-2.11-4l.87.13-.6.69,1-.13ZM70,59.46s-.75-.3-1.25-2a4.76,4.76,0,0,1,2.32.48A1.51,1.51,0,0,0,70,59.46ZM72.45,62a3.69,3.69,0,0,1-4.25-3,6.59,6.59,0,0,0,4.25,3Zm-.55-1.49a1.6,1.6,0,0,0,.85-1.72,4.77,4.77,0,0,1,1.44,2.06,2.89,2.89,0,0,1-2.29-.34Zm-10.55.89-2.22,0,2.26.76-2.45.07,2.3.64-1.92.3,2.19.48-2,.29,2.26.62L60,64.86l2.37.49-1.44.07,2.23.85s-3.78.36-4.45-3.07c-.6-3.05,2.8-3.1,3.13-2.41l-1.36.14.86.49Zm-3-4.32a6.87,6.87,0,0,1,5-.75s-.5.63-3.26,1.06c0,0,3.56,1.08,3.92,1.32a5.66,5.66,0,0,1-5.65-1.63Zm-8.32-8.49c7,5.57,12.77,3.21,12.77,3.21a8.38,8.38,0,0,0,3,2.47c-14.58,2.53-15.78-5.68-15.78-5.68Zm6.5,10.72-1.71-.5,1.62,1-2.37-.49,2,1.24-2.46-.48,2.15,1.41-1.94-.25,2,1-2.25-.23,2.27.93-1.73-.11,2.07,1L55,63.74l1.56,1.06c-4.09-1.09-3.91-4.77-2.59-6.08,1.53-1.52,3.18.13,3.18.13h-.8l.26.47Zm-22.73.17-1.24.79h2l-1.27.95,2.2-.37-1.49.87,2.35-.45-1.27.86,2-.38-1.28.91,2.19-.46L37,63.08l2.16-.54-1,.76,1.91-.47-1,.86L41.26,63,40,64l2.5-.61-.78.71L43,63.92l-.75.47c-9.38.17-10.92-5.64-10.92-5.64l1.14.24-.4.43,1.76.08Zm5.88-20.22L37,39.57l2.16.42-2.52.36,1.85.43-2.76.36,2.41.37-2.6.4,2.68.34-3.14.44,2.57.4-3.23.35,2.77.37-2.4.4,2.17.34L34.08,45l2.71.4L33.3,46l3.44.33L33.88,47l2.83.16-2.9.64,3,.22-2.92.69,2.82.13L34,49.59h3l-2.61.82,3.05,0-2.72.88,2.5,0-2.06.59,2.64.18-2.55.65,2.77,0-2.38.71h2.82l-2.26.89L39,54.08l-2,.72,2.45-.14-1.58.64,2.82-.16-2,.76,2.6-.11-1.71.66,2.83.06C37.63,58.61,33.81,52,33.81,52s-2.84-5.22.32-9.9,6.72-4,6.72-4L38.63,39l1.09.24Zm.78,7c.46-7.09,6.44-7.59,6.44-7.59l-.9.52.5.24-1.93.49,1,.23-2,.47,1.73.18-1.74.39,1.55.23L42.14,42l2.71.32-2.57.7,2.11.09-2.78.62,2.66.22-2.4.39,2.38.5-2.92.54,2.91.24-2.46.56,2.21.16L41.34,47l2.53.1-2.36.69,2.77.09-2.62.79h2.73l-2.64.91,2.88-.11-2.51.88,3.18-.15-3,1L45.37,51l-2,.81,2.47-.26-2.53,1,3.27-.4L44,53.18l3.26-.33-2.26,1,2.72-.31-2,.81,2.49-.13-1.33.58,2,.18c-1.69,1.36-8.85-1.68-8.4-8.77ZM53,38.08c1.72,1.45,4-.48,4-.48-.12,1-2.29,2.78-4.55.79s-.87-3.91-.87-3.91A4.29,4.29,0,0,0,53,38.08Zm.13-14.55a11,11,0,0,1,2.08,3.53c.41,1.63-.1,2.59.62,5.15,0,0-4.7-2.21-2.7-8.68Zm-.78-7.12a.44.44,0,1,1,.79-.39.48.48,0,0,1-.18.65.47.47,0,0,1-.61-.26ZM55.7,35s-1.61.72-1.56-1.21A8.58,8.58,0,0,0,55.7,35ZM56,36.36a1.49,1.49,0,0,1-2,.56c-.45-.2-.83-.76-1-2,0,0,.4,2.06,3,1.42Zm1.72,10.52-1.69.76,2.25-.18-1.73.77L59.13,48l-1.4.73,1.8-.11-1,.5,1.56-.1-.68.4,2,.29c-1.46.3-6.14-.26-7.12-4.25s2-4,2-4l-.85.63.94.42-1.61.15,1.63.61-1.85.31,1.91.4-2.07.56,2.34.22-1.93.56,2.11.09-2.09.6,2.47.2L55.37,47l2.39-.12Zm-6.36-7-1.06.84,1,.17-1.65.56,1.71.21-2.32.47,2.38.39L49.35,43l2,.22-2.19.54,2.38.35-1.82.44,2,.3-1.87.53,2.27.3-1.69.47,2,.22-1.68.51,2,.2-1.33.44,2,.15-1.31.4,2.22.39-1.18.23,1.75.65c-3.84,0-6.74-4.69-5.95-7.32s2.55-2.17,2.55-2.17ZM52.3,56s-3.83,3.56-5.23,6.75A9.66,9.66,0,0,1,52.3,56Zm5.2-39.57L56,16.22l1.14.71-1.78-.3,1.49.86-2.17-.34,1.85,1-2.25-.31,1.81.95-2.21-.23,1.94.92-2.25-.12,2,.78-2.12.05,2,.82H53.63l1.73.61-1.5.17,1.93.7-1.21.12,1.63.57c-2.54.82-4.13-3.15-2.34-5.71A3.52,3.52,0,0,1,58,15.83l-1,.21.56.39ZM51.27,17.6a.47.47,0,0,1,.61.26.49.49,0,0,1-.17.65.48.48,0,0,1-.62-.26.48.48,0,0,1,.18-.65Zm-.36-1a.48.48,0,0,1-.63-.26.49.49,0,0,1,.19-.66.51.51,0,0,1,.44.92Zm-1.27-2.39a.4.4,0,0,1-.18.54.4.4,0,1,1,.18-.54Zm-.73,2a.49.49,0,1,1-.87.43.49.49,0,0,1,.23-.65.48.48,0,0,1,.64.22Zm1,2.64c2.45,2.27.63,4.38.63,4.38l-.11-1.87-.61.77.34-1.81-.93,1.16.38-2.11L48.45,21,49,19.11l-1.12,1.53.38-2.3-1,2,.11-2.08-1,2.05V18.49l-.92,2,0-1.47-1,1.46c-.17-1.7,3-3.78,5.47-1.5ZM34,37.42l-3.17.47,2,.59-2.86,0,2.18.76L29,39.13l2.56.86-3,.1,2.26.63-3.21,0,2.49.61-3.08.1,2.9.79L27,42.41l2.54.64-2.83.21,2.65.48-3.15.33,3.5.68-3.92.46,3.53.48-2.79.38,2.56.39-2.44.44,2.49.33-2.33.58,2.22.27-2.16.64,2.45.25L27,49.66l2.49.24L27,50.47l2.19.1L27,51.15l2.75.2-1.92.57,2.63,0-2.58.74,3.15.06-2.32.8,2.74,0-2.28.78,2.8-.1-2,.66,2.31,0-1.67.49,2.56.2-1.48.31,2.46.67c-6.65.39-8.48-7.82-8.62-8.5a11.06,11.06,0,0,1,2.08-8.53c2.88-3.8,6.38-2.13,6.38-2.13ZM26.78,57v2.11l.61-1.52.16,1.57L28,57.83l.19,1.36.38-1.13.12.93.51-.21a1.81,1.81,0,0,1-3,.42A3.05,3.05,0,0,1,25.71,56L26,57.16l.36-1-.09,2L26.78,57Zm-1.69-18-1.46-.51,1,1L23.21,39l1.45,1.17-1-.43.68,1s-2.87-1.49-.55-4.61c1.87-2.51,5.55-1.45,5.55-1.45l-.57.18.47.29-1.86-.08.76.62L26,35.21l1.34,1-1.89-.63,1.36,1.17-1.61-.62,1.08,1-2.06-.68L26,37.85l-2.2-.7,1.67,1.34-1.76-.64,1.38,1.2Zm-2-5.14-1.46-.22.74.58-1.77-.12,1.47.73-2-.15,1.14.62H19.81l1.13.62-1.26.19.94.48-1.07.1,1.08.51-1,0,.66.51-1.18,0s-.39-5.06,4.46-4.48l-.85.28.39.41Zm-1.18,6.82s-3.08-1.16-4.88.7c0,0,1.6-3.83,4.88-.7Zm-4.7,3.06a.78.78,0,0,1,1.06.32.82.82,0,1,1-1.06-.32Zm2.69,2.34s2.72,3-1.66,4.38a3.9,3.9,0,0,0,1.66-4.38Zm.48-2.86s3.89-1.11,2.69,4.12a4.56,4.56,0,0,0-2.69-4.12Zm-5.65,1.22c-3.38-3.42.94-5.39.94-5.39a5.26,5.26,0,0,0-.94,5.39Zm2.1,2.62c-2.45,3.13-4.52-.59-4.52-.59a4.45,4.45,0,0,0,4.52.59ZM14,51.23l1,1.56.12-.71.49,1.78.25-1.11.4,1.49.22-1.47.56,2,.17-1.87.8,2.24L18,53.32l.67,1.59.09-1.45.77,2,0-1.91.94,1.66-.17-1.89.94,1.65L21,53.07l.79,1.35-.34-2.05.89,1.35L22.15,52l.65,1-.08-1.51.53,1.1.06-1.81a2.91,2.91,0,0,1,0,2.7A4.68,4.68,0,0,1,17,55.31c-3.11-1.72-3-4.08-3-4.08Zm1.57,5.67.8,1.48.16-.83.58,2.06.21-1.69L18,60,18,58.23l.53,1.85.22-1.37.53,1.57,0-2L20.08,60l0-1.62.57,1.27.05-1.91.57,1.65.15-1.81.38,1.18L22.17,57C23,60.62,18.6,61.42,17,60.14a4,4,0,0,1-1.42-3.24ZM30.72,75.34l-.13.58a30.45,30.45,0,0,1,4.9,3.6A10.28,10.28,0,0,1,36,77s5.78.87,5.89,2.74c-.13.68-1.09.63-1.09.63a79.69,79.69,0,0,1-9-.27L31.42,80a6.54,6.54,0,0,0-4-3.67,18.87,18.87,0,0,0-4.91-1.21l-.29-.79s8.23.84,8.51,1ZM43,79.47C41.81,76.53,36,76,36,76l.09-.79c4.51.37,6.82,1.39,8.1,2.79a2,2,0,0,1-.07,2.75c-4.92,3.12-11.5.7-11.5.7-2.27-.66.09-.6.09-.6,4.47.3,6.55.61,7.83.52a4.24,4.24,0,0,0,2-.58A1.08,1.08,0,0,0,43,79.47Zm3.13-.07s-1-2.81-5.83-4.28a26.78,26.78,0,0,0-4.85-.86S33,70.51,31.1,68.21s-1.81-2.5-1.6-4.19a11.09,11.09,0,0,1,1-3.54s3.05,2.54,3.8,2.65c0,0,2.78,4.78,4,5.72L36,64.77A35.42,35.42,0,0,0,39.26,68l-2.83-3.44s3,2.09,4.19,2l-3-1.88s3.56,1.4,4,1.63a23.57,23.57,0,0,1,2.15,7.35,1,1,0,0,0,.51,1l1.83,1.17s-.73,1-1.09,1.61c0,0,2.61,1.44,2.94,2.13a14.66,14.66,0,0,0-1.86-.17Zm1.38-13s2.46.16,2.87,1.5a17.72,17.72,0,0,0,1,3.07c.59,1.21,1.66,2.85,2.48,4.75,0,0,1.12.2,1,.76l-.52,1.62a27.15,27.15,0,0,1,4.17,1l-.62-1.57,2.55,1-1-2.08s3.82.57,2.08,2.08c0,0-1.24,1.87-10.23-.06,0,0-5-6.61-3.81-12.12Zm3.8,13.16s9.1,1.87,11.34-.44-3.74-3.8-4-3.84l-1.23-1.09s7.06-.9,7.6,4.16c.33,3-5.36,3.47-5.36,3.47s-6.68.83-9.43-1.58a10.21,10.21,0,0,1,1.59.4l-.47-1.08Zm28-14.43a.62.62,0,0,1,.82.33.63.63,0,0,1-.25.86.62.62,0,0,1-.82-.33.63.63,0,0,1,.25-.86Zm.45-2.5a15,15,0,0,1-1.18-3.45A11.09,11.09,0,0,0,77,56.28a7.56,7.56,0,0,0-1-2.59,5.43,5.43,0,0,0-.48-.51,2.09,2.09,0,0,1-.44-.37A3.34,3.34,0,0,0,74,51.7s2-.64,2.48-3.65a16.43,16.43,0,0,1,2.29-5.68c-1.79.83-5.6,4.43-5.6,4.43a13,13,0,0,0-3.61-10.67c.66-.37,1.08-.66,1.45-2.21a4.85,4.85,0,0,0-.9-3.31c2,.89,5.24,4,7.1,5.82,3.1,3.09,8.52,3.87,9.72,4a41.52,41.52,0,0,1,.4,5.72,41,41,0,0,1-5,19.61,15.75,15.75,0,0,1-2.61-3.11Zm.47-33.9a16.17,16.17,0,0,0-3.75-1.12A22.09,22.09,0,0,0,81,24.21a41.08,41.08,0,0,1,3.08,5.88,10.12,10.12,0,0,1-3.85-1.33Zm-4-4.61a5.85,5.85,0,0,0-3.59.68A14.27,14.27,0,0,0,69.49,27,3.13,3.13,0,0,0,68,24.24c-1.6-.9-3.09,1.23-3,1.37s2.28-.6,2.83.16.64,1.42-.35,2.38-3.31-.21-3.85-.56a8.38,8.38,0,0,1-4.11-6.29s2.6.56,3.08-1a2.7,2.7,0,0,0-1.72-3.19s.72-1-.84-2.41a15.47,15.47,0,0,1,4.6,1.22,8.7,8.7,0,0,0,7.83-1.38A42,42,0,0,1,80.17,23c-.36.38-1.43,1.2-3.93,1.2Zm-17-10.8a6.76,6.76,0,0,1,7.63-.6c3,1.81,3.75,1.41,3.75,1.41a6.82,6.82,0,0,1-7.25.31,13.1,13.1,0,0,0-4.13-1.12ZM67,11.89a6.4,6.4,0,0,0-3.23-1.19,8.65,8.65,0,0,0-4.34,1s.66-.46-.15-1.75a2.93,2.93,0,0,0-2.31-1.31,4,4,0,0,0-.09-2.21,41,41,0,0,1,13.89,6.74A9.68,9.68,0,0,1,67,11.89ZM46.16,5a41.3,41.3,0,0,1,6.91.58,4.91,4.91,0,0,0-1.62,1.82s-.64-1.23-2.06-.21a2.55,2.55,0,0,0-1.2,2.33s-1.85-2.1-3.09-2-1.79,2.09-1.79,2.09-2.76-1.37-3.83.85S40.87,14,40.87,14c-1.18,1.05.39,3,.39,3-2.26-.72-4.67-4-6.4-5.73a18.75,18.75,0,0,0-4.62-3.06A41,41,0,0,1,46.16,5ZM19.79,14.85S17.9,18,20,20.4c0,0-3.78.52-5.83-.09A42.28,42.28,0,0,1,19,15.2a4.3,4.3,0,0,1,.77-.35Zm-12.95,19A14.23,14.23,0,0,0,8.34,37a12.69,12.69,0,0,0-2.79,2.31,40.59,40.59,0,0,1,1.29-5.41Zm-.11,7.87c.41-1.94,2.94-3.36,3.18-3.43a8.08,8.08,0,0,0,1.67,1.52s-2.29,4.32.23,11.48c0,0-1.78-1.66-3.19-3.13a8.34,8.34,0,0,1-1.89-6.44Zm15.4,37.32A19.15,19.15,0,0,0,25,80.12l-1.1-2.27s3.82.19,3.66,1.68c-.15,1.29-2.62,1.35-3.68,1.24-.73-.48-1.44-1-2.14-1.49l.42-.21Zm24,8.28a40.52,40.52,0,0,1-4.29-.23,1,1,0,0,1-.18-.17s7.58-.33,7.66-2.86-3.05-3.52-3.05-3.52,5.19-.24,5.89,3.22c.37,1.85-2.37,3.06-5.15,3.54l-.88,0Zm6-.62a4.94,4.94,0,0,0,1.18-4.14s6.31,1.28,11.77-1.47a2.38,2.38,0,0,1,0,1.62,40.8,40.8,0,0,1-11.24,3.89c-.55.05-1.11.09-1.67.1ZM5,45c.63.77,4.26,5.49,1.11,10.74A41,41,0,0,1,5,46.16c0-.38,0-.77,0-1.15Z"/></g></g></svg>