<svg xmlns="http://www.w3.org/2000/svg" viewBox="0 0 92.33 92.33"><defs><style>.cls-1{fill:#FFB200;}</style></defs><g id="Layer_2" data-name="Layer 2"><g id="Vector_Graphics" data-name="Vector Graphics"><path class="cls-1" d="M84.24,20.25A45.71,45.71,0,0,0,54.64.79a46.45,46.45,0,1,0,29.6,19.46Zm-51.47,56L31.05,75l.62,1L30.1,74.88l.66,1L29.44,75l.69,1-2.06-1,.87.88-1.53-.49,1.71,1.45-1.64-.14,2,.77L28,77.52l2.14.62-1.22.38,1.92.24L29.74,79l2.19.24-.87.28,1.3.34c-6.53.36-6.1-7-6.1-7s.25,1.21,4.09,1.71,4,2,4,2l-1.8-1,.25.69ZM79.05,21.43a41.48,41.48,0,0,1,6.22,11.88,18.68,18.68,0,0,0-2.48-3.05s-3.43-4-7.07-4.32-8.31,2.79-8.31,2.79-3.79-2.87-6.56-3.42A5.06,5.06,0,0,0,62,18.87a29.52,29.52,0,0,0,4.29-1s3,3.19,6.93,2c2.61-.81,3.59-.8,4-.7.6.69,1.17,1.39,1.72,2.12l.14.19Zm2.23,46.34a12.15,12.15,0,0,0-1.15-2c.86-2.45-.83-3.33-.83-3.33a2.56,2.56,0,0,0-2.88-2.31l-.08-.86c7.82,1.14,7.09-6.13,7.09-6.13a3.82,3.82,0,0,0,3.13-2.63,2.23,2.23,0,0,0,.59-.21c-.12,1.19-.29,2.4-.52,3.6a40.54,40.54,0,0,1-5.35,13.82Zm-3.56,4.91c-.91,1-1.7,1.85-1.7,1.85.83-2.27.21-3.46.21-3.46-3.75,5.38-7.7,1.86-7.7,1.86a9.69,9.69,0,0,1,5.71-2.28c4.74-.4,6.08-1.48,6.21-1.59a40.33,40.33,0,0,1-2.73,3.62ZM51.1,86.77c5.56-2.79,4.44-6.62,4.44-6.62,4.38-1.05,6.18,2.86,6.6,4A41.74,41.74,0,0,1,51.34,87l-.24-.26Zm.61-15.08a10,10,0,0,1,2.08.89c0-1.84-1.74-4.07-3.37-5s-2.52-.7-3.82-1.48c-2.64-1.57-1.87-3.82-1.87-3.82.35.86,2.3,1.73,3.12,2s3.49.95,4.75,1.48,1.46,2.08,3.21,2.79a4.31,4.31,0,0,0,3.55-.45c.32,1.56,1.19,1.78,1.19,1.78-1.55,3.38,1,7,1,7A5.65,5.65,0,0,0,60.82,80,8.87,8.87,0,0,0,55,79s-.63-1.7-3.55-3A5.61,5.61,0,0,1,48,72.55c2.1-.5,4.79,1.25,4.79,1.25s-1.09-2.11-1.09-2.11ZM28.35,48.86s.06,4.42,4.11,4.08c0,0-2.1,1.55-3.62.11s-.83-3.5-.49-4.19Zm.19-4.15a1,1,0,1,1,.58,1.22,1,1,0,0,1-.58-1.22Zm3.36,5.91a.94.94,0,0,1-.7-1.15.94.94,0,1,1,.7,1.15Zm.72-8.91a1,1,0,1,1,.58,1.22,1,1,0,0,1-.58-1.22Zm.44,4.21a1,1,0,1,1,.58,1.22,1,1,0,0,1-.58-1.22Zm-1.79-6.33s1.57-2.3,3.59-1.74,2,2.64,1.92,3.4a3.67,3.67,0,0,0-5.51-1.66Zm6.31-3.05.24-2.65-.73,1.51.12-2.72-.82,2.24.06-2.23-.65,1.84-.1-2.66L35.16,34l-.32-2.71-.48,2.93-.62-2.78-.22,2.66-.69-2.5-.12,2.72-1-2.56.2,2.68-1.21-2.57.33,2.88-1-2.21.34,2.86-1.27-2.37.71,3.11L28.4,33.94l.8,2.77-1.11-1.92.62,2.82-1-1.63.52,2.42a4.77,4.77,0,0,1,1.85-6.75c1.07-.67,3.41-1.8,5.69-.6,2,1.08,3.85,3.37,2.61,6.39l-.21-1.85-.57.95ZM26.8,47.18s-2.23-1.6-1.64-3.58,2.65-2,3.39-1.84a3.65,3.65,0,0,0-1.75,5.42ZM13.3,30.62a6.69,6.69,0,0,0-1.68,1.45A3.82,3.82,0,0,1,12,29.39l1.31,1.23ZM13,27.41a.85.85,0,0,1,1.59.58.82.82,0,0,1-1.06.43.8.8,0,0,1-.53-1Zm-.9,8.23a6.38,6.38,0,0,0,3.66,3.1c-4.55.9-3.66-3.1-3.66-3.1Zm3.27,1.77C12,36.09,14.31,32.3,14.31,32.3L14.23,34l.9-.64L14,35.58l1.31-1.42-.84,1.94,1.14-1.21-.55,2,1.17-1.64-.35,1.8,1-1.52-.21,1.77.91-1.43,0,1.44.95-1.51-.14,1.1.92-1.43-.1,1L20,35.14s-.43,3.32-4.65,2.27Zm3.91-4S15.17,34.64,17.71,30a3.43,3.43,0,0,0,1.59,3.45ZM22,28.76a4.12,4.12,0,0,0,.29,4.11C18.36,31.8,22,28.76,22,28.76Zm-5.56-.31c.54-3.41-3.29-3.4-3.29-3.4,1.21-2.34,2.8-2.24,2.8-2.24l3.49,1.27-2.26-1.75,3.76,1.15-2.67-1.36,3.07.5-2.43-1.06a15.31,15.31,0,0,1,2.91.22c.77,3,4.41,2.84,4.41,2.84A12.71,12.71,0,0,0,26.46,27c-4.84-.83-10,1.5-10,1.5ZM25,19.83l-1.23.72,1.12-.12-1.3,1L25,21.11l-1.27,1.36,1.81-.89L24.24,23l2.19-1.2-1.14,1.39,1.92-1s-2.09,2.49-3.79.49c-1.38-1.63.26-3.05,1.39-3.62l-.59.83.73-.08Zm3.24-4.64.06.48L27,14.59,27.67,16,26.28,15l.91,1.44-1.67-.83,1.54,1.48-1.65-.47,1.52.95-1.21-.17,1.35,1c-1.95.07-2.9-2.8-1.26-3.77C28.26,13.22,29.42,16,29.42,16l-1.23-.78Zm-.53,8.38.51,1.85.34-1.49L29,26.64l.2-2.6.8,2.65L30,24.07l.84,2.21L30.55,24l.87,1.68-.35-2.18L32,25l-.5-2,.79,1.29L32,22.37s1.58,1.81-.7,3.9a4.15,4.15,0,0,1-.53.37c-2.54,1.25-4.08-1.9-3.13-3.07Zm1.56-3.74a1,1,0,0,1,1.31-.68,1.1,1.1,0,1,1-1.31.68ZM33.09,16l1.34-.77-1.08.07,1.77-1.07-1.35.1,1.52-1.1-1.58.35,1.55-1.35-1.53.57,1.55-1.35L34,11.85l1.33-1.3L34.06,11l1.68-1.17s1.27,5.55-3,8.16l.67-.94L32.67,17l1.73-1ZM47.66,5a4.14,4.14,0,0,1-.27,4.18,10.06,10.06,0,0,1-3.52,3.16A5.47,5.47,0,0,0,42.48,14c-.62,1-1.37,2.94-2.69,8.37A5.16,5.16,0,0,1,39,18.16c.71-2.12,1.18-4.12-.27-4.8-1-.49-1.57,1-1.79,1.84a5.51,5.51,0,0,0-.07,1.4,18,18,0,0,0,.57,3.62,20.79,20.79,0,0,0-4-.82,10.45,10.45,0,0,0,2.94-5.33c.64-3.28.36-5.62.94-7.61l.07-.5A40.48,40.48,0,0,1,47.66,5Zm28.2,12.67a5.1,5.1,0,0,1-4.37-.19,7.24,7.24,0,0,0-4-.95,12.37,12.37,0,0,0,3.16-3.45,41.16,41.16,0,0,1,5.18,4.59Zm-6.32-5.4C68.69,15.58,64.37,17,64.37,17a17.23,17.23,0,0,0,.83-2.7c-1.4.66-2.29,3.1-2.29,3.1a12.53,12.53,0,0,1-3.66.17,6.39,6.39,0,0,0,.26-4.23,17.56,17.56,0,0,1-.33-3.74,22.91,22.91,0,0,1-3.33,2.12A8,8,0,0,0,52,17.15c-6.26-1.31-9.2,1.23-9.2,1.23.89-2.4,3.76-3,5.24-5.28s.86-7.62.86-7.62,0-.28,0-.41a38.88,38.88,0,0,1,4.86.61,40.87,40.87,0,0,1,15.81,6.59ZM62.05,33.48l1,.48-.38-.8.92.85-.43-1.15.73,1L64,32.3l.2,1.37.61-1.41-.12,1.46.7-.77L64.89,34l1-.67-.83,1,1.28-.3-1.16.57,1,.16-.84.22,1.18.5-1.47-.11.83.65-1.22-.37.88,1.11L64.52,36,65,37.07l-.78-.88.19,1-.49-.95-.19,1-.08-1-.43.75.23-1-.89,1L63,36l-1,.49,1-1-1.32.42,1.18-.71-1.5-.13,1.33-.36-1.21-.57,1.77.39-1.16-1.06Zm12.06-4.81s4.77.07,2,4.68a4.54,4.54,0,0,0-2-4.68ZM74.55,33a3.47,3.47,0,0,0-2-3.22s3.92-.3,2,3.22Zm-2.21-1.81a1.87,1.87,0,0,1,.33,2.16,2.74,2.74,0,0,0-2.47-1.62s1.16-1.34,2.14-.54ZM79,39.42l-1.06-1.34-.16.9L77,37.34l.1,1.25-1-2.07.25,1.84-1-1.88.21,1.4-1-1.67.35,1.68-1-1.58.27,1.09-.87-1.34.08,1.31-.88-1.18.33,1.35-1.32-1.18.65,1.2-1.22-1.07.6,1.14L70,36.43l1,1.45L69.42,37l.82,1.1-1.35-.73.8,1.08-1.38-.56.81,1-1.47-.5,1.09,1.09-1.29-.37,1.12.83L67,39.66l1.1.79-1-.11.91.76-.75-.21.72.82s-2.54-.79-.42-3.88S77.72,34.43,79,39.42Zm-.92-10.7a3.48,3.48,0,0,1-.52,5.6,7.39,7.39,0,0,0,.52-5.6Zm3,2.06a3,3,0,0,1-1.75,4.45A4.82,4.82,0,0,0,81,30.78Zm1.78,1.33s1.56,2.81-1.49,3.71a6.18,6.18,0,0,0,1.49-3.71Zm1.56,4.34a3.65,3.65,0,0,1,1.79-.05,41,41,0,0,1,1.19,10.54,2.87,2.87,0,0,0-1.87-1,6,6,0,0,1-2.2-.37,2,2,0,0,1-.29-.21c-2.08-1.84-2-3.16-2-3.16a13.88,13.88,0,0,0-.69-4.61c2,0,3-.81,4.05-1.14ZM85,49.37a.7.7,0,0,1-.41-.88.69.69,0,0,1,.88-.41.68.68,0,0,1,.4.87.69.69,0,0,1-.87.42Zm-.35,2a.76.76,0,1,1-1.43-.52.79.79,0,0,1,1-.5.78.78,0,0,1,.44,1Zm-3.87,3-1.21-.67.7.88-1.38-.63L79.8,55l-1.35-.65.85.93-1.42-.55,1,.89L77.41,55l1.26,1.15-1.6-.65,1.2,1-1.18-.3L78,57l-1.28-.46,1,.85-1.19-.43,1,1.1c-.31.12-2.63-.92-.31-3.38s4.5-.68,4.5-.68l-1.44-.22.49.57Zm-4,8.21-.66,1.8,1-1.07-.63,1.55,1-.92-.81,1.39,1-.71-.7,1.1,1-.54L77,66.48,78,66l-1.21,1.34L78,67l-1.23.91L78,67.58l-1.31,1,1.24-.24L76.08,69s1-3.52-.94-5.1-4-1.44-6.36,1l-1.44-1.09,1.77.38L68,62.77l1.58.84-.87-1.51,1.55,1.26-.75-1.66,1.22,1.17-.62-1.45,1.15,1.18L71,61.23l.84,1.23-.09-1.65.86,1.5,0-1.77L73,62.22l.21-1.68.27,1.89L74,60.59l.15,2.1.58-1.57-.06,2,.82-1.72-.31,2.13,1-1.57-.59,2,1.19-1.38Zm-2.74,5.14.7-1.89-1.22,1.43L74,65l-.89,1.56,0-2-.76,1.63.11-1.74-.6,1.63-.29-1.63-.46,2.15L70.74,65l-.07,2-.43-1-.32,1.14S69.61,63.48,72.8,64c3.55.64,2.77,4.15,1.37,4.9l.62-1.59-.72.33Zm-2,1.77a10.21,10.21,0,0,1-1.68,1.17,5.54,5.54,0,0,1,.75-2.14c.65-1,2.13-.17.93,1ZM66.16,71.2c-.9,1.76-.53,2.62-.53,2.62-1.46-.14-2.95,1.5-2.95,1.5a4.34,4.34,0,0,0-.5-2.26c-1.25-1.91-.78-2.9-.78-2.9l2,.46-1.68-2.33L64,69.55C62.57,61,53.82,60,53.82,60c2-6.54,8.7-4.52,9.88-4S65.89,57.7,68,58.22s2.7.72,2.7.72a4.28,4.28,0,0,0-2.31.91c-.61-.32-1.23.47-1.23.47-.66-.07-1,1.15-1,1.15-.47-.07-.8.67-.8.67-.43,1.43,1.09,2.51,1.09,2.51S69,66.6,69.27,68a4.48,4.48,0,0,1-1.92,4.62c.73-3.7-.9-4.56-.9-4.56a3.66,3.66,0,0,1-.29,3.13ZM51.71,56a16.68,16.68,0,0,1,.43-2.66s.28,1.88.26,2.25a5.08,5.08,0,0,1,1,.1S51.8,56,51.71,56Zm.09,1.47a5.82,5.82,0,0,1-2.42.89,27.6,27.6,0,0,1,.74-3.68,21.34,21.34,0,0,1,.13,2.87,11.08,11.08,0,0,0,1.55-.08ZM53,50c-.81-3.86-1.61-3.67-1.62-6.7a7.56,7.56,0,0,1,2.77-6.24,12.44,12.44,0,0,0-1,10c.19.78.39,1.68.39,1.68,6.27-1,8.59-3.39,8.59-3.39-.58,1.63-3.59,3.4-5.91,3.81A14.39,14.39,0,0,0,53,50Zm-8-3.52,2.58-.91-1.7-.06,2.6-1.07L46,44.61l2.12-.91-2,.17,2.47-1.25L46.39,43l2.43-1.49-2.94.81,2.38-1.81-2.59.94,2.09-1.75-2.6,1.07,2-2.06L44.76,40.1l2-2.3-2.58,1.57,1.69-1.92L43.28,39,45,36.76l-2.66,2,1.55-2.34-2.3,2L43,36.52l-2.42,1.82,1.15-1.69L39.65,38.2S42.46,34,46.7,37.07a5.88,5.88,0,0,1,2.7,5.25c-.24,2.42-1.71,5.19-5,5.3l1.65-1-1.1-.14ZM35.79,25.28a17.16,17.16,0,0,0,4.27,1,20,20,0,0,0,1.41,2.31c-7.07,1.54-9.95-.79-10-.8,3.47-2.46,1.59-7,1.67-7.18,5.66-.47,6.42,3.74,6.42,3.74-1-.54-1.3-1.23-2.2-1.84s-2.3-.64-2.77.21.26,1.93,1.24,2.53Zm16.89-4.05L52,23.13l1.21-1.59-.67,2.15,1.43-2L53.33,24l1.14-1.82-.28,1.7,1.1-2.27-.13,1.62.63-1.65a2.52,2.52,0,0,1-2.43,2.74,3,3,0,0,1-1.86-.48c-.77-.75-1.4-2.26.26-3.91l-.44,1.83,1-1-.86,1.81,1.21-1.34Zm4.53-8.65-.56,2.3-.4-1.74L56,15l-.2-1.36-.47,2.1-.37-1.65L54.76,16l-.42-1.3-.14,2.23-.46-1.21-.16,2c-.92-2.35,1.6-4.24,2.57-4.86a21.32,21.32,0,0,1,2-1.12c0,.38.35.8.67,2.22A5.35,5.35,0,0,1,58.29,17V14.93l-.66,1.12.46-2.56-.78,1.7-.09-2.61Zm-1,7a.79.79,0,0,1-1,.42.75.75,0,1,1,.51-1.4.78.78,0,0,1,.53,1Zm-5.79,4.55c2.37,2.56,5.93.34,5.93.34l.51,1.1c-3.57.71-7.73,1.64-7.73,1.64a33.3,33.3,0,0,1-4.33,1,3.67,3.67,0,0,1-3.45-2.69,9.52,9.52,0,0,1,2.48-1.08,8.31,8.31,0,0,0,3.61-3,16.74,16.74,0,0,1,2.36-2.21c-5.66.51-8,2.49-8,2.49,4.26-6.34,10.3-3.37,10.3-3.37-3.6,3.17-2.25,5.17-1.73,5.73Zm6.54,7.94a4.51,4.51,0,0,1-2.34-1.18,6.63,6.63,0,0,1,2.23-1.76,14.75,14.75,0,0,1-1,1.77,6.3,6.3,0,0,1,1.15,1.17Zm-1.55,11.3a3.21,3.21,0,0,1-.63-3.19s.82,3.64,3.93,4.09a3.29,3.29,0,0,1-3.3-.9Zm1.85,2.52a2.55,2.55,0,0,1-2.48,0,2.39,2.39,0,0,1-1-2.42,6.39,6.39,0,0,0,3.51,2.38Zm-6.94-13a9.63,9.63,0,0,1-3.44-.8,12.37,12.37,0,0,1,2.6-2.78,8.68,8.68,0,0,1-1.25,2.16,15.58,15.58,0,0,1,2.09,1.42Zm-5.2.78a19.15,19.15,0,0,1-2.82-.86,13.25,13.25,0,0,1,2.67-2.43,12.07,12.07,0,0,1-1.24,2.22,9.88,9.88,0,0,1,1.39,1.07ZM37.46,44.48A1,1,0,1,1,38,45.7a1,1,0,0,1-.57-1.22ZM40,49s1.47,2.15,0,3.62-3.52.72-4.2.36c0,0,4.42.08,4.23-4Zm.92-2.25s1.92-3.63-1.81-5.22c0,0,2.54-.29,3.24,1.58a3.16,3.16,0,0,1-1.43,3.64ZM50.55,31a15.67,15.67,0,0,1,3-2.11,16.75,16.75,0,0,1-1.89,1.92,15,15,0,0,1,1.59,1.7A15.49,15.49,0,0,1,50.55,31Zm4.13,20.07a12.63,12.63,0,0,1-.23,2.27s1.32.07,1.4,0a8.37,8.37,0,0,1-2.05.31,14.54,14.54,0,0,1,.88-2.63Zm7.12-1.54A5.69,5.69,0,0,0,65,52.37a4.59,4.59,0,0,0,5.66,2.46A2.56,2.56,0,0,0,73.09,56,7.9,7.9,0,0,1,65.9,56c-4-2-4.38-5.79-4.1-6.38Zm15-6c1.33.52,2.31,2.79,2.31,2.79-1-.08-3.2,0-3.2,0a2.69,2.69,0,0,0,.89-2.78ZM70.89,41s1.63-1.59,5-.43S79.21,44,79.21,44a12.38,12.38,0,0,0-8.32-3Zm3.54,3.37a.54.54,0,0,1-.69.31.53.53,0,0,1-.32-.68.54.54,0,0,1,.69-.31.53.53,0,0,1,.32.68Zm-2.07-1.91s-1.16.67-.61,2.95a3.9,3.9,0,0,1-2.31-1.9,5.36,5.36,0,0,1,2.92-1Zm4.32,5.5A5.86,5.86,0,0,1,72,48c-2.72-1-2.71-2.44-2.71-2.44.27.11,5,2.74,7.44,2.38ZM79.54,51s-1.38-2.45,1.69-3.71A7,7,0,0,0,79.54,51Zm1.68-.18a3.48,3.48,0,0,1,1.83-3.2,14.48,14.48,0,0,0-1.83,3.2ZM66.75,43.45l-1.21.94,1,.07L65.25,45l1.3.25L65,45.77l1.81-.07L65,46.5h1.84l-2.22.84,2.57-.15-1.88.7,1.9-.13-2.07,1.16,2.48-.39-2,1.11,2.36-.6-1.85,1.37,2.26-.76L66.94,51,69,50,67.5,51.58l2.32-1.13-1.3,1.4,1.79-1.1-1.17,1.76L71.32,51l-1,1.45,1.73-1.31-.9,1.45,1.51-1.33-.83,1.38,1.74-1.41-.76,1.24,1.7-1.3-.5.74L75.54,51s-4.12,4.41-9.52.17c-2.8-2.2-2.12-7.64.73-7.76Zm-5.66-3.14s-3.54,1-1.85-3.08c0,0,.06,2.6,1.85,3.08Zm-.43,2s-2.47.71-3.59-.78A3.64,3.64,0,0,1,57,37.78s.07,4,3.71,4.51Zm.41-18.75c-1.48,2.05-3.87.62-3.92-.2l2,.58-1.09-1,1.89.66-1.4-1.17,2.18.57L59,21.88l2.09.24-2-.94,2.18.08-2-.78,1.82-.16L59,19.7l1.54-.18L58.73,19s2.36-.53,2.9,1.45a3.38,3.38,0,0,1-.56,3.06Zm-24,24.83a1,1,0,1,1-1.14.72,1,1,0,0,1,1.14-.72Zm-.71,8.54V55.79l1.21,2.45-.14-1.69L38.81,59l-.46-2.37,1.15,2-.4-1.94L40.63,59,40,56.82l1.76,2.23-1.14-2.82,2.07,2.15-1.24-2.46,2,1.87L42,55.33l2.28,1.78-1.62-2.26,2.5,1.67-1.86-2.38,2.11,1.45-1.87-2.35L46,54.71l-2.33-2.4,2.5,1.26-2.22-2L46,52.67l-2.09-2.18,1.81.94L44,49.54s4.47,2.29,1.94,6.86A5.91,5.91,0,0,1,41,59.73c-2.43,0-5.35-1.08-5.84-4.35l1.2,1.53ZM62.74,78.68c-.44-1.35,1.13-4.45,3.7-3.11s3.82-.33,3.82-.33a4,4,0,0,0,3,2,41.43,41.43,0,0,1-7.3,5.08,5.82,5.82,0,0,1-3.2-3.62ZM35.91,6.31c.25,2.14-2,3.88-3.29,4.75S29.79,15,29.79,15a3.63,3.63,0,0,0-3.53-1.68c-3.17.74-2.06,4.8-2.06,4.8a3.56,3.56,0,0,0-2.42,2.64l-2.16-.35,2.21-1-2.35.29L22,18.22l-3.26,1,3.18-2.94L18,19l2-3c-.48.77-4.55,3.84-6.63,5.38A41.61,41.61,0,0,1,35.91,6.31ZM9.76,38.49l.33,1.39.39-.6,0,2L11,40.11l.08,1.71.46-1.15v2.06L12.22,41l.09,1.57.39-1.66.19,1.74.55-1.73.21,2.19.63-1.84.15,1.51.4-1.93.27,1.9.53-2.18.19,2,.53-2.41.22,1.93L17,40l0,1.47L17.65,40s-.07,3.67-4.83,3.48c-4.21-.16-3.06-5-3.06-5Zm7,5.89S13,47.91,9.86,44.11c0,0,4.08,1.58,6.89.27Zm.17,2s-1.9,4.24-5.6,1.27a6.44,6.44,0,0,0,5.6-1.27Zm-4.55,4.64,1,1.32-.41-1.29,1.22,1.85-.45-1.66,1,1.61-.22-1.57,1.25,1.86-.45-1.66.86,1.28L15.68,51l1.39,1.48-.9-2.22L17.8,52.2l-.7-1.93,1.46,1.42-1-1.91,1.5,1.16-1-1.8,1.27,1.21-.94-1.75,1,.68-.62-1.55c.87.27,1.86,3.94-1.59,5.67-3.79,1.92-5.57-2.2-5.57-2.2l.91.64-.2-.78Zm7-5.94a5.33,5.33,0,0,1,.83-5.21c1.44-1.55,3.92-2.65,6.31-.86l-1.7-.23.7.72-2.29-.82,1.17,1L22,39l1.79,1.24-2-.56,1.48,1L21,40.14l1.79,1-2.5-.33,2.5,1.09-2.62-.08,2.32.81-2.39,0,2.39.72-2.52.29,2.44.44-2.58.49,2.64.37-2.2.39,2.63.34-2.42.59,2.94.09-2.32.75,2.65-.07-2,.55,2.66.09-1.7.53,2.28.1a4.35,4.35,0,0,1-5.56-3.2Zm6.67,3.66-1,1.49,1-.34-1.84,1.78,1.49-.65L24,53l2-1.13-1.44,1.59,1.64-.94-1.61,2,1.75-1.24-1.46,2.19L27,53.6,25.74,56l1.83-1.81-1.06,2.25,1.79-1.91L27.42,57,29,54.94l-.72,2.63,1.57-2.31-.65,2.23,1.54-2.31-.55,2.53L31.57,55l-.35,2.5L32.38,55,32,57.08l1.31-2.45L33,56.45l1.14-2.09a4.62,4.62,0,0,1-5.6,3.79c-1.21-.17-3.65-.79-4.57-3.09-.82-2-.72-4.84,2.08-6.28Zm4.73,10.74c4.92,0,6.5,3.39,6.48,5.36s.29,3,1.65,3.68,1.83-.13,3.25,1.67a6.33,6.33,0,0,0,4.61,2.08c1.17,5.74,4.43,7.1,4.43,7.1s-4.28,1.34-11-.59c0,0,3.92-4.85.28-7.36-4.25-2.94-6.61,3.21-6.61,3.21a7.08,7.08,0,0,0-3.09-.93c-4-.5-4.16-2.21-4.16-2.21a3.8,3.8,0,0,0,1.88.16l-1.4-2.56,2,1.72a8,8,0,0,0-2.8-8.19,8.47,8.47,0,0,1-3-6,12.06,12.06,0,0,0,7.55,2.89Zm4.54,22.16.17,2.23.45-2,.87,2.33-.13-2.49.94,1.84-.37-1.88,1.1,1.72-.52-2.35.85,1.28-.39-1.65.8,1.17-.29-1.74A2.61,2.61,0,0,1,38,84.05a4.19,4.19,0,0,1-3,.63c-3.26-.83-.74-4.41-.74-4.41l-.08,2.52.64-1.61,0,2.34.57-1.84ZM36.52,78a.7.7,0,0,1,.72.69.76.76,0,1,1-.72-.69ZM40,77.18l.27-2.51-.93,1.38.64-2.84-1,2,.21-2.93-.84,2.47-.16-2.63-.53,2.64-.46-2.35-.29,2.58-.57-1.76,0,2.29-.59-1.27.07,2.07c-2.18-1.72,1.54-5.48,3.38-4.47,3.65,2,.85,5.38.85,5.38Zm-2.85,8.74a7,7,0,0,0,3.11-6s4.66,1.14,6.64.87a8.8,8.8,0,0,0-3,4.54s4.13-1.28,5-4.64c0,0,4.53-.49,4.84-.61,0,0-.78.6-1.52,3.08a11.62,11.62,0,0,1-2.79,4,41.13,41.13,0,0,1-10.75-.58c-.71-.14-1.4-.28-2.09-.45l.65-.28ZM11.35,24.36V26a7.68,7.68,0,0,0-1,8.26c-2.74,4.85-1.94,7.83-1.91,8.59s1,4.06,1.42,6.33.38,4-1.14,7.11.28,4.26,1.23,6A4.85,4.85,0,0,1,10,66,40.54,40.54,0,0,1,5.69,38.8a41.6,41.6,0,0,1,5.66-14.44Zm.76,45a4.73,4.73,0,0,0,1.58-.4s-.09,2.3,3.91,4.68c0,0-.9-2.57-.68-3.55a16.18,16.18,0,0,1,2.16,2.28,11.17,11.17,0,0,0-1.27-7.46c-2.14-3.64-3.72-2.94-2.12-7.55,0,0-.5,2.81,2.9,5.28a3.33,3.33,0,0,1,1.6,2.74,3.56,3.56,0,0,0,3.11,3,3.54,3.54,0,0,0,2.12,2.36S23.2,79.88,32.18,81.4a14,14,0,0,0,0,3.52A41,41,0,0,1,12.11,69.38Z"/></g></g></svg>