<svg xmlns="http://www.w3.org/2000/svg" viewBox="0 0 221.57 221.57"><defs><style>.cls-1{fill:#e52827;}</style></defs><g id="Layer_2" data-name="Layer 2"><g id="Vector_Graphics" data-name="Vector Graphics"><path class="cls-1" d="M16.56,169.1A110.81,110.81,0,1,1,169.1,205,110.94,110.94,0,0,1,16.56,169.1Zm167-19.49s-1.75,5.45,4.75,5.68c0,0-3.61-2.25-4.75-5.68Zm9.16,2.84s-2.87-.5-5.66-4.54c0,0-.77,3,1.08,4.29a3.9,3.9,0,0,0,4.58.25ZM207.22,89c-2.12,1.92-5.86,5.91-7,10.9,0,0,1,.53,4-1.79,0,0-3.51,5.43-5.11,7.36s-4,6-4.4,13.79a53.52,53.52,0,0,1,14.8-14.06A98.24,98.24,0,0,0,207.22,89Zm-48.65,99,4.49-.1L158.67,190H163l-4.66,1.72,2.17.29-3.16,1.49s8.77,1.82,8.42-6.73c-.18-4.43-7.33-6.77-10.29-3.07l4.54-1-3,2.19,4.37-.85-3.21,2.34,4.68-.91L158.57,188Zm-8.24,1.37s-.93-.94-11.38,4S128,198.27,128,198.27s6.95,2,22.33-8.93Zm13.82-12.52,2.74-.64L164,179.1c2.74.29,7.17-4.79,4.63-8.34-4.29-6-10.47.42-10.47.42l3.84-1.33-1.63,2.06,3.89-2.18-2.21,2.65,4.26-2.16-2.87,3.28,3.35-1.37-3,2.76,3.72-1.14-3.45,3.07Zm-19.34-31.61a12.66,12.66,0,0,1-8.67-4.78c-.52,3.12-5.1,7-5.1,7,4.4-.05,7.72,4.19,7.72,4.19.88-4,6.05-6.42,6.05-6.42Zm13.84-21.51c.26.42,1.6,3.9,1.6,3.9l-3-2.93,1.82,3.88-3.16-3.4,1.61,4.48-3.12-3.54,1.69,4.43L153,125.9l.67,3.9-2.2-3.54.95,4-2.5-4.4.13,2.83-2.86-4S147,134.17,157,133c5.55-.64,5.77-7.06,4.34-8.63L160,122.51l1.19,3.81s-2.81-3-2.55-2.62Zm20.09-15s8.83,4.67,12.54,8.78c0,0,.62-10.87,1.34-13.64s4.71-14.81-1.46-25.91l3.27,2.65s-1.29-7.36-4.46-11.35c0,0,5.31,2.54,10.66,13.45l2.12-8.25a99.65,99.65,0,0,0-7.89-15.68,98.21,98.21,0,0,0-27-28.69c.05,2.33-.7,11.57-16.21,8,0,0,5.34,8.81,4.94,12.67,0,0,8.8-2.82,12.24,4.54,2.88,6.15-3.26,9.6-3.26,9.6s-3.23,2.7-2.09,4,4.91,2.09,8.95-.41c0,0-3,6.55-10.57,2.12,0,0,1.37,4.86-.56,9.08a22.76,22.76,0,0,1,17,12.79s1.27-2.65-1.62-7.51c0,0,2.49.44,3.29,9.27a27.84,27.84,0,0,0,1.05-10s1.78,2.87.32,9.94a15.68,15.68,0,0,0,3.56-5.93s-1.63,7.54-3.25,9.24a23.2,23.2,0,0,0,4.68-3.72s-2.6,3.71-3.91,5.35c0,0,5.3,9-3.71,9.63Zm-.9,3.82s-1,3.52,4.11,11,8.92,12,9.92,13.2c0,0-2.78-15.41-14-24.18Zm15.55,19.28c3.63-13.32-11.82-18.9-11.82-18.9,2.18.51,11.82,18.9,11.82,18.9Zm.54-21.9s2.9-7.74,4-10.51,4-10.37.15-15.94c0,0-1.43,10.67-2.36,14.63s-2.09,7.93-1.78,11.82ZM122,12.59a11.11,11.11,0,0,1-.23,11.22A26.38,26.38,0,0,1,147.83,32c11.56,12.66,22.08-1.3,13.89-3.35-4.83-1.21-7.79,3.42-7.79,3.42s-.22-3,5.77-7.07l.06-.12A99.43,99.43,0,0,0,122,12.59ZM79.31,17a10.52,10.52,0,0,0-2.85,1.36s5,2,7.65,8.78c0,0,9.73-3.11,5.51-8.42-2.56-3.22-6.74-2.82-9.7-1.92l-.61.2Zm-40.92,53c14.17-1.19,20-10.49,20-10.49-8.22.08-9.82-6.27-9.82-6.27a11.57,11.57,0,0,1-5.89-.09c1.45,11-4.25,16.85-4.25,16.85Zm-5-7.29A4.62,4.62,0,0,0,29,60.85c-1.05.19-4.73,4.22.16,7.6s8.55-2.38,8.55-2.38c-3-1.15-2.7-1.36-4.26-3.31Zm48.65,6.49a33.23,33.23,0,0,1,3.18,6.65s10.41,2.88,20.58-.85,20.54,7.22,35.83,6.49c0,0-21.61-8.18-29.27-20.92-6.18-10.3-10-13.29-15.69-15.93a41.65,41.65,0,0,1-8.09.11s2.49,12.68-6.08,20.67c0,0-2.08,1.17-.46,3.78ZM21.88,105.33l-4.69,2.79,3-3.61-4.65,1.71,3.79-2.93-5.44.45,3.51-2-3.51-.4,3.71-.78-4.88-1.87a11.25,11.25,0,0,0,5.69,11.28c8.12,4.52,14-5.14,14-5.14L28.75,108l.23-1.89-3.23,3.63,1.35-3.29-3.54,3.71,1.52-3.39-3.86,3.55,2-3.91-3.8,2.7,2.46-3.74ZM17.93,87.85l.16-4.65,1.39,3.57.67-5.89L21,85.47l.83-5.06.83,3.8,1.59-4.6L24,84.53,27,78.88l-1.2,6.34,3-4.54-2,5.87s3.32-4.62,3.58-4.78S28,87.19,28,87.19L30.49,85l-4.18,7.94c-.56,2.1.71,1,.71,1,2.81-5.82,5.45-6.43,6.29-8.67,2.3-6.08-5.47-9.78-9.41-8-11.4,5-7.47,13.71-7.47,13.71l.23-5.27,1.27,2.25Zm34.24,73.2s-3.92,4.77-.66,7.41,7-1.53,7-1.53l-3.67,1.23L56.76,166l-3.21,1.41L55.29,165l-2.84,1.64,1.82-3.1-2.33,1.32,1.41-2.62-1.61,1,.43-2.13Zm15,5.85S60.79,164.23,53.72,156c0,0,1.37,9.17,13.49,10.88Zm23.32,17.15,5.34-3.43-4.36,4.45,6.3-3.2c-.33.79-5.61,4.87-5.61,4.87l6.4-1.51c-1.19,1.08-6.19,3.36-6.19,3.36.93.37,6.92-.31,6.92-.31a63,63,0,0,1-6.51,2.28c.84.41,6.41.57,6.41.57-.84.53-6.09,1.09-6.09,1.09,1.6.88,7.06,1.23,7.06,1.23-2.37.88-8,.28-8,.28,7.3,5.39,17.54,2.54,17.54,2.54l-6-.39,5.18-1.23-6.73-1.08,6.3-.75-3.64-1.36,3.45-.27-5.76-2.14,5.31.09a40.39,40.39,0,0,0-15-13.45l-4.15,7.22,5.23-5.1-3.48,6.24Zm23.06,5.42-2.68-3,3.87,1.91A32.4,32.4,0,0,1,119.39,178c3.32-4.61,5-10.69,3.54-15.94a15.94,15.94,0,0,1,.12-9.4s-10.72,4.89-20.25,2.87c0,0-.41,8.75-4.84,12.89a21.24,21.24,0,0,0,10.48,4.13c6.19.59,4.39,4.27,3.56,4.43s-.52.67-4.74.26c0,0,6.21,1.75,5.78,3.88s-5.32.62-5.32.62,4.45,4.93,1.42,6.81c0,0,3.41,3.25,5.09,3.14,0,0-2.31-2.42-3.09-3.1l2.45.93Zm3.44-.27a81.79,81.79,0,0,1,7-10.37c4.43-5.66,3.37-12.82,3.37-12.82a96.13,96.13,0,0,1-6.46,13.1c-3.16,4.86-4.36,8.76-3.89,10.09Zm-26.67-31-1.07-3.42,2.21.74-2.29-3.13,2.75.86-2.43-3.16,2.3.32-2.65-2.78,2-.1-2.36-1.56,2.54-.41-2.87-1.25,2.69-.74-3.5-1.33,2.54-1-3.18-.6,2.38-1.24-3.25-.55,1.94-1.2-2.89,0,2.18-1.94L84,136l2.43-1.73-3.75.34L85,132.44l-4.2.73,2-2.19-4.06.78,1.46-2L76.37,131l2.09-2.46-3.77,1.64.5-3.34-2.78,4.17s20.07,1.91,15.7,27.81l1.29.95-.55-2.58,1.51.93Zm50.84-35.54-3.27,4.7,1.28-4.52-3.82,4.93,1.59-5-3.81,4.58,2.39-5.56L131.27,126l2.75-5-4.74,4.21,3.26-5.86-4.09,3.58,3.16-4.87-4.67,3.36,3-4.9-2.93,2,2-3.42-2.33,1.32,1.63-3.22s-9.38,7.35,0,14.55c6.65,5.09,14.31-2.1,14.52-3.28l.54-2.32-2.9,3.78.72-3.35Zm11.66-9.79-3.8,1.77,2.17-2.51-4.13,2,2.53-2.5-5.09,2.33,3.14-3.22-4.59,2.37,2.69-3.18-5.2,2.52,2.95-3.34-4.36,2,2.85-2.93-5.24,2.08,3.58-3.62-4.74,2.12,4.06-3.79L135,106.62l3.79-3.28-5.55,1.57,4.34-3.15L133,103l4.18-3-4.91,1.29,4.32-3.37-4.26,1.58,4.45-3.34-4.33,1.29,4.92-3.16-3.44.84,2.45-3.38s-9.79,3.38-4.85,14.19,18.94,11,23.33,7.94l-2.85.48.85-1.46Zm12.68-8.31a7.27,7.27,0,0,0-5.28,3.15,6.68,6.68,0,0,0,5.28-3.15ZM158,99.78a8.2,8.2,0,0,0,5.8.72s-3.34-2-5.8-.72Zm7.58-.74s.63-2.37-4.71-2.91c0,0,2.19,2.61,4.71,2.91Zm-7.9,5.13s2,1.11,5.82-1.15c0,0-1.34-2-5.82,1.15Zm-9.09-35.4s3.65,2.87,6.23,1.39,0-2.94,0-2.94c-1.11-.48-6.24-3.48-6.66-8.7s6.12-7.05,6.12-7.05a13.9,13.9,0,0,0-3.82-9.75c.41.09-2.64,3.84-4.21,4.12-9.45,1.66-7.14-7-7.14-7-.15,8.6,14.44,4.12,6.7-5.19-10.89-13.09-24.65-7.24-24.65-7.24C112.34,41.53,100,43.94,100,43.94c11.81,10.41,24.34,3.32,36.77,18.74,13.54,16.79,22.28,16,22.28,16a16.1,16.1,0,0,1-.22-8.84c-6.71,6.49-10.25-1.11-10.25-1.11ZM154.38,62l-1.81-3.31,2.85,2.55-1.89-4.19,3.1,2.74L155.79,56l2.07,3.14V54.84l1.82,3.88.34-3.59,1.31,3.62.87-3.1.35,5.26s.92-3,1.14-2.69S165,61.27,165,61.27s3.4-6.82-6.17-7.72c-8.66-.82-7.62,9.15-5,9.84l-1.28-2.82L154.38,62Zm4.15,1.51A1.74,1.74,0,1,0,161,64a1.78,1.78,0,0,0-2.47-.51Zm-56.4-39.8a56.47,56.47,0,0,0-9-5c1.28,5.85-3.82,10.41-3.82,10.41s4.52,3.15,3.75,7a9.23,9.23,0,0,1-4,5.75c23.56,1.15,28.82-15.39,28.82-15.39-3.58,1.75-11,.42-15.69-2.76Zm15.74-10c-1.56-.44-5.79.44-4.67,4.52,1.23,4.44-.75,6.87-.75,6.87,11.77-1.69,7.61-10.78,5.42-11.39ZM73.53,49.82s4.37,5.92,10.27.4-3.09-9.51-4-9.65c0,0-1.53,7.12-6.28,9.25ZM90.16,37c3.09-5.18-5.66-8.39-6.74-7.13,0,0-1.59,5.53-3.88,7.29,0,0,6.77,6.29,10.62-.16Zm50,38-6-.4,3.4-1.28-6,0,3.14-1.71-4.88.22,2.86-1.41H126.3l4.08-2.06-5,0,2.82-1.28-6.29-.19,3.85-1.68-6.53-.39,4.4-1.56-5.69-.9L121.14,61,116,60.24l4.26-1-5.69-1.48,4.51-.81-5.41-1.2,4-1s-4.59-2.52-6.31-1.92c0,0,3.23,16.53,28.53,24.64l2.69-.73-4.68-.6,2.16-1.22ZM85,77.7c-.38,2.22-4.09,3.94-4.09,3.94s1.33.45,14.32,5.81C116.62,96.3,130.4,89,130.4,89A74.46,74.46,0,0,1,85,77.7Zm46.67,6.67-3.93.44,1.22-1.8L124,85.46l1.59-2.5-4.84,2.53L122.6,83l-4.37,2.36,1.41-2.62-4.44,2.63,2.22-3-5.57,2.87,2.72-3-5.32,2.71,2.06-3.25-5.25,2.43,3-3.34-4.62,2.16,2-3s-5.28,2.57-5,2.42,3-3.17,3-3.17l-5,2.28L101.28,79l-6,1.62S109.13,91,131.63,84.37Zm-10.81,16.24-4.11.33,4.59-2.37-3.53.32,3.9-2.18-3.46.62,3.06-2s-11,1.63-7.74,11.21c2.07,6.17,10.37,6.4,13.42,2.29l-5.75,1.82,3.61-2.82-5.88,1.42,4.38-3.29-5.37,1.11,4.29-2.66-4.51.81,4.38-2.71-6.19.92,4.91-2.81Zm-14.68,20.16,4-2.94-5.59,1.71,4.56-3.18-5.57,1.35,4.73-3.27-5.12,1,4.21-2.61-4.42.76,4.69-2.78-4.28.43,3.69-2.51-5.26.92,5.21-2.88-4.48.68,4.74-2.71-5.28.71,5.52-3-3.17.33,4.16-2.69a26.29,26.29,0,0,0-3,.36c-.25.16,3.23-3.63,3.23-3.63s-13.16,6.41-6.74,21.31c8,18.66,22.41,15.49,22.41,15.49l1.74-1-4.17.6,2.16-2.16-3.45,1.21,2.35-2-4.4,1.55,3-3-4.31,1.51,2.21-2.07-5.1,2.11,3.9-3.12-6,1.84,4.1-3.36-5.16,2,3.91-3.47-6.12,2.15,4.85-3.46-5.47,1.52,3.39-2.8L106.48,123l4.81-3.33-5.15,1.09Zm4.53,19,3-2.67-6.4,2.45,3.83-3.42-6.66,2.61,3.52-3.35-5.39,2.4,3.59-3.61-5.89,2.35,4.25-3.67-5.44,2.31,3.92-3.47-6.11,2.38,4.37-3.87-5.61,2.43,4.11-3.71-6.57,2.55,4.54-4.33-5.1,2.11L96.7,126l-6.11,1.81,4.87-3.61-5.82,1.51,4.66-3.58-6,1.61L93.66,120l-6.31,1.69,5.44-3.83L86,119.05l5.86-3.16-5.13.38L91.55,114l-5.62.34,5.62-2.78-4.64.42L92,109.46,86.3,110l5.86-2.58-5,.19L92.65,105l-6,.23L92.83,103l-3.07-.43,5.18-1.81-4.53-.34,5.75-1.81-3.83-.55L98,96.46l-2.6-.25L101,93.65S80,94.9,84.2,118.27c3.63,20.37,26.08,24.06,29.82,21.63l2.72-1.45-6.07,1.31ZM141.6,87.87l3.2-.12-1.07-1,3-.31-1.07-1,3,.21L147.26,84l2.27.46-1-1.61,3.24,1.27-1.26-2L154,83.94l-.91-1.65,3.22,1.62-.72-1.54L159,85l-.5-1.55,2.78,2.24-.42-1.26,3.54,1.77c-11.81-13.43-22.77,1.63-22.77,1.63Zm4.15,2.56c1.88,2.1,5.92,1.46,5.92,1.46-1.25-1.44-.57-3.73-.57-3.73-2.31,0-5.35,2.27-5.35,2.27ZM156.39,88a4.09,4.09,0,0,1-.28,3.32c3.33-.09,4.43-1.7,4.43-1.7-2.7-2.29-4.15-1.62-4.15-1.62Zm-9.57,5.81s4.86,4.09,12.28-.5c0,0-8.51,1-12.28.5ZM84.58,145.43c-1.68-14-15.32-11.38-15.32-11.38,9.71.63,15.32,11.38,15.32,11.38Zm-16-7.14C71.19,149.4,82,148.56,82,148.56c-2.87-13.49-13.35-10.27-13.35-10.27Zm13.87,13.56s-12,1.63-12,12.35c0,0,12.7-.75,12-12.35Zm-1.08,10.69a9.93,9.93,0,0,0,4.21-12s-2.82,10.14-4.21,12ZM98.84,157,97,155.55l1.46,3.88L96,157.61l1.43,4-2.4-2,1.32,3.26-2.79-2.23,1.18,3.23-2.92-2.28,1.54,2.67-2.57-1.32,1.09,1.76-2.52-.3s3.47,3.91,7.63-.87,2.12-8.43,1.34-9.69l.55,3.15ZM63.15,187.83s2.77,2.59.6,4.17S58.41,190,58.41,190a11.29,11.29,0,0,1-2.9.57s7.41,8,22.17-1.43L71.75,188l5.58-.77-4.42-1.7,4.49.49-7.14-4.21,7.53,2.57-4.48-5.16,5.12,3.37L74.85,177l4.93,4.76-2.58-6.79,4.37,6.49-1.35-7.08,3.34,6.9-.25-8.12,2.09,7.33,1.17-6.2.78,6.16,3.42-6-5.41-3.29c3.94-7-4-5.47-5.81-4.68a81.11,81.11,0,0,1-12.78,2.9c-2.65.23-10.37-.58-11.75,4.35s6.9,8.32,7.65,8.79,5.12,1.49,4.32,4-3.84,1.33-3.84,1.33Zm4.76-23.58c.17-12.34-11.15-10.47-11.15-10.47a14.19,14.19,0,0,0,11.15,10.47Zm-4.88-12c3.18.24,6.28,5.43,6.28,5.43.53-4.41,7.62-7.28,7.62-7.28-3.49-.17-8.37-5.42-8.37-5.42C68,150,63,152.24,63,152.24Zm3.13-13.59c-10.73,3.37-10,12.83-10,12.83,12.39-1.26,10-12.83,10-12.83Zm-2.66-3.72C52,139,53.1,149.75,53.1,149.75c4-11.44,10.4-14.82,10.4-14.82ZM50.87,140.3a3,3,0,1,0-1.07,3.93,2.88,2.88,0,0,0,1.07-3.93Zm28.35-17.08-3.52-1.55,2.66-.6-5-1,3.25-1-4.46-.62L76,117.2l-4.77-.55,3.87-1.46L69.49,115l4.75-1.54-5-.61,4.56-1.3-4.67-.38,5.17-1.45-4.84-.85,5.23-1.14-6.45-1,6.86-1.34-5.39-.62,5.91-1.56-5.32-.67,5.24-1.15-4.81-1,5.94-.76-5.14-1.72,6.12-.29-4.42-1.11,5.48-.36-4.35-1.39,5.29-.12L75.8,93.4l5.59-.19-3.11-1.46H84.1l-4-1.82,5.44.13L84,89.36l3.66-.86c-1.1-.84-19.34-3.19-21.09,15.26s12.63,19.46,12.63,19.46Zm-17.78,7,1.32-2.57-3.09,2.73,1-2.85-3.55,4.06,1.19-4.11-3,3.83,1.54-4.1-3.13,3.8,1.71-4.78-4.54,4.9,2.44-5.47-4.88,4.54,2.73-5.19-4.4,4,2.53-4.94-4.71,3.5,3-4.91-4.78,3.77,3.34-5.33-5.36,4.14,3.76-5.59-4.29,3.23L44,117.65l-5,3.8,3.76-5.24-5,2.77,4.3-5.1-4.47,2.76,4-5s-4.88,2.66-4.54,2.45,4.18-4.92,4.18-4.92l-4.88,2.67,4.3-5.11-4.17,2.12,4.9-4.9-4,1.52,5.59-5.09-3.06,1.08L42.57,97s-14.9,9.68-4.63,27c8.15,13.72,21.47,8.51,23.5,6.32ZM48.2,102.67c-2.11,13.09,15.35,23.48,20.28,20.9l-3.29-.41,2.4-1.6-5.47.59,4-2.23-5.88.84,3.87-2.4-5.8.8L62.05,117l-4.5.45,4-2.45-5.58.77,4-2.45-5.19.65,4.52-2.68-6.21.7,5.47-2.46-6.31.17,4.7-2.2L50.78,107l6.27-1.55-5.77-.85,5.57-1.35-5.07-.48,5.76-1.23-6-1.06,7.09-1.35-6-.48,5.88-1.43L53,96l6.47-.85L54.3,93.89l6-.82-4.61-1.23,6.51-.41-4-1.15,6.06-.37-4.46-1.56,5.92,0L62,86.78l5.84-.36-2.3-.9,4.3-1.15s-18-4.1-21.66,18.3ZM83,74c-2-1.69-4.36-5.92-4.36-5.92-1.85,1.14-7.89,8.14-2.76,10.79S83,74,83,74Zm-3-9.43C85.26,61.43,88,55,86.81,50c0,0-4.08,6.6-11.65,4.53a8.85,8.85,0,0,1-4.3,6c-3.85,2.26-8,.2-8,.2S64.19,65,72.46,70.87A26.3,26.3,0,0,1,80,64.58Zm-8.89-7.2a4.63,4.63,0,0,0-.25-7.19s-5.08-.11-6.56-1.18c0,0-1,7.39-2.22,8.84,0,0,5.21,3.53,9-.47Zm-9.31-10s-5.08,2.91-9.7.53c0,0-3.15,8.55,4.07,9,6.31.41,5.63-9.55,5.63-9.55ZM49,44.12c-2.1-4-1.5-6.18-1.52-8.85,0,0-8.23,5.11-5.26,13.16,2.42,6.55,9.36.62,6.78-4.31Zm12-16s.07,5.2,4.22,6c0,0-.55-4.55-4.22-6Zm8.83-1.26a7.68,7.68,0,0,0-6.41-.76,6.88,6.88,0,0,0,6.41.76ZM58.15,29.39A4.93,4.93,0,0,0,57,35.17s2-1.92,1.15-5.78ZM74.89,21.7,71.7,23.33l4.58-.51-4,1.88,5.89-.27-5,2.06,5.57.51-4.61,1.22L78.8,29l-4.59.86,4.12.83-4.67.55,3.53,1.55-4.48-.26L76,34.64l-3.65-.07,3.45,2.76-3.73-.95,3.24,2.41-3.48-1.1,4,3.38-5.19-2.38L74.69,43l-5.08-2.57L72,45.2l-4.54-4.53,2,4.22-4.66-5.27.8,3.93L62.7,38.34,62.9,43l-2.19-4.48-.24,4.7-1.43-4-.57,5.48-1-4.71-1.17,4.33-.81-4.51-1.15,4,.06-5.17-2.26,3.5.76-5.37L51.14,38.5l.7-5.09c-.56,1.16-3.84,6.22.13,10.76s10.29-.32,10.29-.32,4.47,6.09,10.06,3.45c7.83-3.7,4-11.66,4-11.66s7.72-3.73,4-10.43-11-3.67-11-3.67l5.57.16ZM90.55,14a69.22,69.22,0,0,1,10.59,6.61c7.16,5.36,10.31,2.35,10.34-.23s-2-5.89,1-8.43A98.7,98.7,0,0,0,90.55,14Zm89.26,89.84a1.89,1.89,0,1,0-.72,2.43,1.79,1.79,0,0,0,.72-2.43Zm-71.15,43.23-2.37,4.26L106,148l-2.67,3.4s9.43,8.27,27.87-8.63c0,0,2-4.63,1.59-5.53l-2.19,5.32-.63-3.1-.84,4.48-.73-3.63-1.55,5-.22-3.94L125.08,147l-.67-4.48-2,5.93-.26-3.8-2.17,5-.06-4.05L117.52,151l.35-4.52L115,152.14l.38-4.66-3.06,5,1-4.8L110,152.06l.78-4.57-2.85,4.8.72-5.22Zm37.7-15.18,2.95,4.58-3.93-2.57,3,4.66-3.93-3.51,2,5.43-4.18-4.87,1.62,5-3.37-4.32.49,2.49-2.1-3,.54,2-2.69-2.65c2.22,7.72,8.91,8.77,11.28,6.54,6.1-5.76-1.65-9.82-1.65-9.82ZM130.51,150c-8.23.49-5.68,9.46-5.68,9.46l.65-5.54,1.39,3-.1-4.48,1.67,3.63-.05-4.4,1.71,4.65.21-4.56,1.35,4.06,0-3.25,1.4,3.57-.05-3.47,1,4.14.68-3.8s.59,4.53.74,4.78.68-1.93.68-1.93l1.11,2.92c.79-.6.36-9.2-6.72-8.77Zm9.91,7.15,1.19-4.47.86,3.08.95-5.25.56,4.67,1.68-5,0,4.76,2.12-4.11-.41,4.8,2.12-4.11-.33,4.74,1.68-3.13.64,3.68s2.47-8.06-3-8.76c-9.38-1.22-8.12,9.1-8.12,9.1Zm-7.19,8.53s-3.88,9.74-5.92,12.29-7.28,8-7.53,12.12c0,0,17.29-18.39,13.45-24.41Zm-7.79,22.07s17.57-16.24,15.05-20.5c0,0-14.47,18-15.05,20.5Zm27.16-27.3,3.6-3.4-1.34,3.28,3.71-3.23-2.39,4.63,4.23-3.9s-2.42,4.17-2.76,4.5l0,0,0,0c.32-.28,3.39-2.56,3.39-2.56l-3,4.41,4.08-2.64-2.65,3.63,1.81-.66-.52,1.6c2-.67,6.21-6.52.39-9.91s-8.56,4.25-8.56,4.25Zm-7,9.94s-15.7,16.24-15.69,16.82c0,0,11.05-7.19,15.69-16.82Zm-15.5,19.38s14.31-3.61,19.86-16.48c0,0-16.39,14.57-19.86,16.48Zm21.4-9.86s-17.31,12.34-22.07,14.24c0,0,14.47-2.78,22.07-14.24Zm-39.12,23.05-4.74,3.63,3.4-4.67-5.48,3.39,4.1-4.87-5.67,2.7,4.93-4.45C96,201.53,84.17,190,84.17,190c-2.92,1.12-9.59,3.15-9.59,3.15l8.8-1-6.54,2.42,7.19-.25-7.44,1.92,6.5.53-6.73,1.36,8.8.85-8.84,1.16,5.78.85-7.82,1.72a99.44,99.44,0,0,0,36.05,7l4.25-6.32L109.89,207l2.47-4.09ZM26.71,162.83a98.36,98.36,0,0,0,22.59,25.4c0-8.74-6.11-11.58-8.93-17.25s.53-5.92,3.59-7.47,10.93-2.39-3.79-21.95-8.85-31.24-8.85-31.24c-10.74,6.83-17,.24-19.31-3.29a98.29,98.29,0,0,0,14.7,55.8ZM17.5,98.25,14,91c-.34,1.66-.64,3.32-.89,5a20.87,20.87,0,0,0,4.42,2.31Zm14.82-22c3.74,2,4,9,2.27,11.47-.49.69-6.34,4.92-4.08,7.54s6.88-.45,8.14-1.25c3.35-2.13,8.82-9.19,18.42-13.27a24.71,24.71,0,0,1,15.81-.81,10.93,10.93,0,0,1-1-6L60.15,61.71s-6.48,7.05-15.73,9.62c-8.5,2.37-19.53,2.06-19.76-9.07a100.25,100.25,0,0,0-6.89,15.11c2.57-1.58,8.5-4.34,14.55-1.11Zm-4.8-18.78c1.74,0,4.32.28,5.54,1.89,1.92,2.54,5.69,6.74,6.71,1.44.95-4.86,1.08-10.39,0-18.84A97.47,97.47,0,0,0,27.52,57.48ZM204.36,78.83c-.94,2.9-2.3,7.79-1.76,10.44l4-2.78c-.65-2.57-1.41-5.13-2.28-7.66Zm-9.27,58s5.62-8.61,8.36-23.59c0,0-8.8,3.11-8.36,23.59Zm7.4-11.58c-1.29,5.46-6.63,15.65-8.13,16.81,0,0,13.28-5.66,12.12-29.18a111.08,111.08,0,0,0-4,12.37Zm-15.41,9.19c-6.45-8.82-11.39-14.45-12.19-25,0,0,.1,4.49-5.09,3.27s-9.12,4.08-6.75,9.42c1.89,4.27,1.74,5.7,8.79,8.3l.06,0a32.35,32.35,0,0,0,3.34.59c1.17.17,2.43.35,3.45.52,2.78.46,5.76,1.48,5.8,3.76,0,0,.52,1-1.55,2.19,0,0,3.12.8,2.59,2.29s-4.2,1.14-4.2,1.14l.52,1.78s3.66-.87,7.92,2.91c0,0,3.77-2.39-2.69-11.22ZM180,151.18s-1.71,6.18,4.15,6a19.8,19.8,0,0,1-4.15-6Zm-2.12,10.22c-.46.29-3.89,4.92-3.89,4.92s2.28-3.74,2.21-10.46,3.09-10.25,3.09-10.25c-.46.29-1.77-.7-2.14-1.11a17.06,17.06,0,0,0-8.63-6.78,18.26,18.26,0,0,0-10.29-.34,14.5,14.5,0,0,1,7.14,5.32c1.71-.07,8.44.36,8.76,2.38s-2.88,2.13-2.88,2.13a5.82,5.82,0,0,1,2.57,4.06c.08,2-3.46,1.56-3.46,1.56.55.89.58,3.95-.57,3.5-4.19-1.63-3.67-6.12-7.66-7.85s-9.17-.79-9.17-.79a12.46,12.46,0,0,1,1.58,6.13s6.42-2.34,10,2.54a8.84,8.84,0,0,1,.7,9.6c5.38,1.27,6.52,6.86,6.52,6.86a17.71,17.71,0,0,0,6.1-11.42Zm3.69,11.89a35.7,35.7,0,0,1,5.37-6.94,44.85,44.85,0,0,0-10.46,9.27s3.58-6.65,4.89-7.92c0,0-7.51,6.51-9.38,7.43,0,0-2.71,5.41-6.78,6.76a13.17,13.17,0,0,1,2.43,9.81,98.1,98.1,0,0,0,25.39-26,33,33,0,0,0-11.46,7.59Zm-25.48,22.29c-2.24-.6-5.08-2-16.35,2.78s-16.86,1.93-16.86,1.93,3.38,6.41,3.22,6.16-3.72-3.75-3.72-3.75l1.36,4.63-2.57-3.77.47,4.72-1.78-4.38-1.2,4.83-.49-4.36-1.79,4.26-.39-3.26-3,4.25a98.17,98.17,0,0,0,47-13.06c-1.28-.31-2.81-.68-3.9-1Zm53.57-85.9-.6.9s-1.43,13.12-3.93,21.89-12.17,14.42-12.93,14.88c0,0,5.23,1,8.44,4.68a99.72,99.72,0,0,0,9-42.35Z"/></g></g></svg>