<svg xmlns="http://www.w3.org/2000/svg" viewBox="0 0 92.32 92.32"><defs><style>.cls-1{fill:#FFB200;}</style></defs><g id="Layer_2" data-name="Layer 2"><g id="Vector_Graphics" data-name="Vector Graphics"><path class="cls-1" d="M46.16,0A46.16,46.16,0,1,0,92.32,46.16,46.22,46.22,0,0,0,46.16,0ZM5,46.16c0-.71,0-1.42,0-2.13.07-.28.11-.46.11-.46.09.32,1,2.15,1,2.15A8.32,8.32,0,0,1,5,47.12c0-.32,0-.64,0-1ZM84.85,60.29a9.91,9.91,0,0,1-3.19-.44,26.74,26.74,0,0,1,4.1-2.36c-.27.95-.58,1.88-.91,2.8ZM56.68,86a3.93,3.93,0,0,0-1-.78l1.15-.66a16.62,16.62,0,0,1,3.31-1.22l-1.73-.86,3.33-1.35a5.05,5.05,0,0,0,3.38.39l-2.27-1c.83-.59,5.76-4.18,5.76-4.18.31.14.53.85.53.85.6,1.58,1.79,1.5,1.79,1.5a2.59,2.59,0,0,1-.73-1.88,5.26,5.26,0,0,0-.61-1.26c1.62.53,4.55.13,5.42,0A41.13,41.13,0,0,1,56.68,86ZM36.22,82c-4.42-4.27-7.48-1.72-7.48-1.72-2.84-.84-3.92-1.4-4.38-1.89s-1.34-2.07.13-2.63.83,2,.83,2c1.19-.08,1.4-1.61,1.4-1.61,3.85,1.08,11.16.88,11.16.88a5.17,5.17,0,0,0-1.66,5ZM8.09,33.64,6.92,35.38l1-.83-1.19,2,1-.69-.85,1.51.88-.84-.78,1.58.89-.86L7,38.88l1-1.11-.87,2.06.92-1.06-.87,2,1.1-1.28-.94,2.05,1.14-1.3-.73,2,1-1.23-.57,1.86,1.17-1.44L8.91,43.3,10,41.76l-.56,1.78L10.63,42l-.33,2.1L11.45,42,11.24,44,12.15,42l-.24,1.83,1-2-.19,2,.86-1.89,0,.88.75-1.07a4.53,4.53,0,0,1-1.08,2.19,4.34,4.34,0,0,1-2.63.87A3.8,3.8,0,0,1,7.34,42.4a12.47,12.47,0,0,1-1.12-5.15,9.25,9.25,0,0,1,1.85-5.11l-.76,2,.78-.47ZM17,24.79l-1.57.68.94.07-1.85.82,1.24,0-2,.82,1.64-.09-2.53,1.09,1.9-.28-2,.94,1.72-.12-2.2,1L14,29.48l-2,.94,1.88-.15-2,1.11L13.73,31,11.9,32l1.78-.24-2.06,1.12,2.12-.29L12,33.55,14,33.33l-1.88,1.12,2.25-.5-2.12,1.26,2.44-.55L12.8,35.94,15,35.33l-1.75,1.43L15.62,36,13.9,37.43l2.44-1-1.71,1.7L17,37,15.4,38.52l2.15-1.1-1.26,1.49,2.07-1.14-.62,1,1.73-.95-.25.47,1.09-.18a5.16,5.16,0,0,1-7.09-.5,8,8,0,0,1-2-4.75,8.61,8.61,0,0,1,6.58-9.15l-1.32.95.54.11Zm4.87-11.56a3.64,3.64,0,0,0,.47-.65A41.09,41.09,0,0,1,35.15,6.47a6.11,6.11,0,0,0,.74,4.19c-4.65.06-6.48,1-8.76,2.74a8.65,8.65,0,0,1-3.85,1.89s-1.33.39-1.78-.35-.14-1.18.36-1.71Zm50,46.11a7.25,7.25,0,0,0-2.13-.14L69.13,58a8.26,8.26,0,0,0,2.05.21,7.17,7.17,0,0,1-1.83-.83,16.78,16.78,0,0,0,1.76.1,5.68,5.68,0,0,1-1.7-.8,7.35,7.35,0,0,0,1.93-.13,6.91,6.91,0,0,1-1.68-.69l1.51-.26S66.54,54.06,66,51.8A10.32,10.32,0,0,1,70,53a22.29,22.29,0,0,0,2.32,1.13L71,52.85l1.37.41-1.26-1.08,1.48.24-.85-.71,1.23.2a16.53,16.53,0,0,0,.29,3.72,6,6,0,0,1-1.8-1.34s.86,3.56.47,5.05Zm-.44,4a13.94,13.94,0,0,1-1-1.72l1.23.16-.23,1.56Zm-.93,7.06c-1.42-2.48-.64-7-.64-7a5.68,5.68,0,0,1,1.6,3.16,6.52,6.52,0,0,1-1,3.81ZM58.72,79.3l2.34-2.61a12.8,12.8,0,0,1-1.38-.24,22.74,22.74,0,0,0,2.62-3,17.76,17.76,0,0,1-2.08,0A5.91,5.91,0,0,0,60.81,69a26.1,26.1,0,0,0,4.37-4.26s-.23,5.93,2.71,10c0,0-2.25,3.49-8.71,6.06L61,79.13a13.86,13.86,0,0,0-2.3.17Zm-3.58,7a3.33,3.33,0,0,1-3.06-.8,3,3,0,0,1,3.06.8Zm-1.56-6.41s1,1-.24,3a3.09,3.09,0,0,1,.24-3Zm.64,4a6.07,6.07,0,0,1,3.24-.78s-.47,1.39-3.24.78Zm.43-7.62c1.59,2.21.47,3.41.47,3.41a8.15,8.15,0,0,1-.47-3.41Zm1,5.83a2.9,2.9,0,0,1,2.46-1.76s0,1.46-2.46,1.76Zm1.51-8c.7,1.31-.69,3.22-.69,3.22-.39-1.22.69-3.22.69-3.22Zm-.46,5.3s.12-1.34,2.28-2c0,0-.17,1-2.28,2ZM26.34,58.66a4.64,4.64,0,0,1-4.6-.55,3.32,3.32,0,0,1-1.35-3.69,6.27,6.27,0,0,0,5.95,4.24Zm-5.81-8.27a.74.74,0,1,1,.36,1,.73.73,0,0,1-.36-1Zm2.89-12.46-.08,1.49.93-1.36.16,1.42L25,38.33l.1,1.05.58-.93-.1,1.09.75-.93-.19,1.13,1-1.13-.43,1.5L27.88,39l-.35,1.26.91-.82L28,40.78l1.27-1.07L28.52,41l1.11-.73-.55,1.37,1.33-1L29.71,42l1.09-.77-.69,1.17,1-.57-.43.84.94-.46-.51.94,1.29-.54-.91,1.2,1.28-.36-.92.92L33.31,44l-1,.94,1.33-.31-.87.8,1.3-.25L33,46.05l1.49-.3-1.27.93,1.42-.14-1.11.73L35,47.13l-1.22.74,1.47,0L34,48.46l1.33,0-1.14.43,1.66.16-2.35.42a11.24,11.24,0,0,0-4.95-7.31c-4.27-2.64-6.72-2.62-6.72-2.62l.78-1-.14.87.94-1.4ZM38.74,8.81l.72,1.87V8.88l.77,1.61-.09-1.57,1,1.68-.3-1.85.92,1.51-.32-1.54,1.06,1.37L42,8.38l1,1.19-.45-1.4.83.89L43,7.13l.67.87-.1-1.41c1.27,2.45-.51,4.53-3.65,4.5a3.67,3.67,0,0,1-3.55-3.24l1,1.22.15-.69.46,1.46L38,8.64l.73,1.91V8.81ZM55.27,16c3.28.62,4-1.31,4-1.31a17.67,17.67,0,0,0,3.4,4.14s-2.85-.44-3.51.67c-2,2.61,2.54,8.15,2.54,8.15-.59-.08-2.79-2.19-4-3.71a7.36,7.36,0,0,0-3-2.18c2.1-2.45.54-5.76.54-5.76ZM77.94,47.64,79,49.4l-.39-1.89a6.57,6.57,0,0,1-.69,8,11.87,11.87,0,0,1-.6-3.58,16.63,16.63,0,0,1,.43-3.06l.94,1.55-.77-2.79Zm.56-2.58,2.13-2.15L78.76,44l1.62-2-1.71,1.18,1.25-2.75L78.3,42.65l.62-2.3-1.39,2.44s-1-7.67-4.06-10.9c0,0,6.6,1.91,8.54,7.51s-.4,7.91-1.49,9.62a19.8,19.8,0,0,0-2-4Zm-12.19-11-1-.13.44.44L65,34.09l.16.35-.83-.11a5.32,5.32,0,0,1,5.24-1.79c3.5.63,3.62,4.58,3.62,4.58l-.56-1-.28.19L72,34.42l-.24.9-.45-1.6-.05,1.18-.69-1.67,0,1.09L69.8,33l0,.94-1.14-1.1.2.75-1.16-.78.45.91L67,33l.65.77-1.11-.38.42.57-1.17-.37.54.53Zm-25,8.18-2.39.06,1.64.49L38.37,43l1.69.38-2,.24,2,.46-2.1.33,2,.38-2,.44,2.17.4-2.71.73,2.45,0L38,47l2.42,0-2.32.78,2.75-.09-1.75.49,1.71.05L39,48.78l2.86-.18-2,.75,2.51.14L41.36,50l2,.26c-2.44,1.21-7.31-1.72-6.48-5.84s5.49-3.1,5.49-3.1l-2.06.56,1,.39Zm-2.45-4.45a5.46,5.46,0,0,1-.37-6.56c2.67-4.57,7.81-2,7.81-2L43.42,29l1.2.78-2.56-.48,1.35.74-2.55-.33,1.94,1-2.75-.43,2,.84-2.84-.16,2.19.79-2.28-.17,1.87.74-2.45.06,2.2.62-2.37.1,2.4.72-2.62.32,2.71.45-2.18.36,2.24.32-2.36.52L41,36l-2.55.53,3.23.31-2,.45,2.32.16-2.26.74,3,0-1.92.55,2.76.27-1.3.32,1.84.28c-2.87.87-5.25-1.75-5.25-1.75Zm9.71,4.47L47,42.42l.85.34-2,.21,1.5.45-2,.29,1.5.38-2.21.46,2,.24L44,45.54l2.62,0-2,.68,1.92,0-2.2.71,2.43-.06-2,.75,2.31-.09-2,1.07,2.6-.46-2.1,1.11,2.68-.57-1.77,1.17,2.1-.61-1.37.9,2.28-.47-1.35.58L50.42,50c-.16.08-4.94,2.38-6.66-3.19-.59-6.38,4.83-4.53,4.83-4.53ZM46.1,36.6c-.61-4.74,5.75-4.89,5.75-4.89l-1.22.46.69.36-1.8-.15,1.07.53-2,0,1.46.58-2,.1,1.46.52-2.24.26,2,.42-2.77.49,2.61.2-2,.49,1.91.14-2.25.5,2.42.17-2,.57,2.31.12-2.12.87L50,38.17l-2.2.9,2.72-.31-1.86,1,2.14-.42-1.45.78,2.31-.26-1.39.45,2.22.08c-.17.06-5.14,1.91-6.34-3.79Zm6.65,5.91-.4,2.1.79-.72-1,2.17,1.16-1.26-.85,2.06,1.09-1.36-.66,1.9,1.3-1.61-.63,2,1.21-1.61-.49,2,1.31-1.78-.52,2.75,1-2.21-.26,2,1.08-2.16-.3,2.42,1.12-2.52-.33,1.8L58.21,47,58,48.79l1.09-2.65-.48,2.43,1.08-2.14c.12,3.26-3.17,4.93-6.52,2.38s-.39-6.3-.39-6.3ZM58.88,32l-1.15.67.67.28-1.54.18,1.25.28L56.24,34l1.33.28-1.81.47,1.63.21-1.87.58,1.68.13L55,36.51l1.88.12-1.68.84,2.06-.1-1.59.81L57.53,38l-1.38.77,1.42-.2-1.61,1,2.13-.45-1.66,1.3,1.93-.41-1.2,1.06L59,40.61l-1.33,1.07,2.06-.63-1.25,1.18,2-.8-1.2,1.21,2-.83L60,43.14l2-.92-.93,1.09L63,42.43l-.73.87,1.24-.56-.17.37,1.88-.4c-.9.89-4,1-5,.79s-5.6-2.4-5.58-6.87A4.35,4.35,0,0,1,58.88,32ZM55.5,28.25a1.38,1.38,0,0,1-.3-1.8,1.73,1.73,0,0,1,1.67-.95,3.08,3.08,0,0,0-1.37,2.75Zm2.31,1.51a1.34,1.34,0,0,1,.7-2.37,2.59,2.59,0,0,0-.7,2.37Zm2.33.72a1.39,1.39,0,0,1-.21-1.17,1.41,1.41,0,0,1,1.14-.65,2.25,2.25,0,0,0-.93,1.82Zm2.11-7.34a1.62,1.62,0,0,1,2,.14,3,3,0,0,0-2.55,1.79,1.71,1.71,0,0,1,.56-1.93Zm-1.86-.77a2.35,2.35,0,0,1,.91-2,2,2,0,0,1,2.33.16,4.91,4.91,0,0,0-3.24,1.84Zm4.44,3.24a1.89,1.89,0,0,0-1.55,1.25s-.28-.9.26-1.3,1.29.05,1.29.05ZM61.76,36.87a.28.28,0,0,1,.15.37.28.28,0,0,1-.38.11.29.29,0,0,1-.16-.37.3.3,0,0,1,.39-.11ZM58.64,53l1.16.69L59.45,53l1.34.68-1-1.29,1.55.73-.77-.92,1.49.57-1.21-1.17,1.42.53-1-1,1.06.4-1.12-1.17.72.25-.28-.78s2.54,2.36.22,3.85a4.38,4.38,0,0,1-5-.92l2,.8L58.64,53Zm2.49-6.64,1,1.13.08-.75.66,1.43,0-1.18.8,1.35L63.56,47l.88,1.3L64.22,47l.84,1-.23-1.36.52.66-.08-.91.38.36.21-.73a2.1,2.1,0,0,1-1.66,2.73c-2.31.49-3.07-2.32-3.07-2.32Zm5.8-10.6-.21-.06s2.88-1.6,4.82,2.24c0,0-2-2.92-4.61-2.18Zm3.28,2.54a.52.52,0,0,1-.71.2.49.49,0,1,1,.41-.87.51.51,0,0,1,.3.67Zm-1.47-1.87s-.7.78-.65,1.27A5.72,5.72,0,0,0,66.54,37a3.86,3.86,0,0,1,2.2-.53Zm-1.08,9.72c.13-.07.57-1.58,3.25-1.29,0,0,.92.81,1.68.47l-2.11,2.61,2.06-1.52-1.22,2.48,2.16-2.32-.62,2.58,1.51-2.8.18,2.86.5-2.63.41,1.58.07-2s.52-.12,1.07.79c0,0,.44.44-.42,4.61a11.25,11.25,0,0,0-2.7-2.62,12.19,12.19,0,0,1-.37,2,5.7,5.7,0,0,1-4.72-1.39c-1.91-1.93-.85-3.28-.73-3.36ZM76,44.33A2.5,2.5,0,0,1,74.28,42c2.51,1,2,1.23,2,1.23A4.39,4.39,0,0,0,75,42.85a11.08,11.08,0,0,1,1,1.48ZM73.91,57.72c.42.58.53,1.53.88,1.73a11.44,11.44,0,0,0-1.7-.19,13.8,13.8,0,0,1-.21-2.45,3.48,3.48,0,0,1,1,.91Zm.49-1.85a7.41,7.41,0,0,1-.05-4.75c4.44,4.21,2,8.55,2,8.55a12.72,12.72,0,0,1-2-3.8Zm3.35-23.34A6.51,6.51,0,0,1,82.1,35a5.61,5.61,0,0,1,1.18,5,25.08,25.08,0,0,0-5.53-7.42ZM73.59,21.34a18.83,18.83,0,0,0,4.32,7.25,18.64,18.64,0,0,1,2.54,3.74c-8.33-5.53-6.86-11-6.86-11Zm3.12,9.86A31.91,31.91,0,0,1,71.76,30c-.45-.12-4.9-1.39-5.28-4.9s-1-4.4-1-4.4c2,.25,6.34,3.83,7.74,6.06a32.8,32.8,0,0,0,3.47,4.42ZM64.3,18.59a10.83,10.83,0,0,1-4.81-6.51c1.08,2.28,5.49,5.4,6.55,6A25.81,25.81,0,0,1,71.32,23c-.46-.42-3.78-2.2-7-4.39Zm-9.47,5a2.93,2.93,0,0,0-1.63,2.81s-.78-1.31-.14-2.22a1.69,1.69,0,0,1,1.77-.59Zm-1.13-2.3a1.53,1.53,0,0,1-2.46-.75c-.36-.93.6-2.08.6-2.08a1.84,1.84,0,0,0-1.42,2.63,5.19,5.19,0,0,0,1.42,1.92c-3.51,3.76,4,7.58,4,7.58-4.31.61-11.31-4.36-13.33-6.12a52.3,52.3,0,0,0-6.86-4.35,2.29,2.29,0,0,0,1.71-2.08,2.57,2.57,0,0,0,2.32,2.21c2.13.28,2.71-2.43,2.71-2.43.4.71,1.76,3.19,4.44,2.37a2.74,2.74,0,0,0,2-3.36c.21-.07,1.58-.47,1.74-1.61.43-3.79-4.09-4.43-4.09-4.43,3.62-.83,7,3.48,7.76,5.4s.66,4.34-.53,5.1Zm-12.56-8.4a.7.7,0,1,1,.33,1,.69.69,0,0,1-.33-1Zm7.64,0-1.65-.18.69.67-1.6-.51,1,.9-2-.68,1.2.91-2-.53,1.35.95L44.08,14l1.47,1-1.82-.27,1.67,1-1.82-.13,1.65.85-1.65-.19,1.91,1-1.55-.11,1.34.78-.79,0,.92.78a3.09,3.09,0,0,1-1.92-4.17c1.13-3.41,5-1.92,5.29-1.57ZM38,13.69c3.13-.09,3.14,4.39,2.84,4.36l-.44-1.36-.35.53.08-1.63-.67,1.18.17-2.18L39,16.11V14.22l-.65,1.68-.07-1.84-.62,1.75-.18-1.54-.41,1.54-.29-1.45L36.44,16l-.34-1.28-.38,1.7-.26-1-.66,1.46s-.41-3.07,3.23-3.16Zm2.38,12-2-.46.83.74-1.79-.56,1.13.77-2.43-.66,1.39,1-2.69-.72,1.61,1.08-2.69-.62,2.07,1.12-2.92-.58L35.15,28l-2.76-.54,2.4,1.24L32,28.11l2.12,1.24L31.2,28.9,34,30.25l-2.84-.47,2.73,1.29-3-.21,2.6,1.05-2.82-.29,2.69,1.13H30.67l2.75.92-2.65.11,2.7.75-2.34.25,2.5.59L31,35.73l2.83.54-2.18.43,2.46.22-1.9.42,3.06.3L33,38.1l2.93.41-2,.2,2.57.8C31,39.58,30,34,30,34S29,28.83,33.14,26s7.27-.32,7.27-.32ZM24.6,42.35a4.27,4.27,0,0,1,3,3.16c.64,2.63-2,4.2-2,4.2a5.16,5.16,0,0,0-1-7.36Zm3.08,11.21c1.88-.75,3.13-3.7,3.13-3.7.18.57-.4,3.64-2.54,4.64s-4.65-.88-4.65-.88a7,7,0,0,0,4.06-.06Zm-3.61,8.9,1.76,1.38-.59-1.2,1.56,1.29-.56-1L27.82,64l-.89-1.25,1.65,1-1-1.12,1.8.8L28.32,62.2l1.61.8-1-1,1.85.59L29.5,61.36l1.7.62L30,60.9l1.58.47-1.15-1,1.38.32-1.3-1.07,1.6.43-1.16-1,1.24.41-1.53-1.37,1.38.41-1.05-1,.66.26-1-1.47S34.75,59,31,63s-8.32-.73-8.32-.73l1.42.63-.07-.45Zm9.62,2.78L33,64.82l1.22.07-.66-.45,1.24.12L34,63.85,35,64l-.82-.62,1.11.11-1.18-.65,1.18,0-1-.82.72.06-.73-.71a2.06,2.06,0,0,1,1.55,2.49c-.53,2.41-3.5,1.73-3.5,1.73l1.38-.37Zm.41-8.42a6.94,6.94,0,0,1,.22-4.2l.76.55-.59.18,1,.63-1.12,0,1.14.54-1.12.21,1.17.65-1.3.22,1.28.42-1.17.32,1.34.5-1,.32,1.21.29-1.06.38,1.39.29-.87.37,1,.32-.67.15.72.43s-1.83.25-2.34-2.59Zm1.38-5.09,1.61-.35-.53.82,1.62-.49-1,1.22L39,52.35l-.88,1.16,1.73-.9L38.9,54l1.93-1-.93,1.28,1.76-1.16-.85,1.59,1.71-1.28L42,54.79,43.5,53.3l-.64,1.64,1.63-1.4L43.87,55l1.56-1.53L44.92,55l1.46-1.63L45.91,55l1.52-1.83L47,54.88l1.23-1.73L48,54.62l1.24-1.73-.14,1.37,1.42-1.83-.32,1.37,1.1-1.56-.33,1.19,1.3-1.57-.35,1,1.34-1c-.25.63-3.89,4.32-9.75,3.78s-8-3.87-8-3.87ZM43.06,65.5,44.28,65l-1.16-.17,1.15-.39L43,64.15l.78-.28-.94-.45s1.83-.15,2,1.08-1.71,1.65-1.71,1.65l.29-.51-.3-.14Zm-1.49-3.71c-2.86.17-4-.85-4-.85a33.15,33.15,0,0,0,5.84-.39A8.65,8.65,0,0,1,49,61.94a39.29,39.29,0,0,0-7.38-.15Zm-3.08,3.59,1.22-.54-1.17-.18,1.16-.38L38.38,64l.78-.28-.95-.45s1.84-.15,2,1.08S38.5,66,38.5,66l.29-.51-.3-.14Zm.95-6.82,1.21-.41-1.17-.27,1.08-.32-1.15-.22,1-.34-1.05-.32.76-.33-1.44-.49s2.22-.39,2.5,1.36a2,2,0,0,1-2,2.31l.79-.78-.6-.19Zm4,0,1.22-.54-1.16-.18,1.15-.38-1.32-.25.78-.28-.94-.45s1.83-.15,2,1.08-1.71,1.65-1.71,1.65l.29-.51-.3-.14Zm4,1,.73-.66-.6-.2,1.16-.3-1.15-.31,1-.23-1.13-.26,1-.25-1-.33.73-.27-1.43-.51s2.15-.24,2.51,1.35-1.19,1.94-1.81,2Zm-3.2,8.79c.23.11.42,1.17,1.39.87s0-1.57,0-1.57c.8.37,1,2.14,2.09,1.61,1.3-.85-.74-2.85-.74-2.85.73.07,1.69,1.14,1.69,1.14.46.78,1,.54,1,.54.87-1.53-1.61-3.05-1.61-3.05,1.54-.18,2,1.5,2,1.5s.16.84,1.1.45a2,2,0,0,0-.07-2.64.73.73,0,0,1-.13-.17l.13.17c.24.25.8.61,1.67-.15,1.18-1-.75-3.13-.26-2.83a6.1,6.1,0,0,1,1.15,1.24s.63.57.94.37C55.82,62.2,53,59.42,53,59.42c1.65.92,2,.27,2,.27.61-2.91-4.42-4.46-4.42-4.46L54.8,53c2.6,3,4.14,2.72,8.5,3s5,3.71,5,3.71c-5.28,2.37-4.85,3.82-12,8.72s-16.6,5.22-16.6,5.22c-.35-5-2.51-6.37-2.51-6.37,4.67-.48,6.94,1,6.94,1Zm24.62-6.49a41.57,41.57,0,0,1-.19,4.21,14.41,14.41,0,0,0-2.45-2.45,4.41,4.41,0,0,1,2.64-1.76ZM59.3,72.48a3.09,3.09,0,0,1,.49-2.69s.86.91-.49,2.69ZM60.44,74a3.22,3.22,0,0,1-2.28,2,3.2,3.2,0,0,1,2.28-2Zm6.13-8.36S71,68.52,68.82,73.4a11.75,11.75,0,0,1-2.25-7.77Zm6.22-3.87a6.61,6.61,0,0,1,2.28.66A3.9,3.9,0,0,1,74,64.19a12.29,12.29,0,0,0-1.1,1.24c-.35-.63-.12-3.67-.12-3.67ZM76.21,63c1.62,1.18,1.73,2,1.73,2a12,12,0,0,0-4,1.29A9.1,9.1,0,0,0,76.21,63Zm1-2.8a6,6,0,0,1,2.53-2.87,5.8,5.8,0,0,1,4.87-.52,12.44,12.44,0,0,1-7.4,3.39Zm1.82-3.86c1.14-5.13,7.31-5.41,7.31-5.41-3.56,4.75-7.31,5.41-7.31,5.41Zm1.68-4.59c.34-4.46,5.37-8.2,5.37-8.2-1.7,6.84-5.23,8.19-5.37,8.2ZM84,43.66s1.88-7.07-1.93-10.4a23.31,23.31,0,0,0-3.54-5.59c-2.24-2.56-4.91-7.21-3.61-11A41.18,41.18,0,0,1,87,40.44c-.25.6-1.29,2.86-3,3.22ZM72,22.28c-4.5-4.9-5.65-5.1-9.32-8.5a9,9,0,0,1-3.17-6.57,41.16,41.16,0,0,1,14.19,8.38A27.09,27.09,0,0,0,72,22.28ZM58.35,10.74c-2.4-.57-3.43.36-3.43.36a3.59,3.59,0,0,1,2.52.53,1.69,1.69,0,0,1,0,3.14c-1.13.54-2.44,0-4.63-2.26-4.32-4.4-7.95-2.5-7.95-2.5a5.25,5.25,0,0,0-.12-5c.47,0,.93,0,1.4,0A41,41,0,0,1,58.1,6.74a11.57,11.57,0,0,0,.25,4ZM40.86,5.31A5.13,5.13,0,0,0,40,6.8a5.28,5.28,0,0,0-1.55-1.1c.8-.16,1.6-.29,2.41-.39ZM28.62,14c3.43-4,8.5-1.75,8.5-1.75-6.27,3.25-3.61,7-3.61,7-1.31-.25-2.76-.4-2.76-.4A2.62,2.62,0,0,0,31,15.3c-.7,3.84-2.56,2.41-2.56,2.41s-1.68-1.52.23-3.71Zm4.31,7.48-2.59-.32,1,.77-2.2-.77,1.72,1.27-2.8-1.12,1.82,1.21-2.85-.86L29,22.84l-2.62-.69,2.1,1.27-3.34-.85L27.81,24l-3.26-.88L27,24.47l-2.88-.67L26.5,25l-3.37-.65,3,1.45-3.46-.63,2.7,1.21-3.09-.45L25,27.1l-3.59-.41L24.74,28l-3.42-.33,3.33,1.12L21.56,29l2.66.56H21.34l3.49.92-3.26.13,2.91.68-2.43.07,2.71.72-2.6.23,3.16.66-2.27.25,2.82.5-2.58.38,2.85.44-1.82.18,2.4.44-1.67.08L27.7,36s-3.87.56-6.25-4c-2.34-5.34,1.38-8.52,1.38-8.52,5.14-5,10.1-2,10.1-2ZM21.06,43.07a4.56,4.56,0,0,1,2,4.33c-2.11-4.82-5.93-4.74-5.93-4.74s1.55-1.29,4,.41Zm-2.93,8.72c-2.88,5,1,7.72,1,7.72-6-3.31-1-7.72-1-7.72Zm-4.5,2.91s-1.16-6.07,4.8-5.61a5.53,5.53,0,0,0-4.8,5.61ZM13.36,47s3.77-3.81,6.5.43a5.91,5.91,0,0,0-6.5-.43Zm-6.9,2.54c.7-2.52,3.48-1.62,3.48-1.62-1.38.49-1.77.72-2.29,1.52s.22,2.26,1.08,2.21.59-1,.59-1c.09-1,.86-.56.86-.56s.59.14.43,1.21a2.1,2.1,0,0,1-2.54,1.05,2.31,2.31,0,0,1-1.61-2.77Zm4.1,6s3.56,6.77,10.91,7.79c0,0,2,4,10.3,3.89a2.18,2.18,0,0,0-.61,3c1.22,1.74,3.39.08,3.6-.75,0,0-2.65,1.2-2.65-.37s2.38-1.61,2.83-1.4a5.68,5.68,0,0,1,3.6,5.92s-4,1.66-16.14-3.09c-2.07-.81-13.09-6.6-11.84-15Zm27,25.2a3.32,3.32,0,0,1,3.53-3.38c.62,0,3.55.43,2.79,3.22S41,81.61,41,81.61s-.23,2.07,2.79,1.46c0,0,1.56-.37,1.74-3.21s-2-2.8-1.45-3a39.77,39.77,0,0,0,14.46-6.5,20.58,20.58,0,0,0-.67,3.2s-.59-1-.75-1.37a9.89,9.89,0,0,0-1.62,3.54A19.3,19.3,0,0,0,54,74.39a14.25,14.25,0,0,0-.31,3.7,9.55,9.55,0,0,0-1-1.12,10,10,0,0,1-.31,2.82,20,20,0,0,0-1-2,14.63,14.63,0,0,0-1.56,7S45.17,87.19,42,86.29s-4.53-2.37-4.43-5.61Zm13.78,3.5s-1.06-1.13,0-3.88c0,0,.69,3.11,0,3.88ZM50.62,86a3.42,3.42,0,0,0,1.18,1,42.61,42.61,0,0,1-5.58.39c1.44-.4,4.4-1.35,4.4-1.35ZM70.39,74.29a20.37,20.37,0,0,1,2.33-2.19,5.91,5.91,0,0,0,5,.13c-3.74,3.51-7.32,2.06-7.32,2.06ZM76.69,71c-2.14,1-2.85.05-2.85.05.7-.32,4.6-2.78,4.6-2.78A3.12,3.12,0,0,1,76.69,71Zm-5,.17c1.21-4.71,6.8-5,6.8-5a1,1,0,0,1,.16.44c-2.29,2.4-7,4.54-7,4.54Zm6.54-9.83c1.39-.8,4.45,0,4.45,0a15.92,15.92,0,0,1-2.82,1.86,9.72,9.72,0,0,0-1.63-1.85Zm5.14-6c.38-.24,2.68-2.35,3.58-3.18-.18,1.28-.43,2.54-.73,3.78a6.67,6.67,0,0,1-2.85-.6Zm1-5.38A33.09,33.09,0,0,0,87.3,44.2c0,.65,0,1.3,0,2,0,1.19-.06,2.37-.16,3.53a8.75,8.75,0,0,0-2.82.22Zm-64-35.82c.68,4.07,6.24,1.3,6.24,1.3a2.92,2.92,0,0,0,.88,3.24,18.09,18.09,0,0,0-6.78,1c-5.84,2.06-9.51,6.07-11,7.49a41.63,41.63,0,0,1,10.71-13ZM10.46,66.33A25.59,25.59,0,0,0,23.1,75a2.07,2.07,0,0,0-.68,1.14A3.74,3.74,0,0,0,20.26,75c-.94,0-1.85.93-2.16,1.29a41.43,41.43,0,0,1-6.24-7.35c-.87-1.5-1.4-2.6-1.4-2.6ZM20.93,78.69a2.6,2.6,0,0,0,.37-1.43,3.26,3.26,0,0,1-1.57.46l-.41-.34a1.14,1.14,0,0,1,0-.28c0-1.33,1.62-1.37,2.66.05s3.09,4,6.18,4.36a3.6,3.6,0,0,0-.1,1.63,41.3,41.3,0,0,1-7.1-4.45Zm8.17,3.23c1.56-3.31,5.92.2,7,1.58s2.39,3.08,2.39,3.08l0,0a41.64,41.64,0,0,1-6-1.62c.75-1.23.61-1.63.61-1.63,0-1.71-2.82-1.8-2.23-1.66s.92,1.08.92,1.08c.46,1.07-.19,1.53-.87,1.61l-1.25-.52a1.84,1.84,0,0,1-.52-2Zm51.23-17.8c.72-1.06,3.27-2,3.9-2.25a41.29,41.29,0,0,1-2.69,5.36,8,8,0,0,0-1.21-3.11Z"/></g></g></svg>