<svg xmlns="http://www.w3.org/2000/svg" viewBox="0 0 92.32 92.32"><defs><style>.cls-1{fill:#FFB200;}</style></defs><g id="Layer_2" data-name="Layer 2"><g id="Vector_Graphics" data-name="Vector Graphics"><path class="cls-1" d="M55.68,1A46.15,46.15,0,1,0,91.32,55.68,46.2,46.2,0,0,0,55.68,1ZM24.06,37.83l2.62-2-2.43,1a11.37,11.37,0,0,1,8.6-3l-4.07,1.78,4.54-.44-3.67,1.38L33.48,36l-3.8,1.66,4.11-.8-3.34,1.59,3.25-.74-3.2,1.87,3.74-1.22-3.12,2.13,3.64-1.37-2.84,2,3.29-1.22-2.85,1.94,3.88-1.32a19.22,19.22,0,0,0-7.5,5.55L31,42.6l-2.84,2,2.37-2.73-2.73,1.86,2.57-2.83-3.31,2,2.38-2.42-2.8,1.67,2.45-2.31-2.82,1.6L29.11,39l-3.43,1.71,2.51-2.17L25.39,40l3.14-2.6-3.34,1.76L27.93,37l-3.18,1.43,3-2.2-3.71,1.59Zm53.15-9.09a2.18,2.18,0,0,1,2.08,2.07L78.56,30l0,.63-1.1-1.22.46,1.21L76.58,29.3l.65,1.31-1-.9.53,1.17-.75-.5.46,1-1-.36.5.47-1.35-.32L75.7,32l-1.44-.22,1.12.73H74l1.39.46-1.49.13,1.57.39-1.53.27,1.65.35-1.35.28,1.91.28s-1.37.21-1.37.21l1.66.28s-2.82.94-3.61-1.8c-.44-1.51.57-2.85,1.51-2.87a2.7,2.7,0,0,1,1.37.22s-.07-2.13,1.55-2ZM56.91,85.91a8,8,0,0,1,2.25-8.28,2,2,0,0,0,2.2-.48s-.5,4,4.73,5a41,41,0,0,1-9.18,3.73ZM47.6,87.32l-1-2.9-1.44-1,1.95-.8L53,84.26l1.42,1-.67-1.21-3.13-1.86,3,0,1.63,2L55,85.87l-.06.53a41.18,41.18,0,0,1-7.3.92ZM34.17,73.4c-4,1.31-6.19-.48-6.19-.48s-1.12-1.24-.19-1.79,1.09,1.19,1.09,1.19a1.46,1.46,0,0,0-.79-2.18C26.42,69.56,25.93,72,25.93,72a5.87,5.87,0,0,1-.58-2.32,11.11,11.11,0,0,0-3.63-6.47l1.76-6.67-.62,5.92,1.55-4.34-.92,4.93,1.69-4-.79,4.83,2-4.71-1.09,5,1.74-4.15-.75,4.08L27.55,61l-.67,4.79,1.5-4.27L28,66.27l1.44-4.84-.32,4.37,1.14-4.46-.31,5L31.07,62l-.5,3.74,1.15-3.21-.42,2.13,1.15-2.17-1,2.86,1.61-2.67-.93,2L33.66,63,32,65.49l2.21-2.22-1.8,2.59,1.76-1.44-1.3,1.76,1.9-1.39-1.16,1.39,1.53-.83-1.15,1.19,1.58-.86-1.33,1.08,1.67-.59-1.35,1.24,2.12-1-1.45,1.44,2.25-1.1L36,68.42l2.1-1.2-1,1.2,1.6-1L37.29,69l2.39-1.43-1.49,1.56,2.36-1.24L39,69.35l2.22-1.09-2.4,2.13,2.35-1L39,71.06l2.35-1L39.5,71.39l1.61-.64-2,1.19,2.61-.66-1.6,1A39.56,39.56,0,0,0,36,73a7.28,7.28,0,0,0-3.72-1,6.3,6.3,0,0,0,1.88,1.46ZM26.85,49.08a41.39,41.39,0,0,1-2,4.48c-.23-2.48,2-4.48,2-4.48Zm1.25,1.23c-.6,1.29-2,4.65-2,4.65a4.84,4.84,0,0,1,2-4.65ZM25.35,33.52l2.22-1.23-2.24.55,2-1-2.24.44L27.34,31l-2.19.4,1.89-1-1.92.38,2.07-.88-2.25.16,2.41-1-2.45.44,2.29-1.16-2.28.49a5.85,5.85,0,0,1,3-1.29c2.79-.57,4,.9,4,.9a19,19,0,0,0-3.54.12,18.35,18.35,0,0,1,3.41.7,15,15,0,0,0-3.8.46,14.39,14.39,0,0,1,3.47.37,14.67,14.67,0,0,0-3.29.62,16.52,16.52,0,0,1,3.32,0l-3.17.8,3.31-.05-2.57.71L31.76,32l-2.21.51,2.71.22c-2.37-.17-6.51,1.55-6.51,1.55l1.92-1.38-2.32.59Zm-2.27-5.46a13,13,0,0,1-8.86.57L31,15.92a7,7,0,0,0,2.23,1.79L30,26.33s-2.19-.33-6.93,1.73ZM21.36,37.2s-3,2.09-4.19,2.77c0,0,1.52-2.83,4.19-2.77Zm.7-6.89s-4,2-7.39-.51a40.46,40.46,0,0,0,7.39.51Zm.17,13.9S20.76,46,20,46.17c0,0,.86-1.71,2.26-2Zm9.1-17.91L34.27,18a8.11,8.11,0,0,0,1.92.28l0,12a14.58,14.58,0,0,0-4.88-4Zm6.15-8a8.63,8.63,0,0,0,2.8-.77l8.89,20.26c-6.82,3.46-11.74-5.4-11.74-5.4l0-14.09ZM43.94,13l10.82,3.66c.32,5,3.63,4.85,3.63,4.85a6.55,6.55,0,0,0-1.14,3.93,3.82,3.82,0,0,0-2.36.76L43.48,14.56A3.12,3.12,0,0,0,43.94,13ZM57,30.71l-1.26,2.22,1.48-1.34L56,33.53l1.35-1.19-1.23,2.35L57.71,33l-1.28,2.18,1.75-1.8-1,2.2,1.45-1.51-1.14,2.58,1.72-2.1-1,2.58,1.5-2L59,37.08l1.25-1.68-.74,2.12,1.38-1.72-.69,2.12,1.36-2-.45,2.26,1.18-2.33L62,37.93l1.09-2L62.77,38l1.06-2.18-.34,1.61,1-1.66-.4,1.44,1.09-1.36s-.59,2.89-4.31,2.95-5.39-4.24-5.48-4.62-1.21-3.65,1-6l-.59,2.52.8-.73-1.08,2L57,30.71Zm9.71,3c-3.22.14-2.59-3.37-2-4.37s1.89-2.95,1.89-2.95c-.21,1.83-1.31,2.71-1.68,4a2.58,2.58,0,0,0,1.82,3.36Zm-.89-3.63a.37.37,0,0,1,.44-.28.36.36,0,0,1,.29.43.38.38,0,0,1-.44.29.38.38,0,0,1-.29-.44ZM76.45,36.4l2.71-1.48a1.22,1.22,0,0,0,.13,1l0,0-1.54,1.58,1.62-.69A4.59,4.59,0,0,1,78,39.18l-.67-.74-.23.68s-2.34.17-2.41-1.06.48-1.55.73-1.48.69.49,0,1.2c0,0,1.56.42,1.06-1.38Zm3.21-3.48s-1.55,1.79-2.07.58,2.07-.58,2.07-.58ZM80.49,37l.4,1.47.24-1.57s2.2,3.42,1.16,5.06-2.69.59-2.65-.27,1-1.46,1.14-.4a.49.49,0,0,1-.08.51.52.52,0,0,0,.83-.27c.3-.66-.69-1.75-1.55-1.52a2.44,2.44,0,0,0-1.2.62l-.51-.92S80.44,38,80.49,37Zm0-2a.44.44,0,1,1,.86.18.44.44,0,1,1-.86-.18Zm2.18-2.57c0-.83.85-1.56,1.6-1.87a41.56,41.56,0,0,1,2.91,11.76,14.59,14.59,0,0,1-4.07,2.14c-2.82,1-3.34,1.91-3.43,2.17l0,.08a.24.24,0,0,1,0-.08,6.21,6.21,0,0,0-.19-3.27s2.51.92,3.69-1.12c.89-1.55-1.13-5.5-1.13-5.5l1.73.37L82,36l.13-.62a2.65,2.65,0,0,0,2.29-1.13S81.65,35.33,81.86,33c0,0,1.45,1.27,2.37.29,0,0-1.56.15-1.57-.9ZM78.63,56l.83-.24-.63-.28,1,0L79,55.09l1.27-.17-1-.35,1.21-.18-1.27-.31,1.12-.27-1.17-.31s1.53-.51,1.62,1a1.7,1.7,0,0,1-2.08,1.84l.35-.2-.4-.19Zm-3.84,2.29c-1.54-.89,0-2.77,0-2.77l-.21,1.3.59-.56-.46,1.5,1.07-1.41L75.54,58l1-1.63L76.4,58l.86-1.56c.35.81-.93,2.76-2.47,1.87Zm1.65,1.59a9,9,0,0,1-1.17,2.55,9.65,9.65,0,0,1,1.17-2.55Zm1.5-17.28a4.48,4.48,0,0,1-.79,4.53,14.8,14.8,0,0,1,.79-4.53ZM76.29,53.94a.68.68,0,1,1,.51.88.71.71,0,0,1-.51-.88Zm2.32-4.57-.33,1.75-.62-1.65.06,1.83L77,49.91l.16,1.82a1.76,1.76,0,0,1-.48-1.22c0-.24.07-1.51,1.9-1.46s1,2.44,1,2.44l-.35-1.06-.39.86-.28-1.92Zm2.76-.78s1-2.75,2.81-3.22c0,0-.75,2.57-2.81,3.22ZM80.34,30s.43.25.57,1.39A1.32,1.32,0,0,1,80.34,30ZM75.72,52.07,74,52.24l.89.46h-1.6l1.24.58L73,53.33l1.34.49-1,.13,1.17.38c-.23.36-2.33,0-1.53-1.68,1-2,2.76-.58,2.76-.58Zm-3.59,6.55a4.18,4.18,0,0,1-2.09,3l2.09-3Zm-.56-9.8s1.27.7,1.5,1.43a2.54,2.54,0,0,1-1.5-1.43Zm-.23-1.15c-1-.17-1.15-1.33-1-2.27.35-2.34-1.19-5.7-1.19-5.7L74.42,45a8.77,8.77,0,0,0,.38,4.14,10.74,10.74,0,0,0-3.46-1.45Zm-3.52,1.57v-.06l.81,2.08-.09-1.46.29,1.08,0-1.15.37,1.77.2-2.45.85,2.74-.28-3c.9.87.76,2.41.65,3.66a2.46,2.46,0,0,0,.41,1.81,5.15,5.15,0,0,0-3.48.65c-1.44.91-1.92.52-1.92.52a7,7,0,0,0,1.47-2.83l.67-3.31Zm2.78,6.34s-1.1,2-4.46,1.28a23.76,23.76,0,0,1,4.46-1.28Zm0,2.48A13.41,13.41,0,0,0,68.52,61a7.13,7.13,0,0,1-2,3.17s4.93-.36,7.73-3.69c0,0-.39,3.44.31,4.9a8.94,8.94,0,0,1,1.79-2.63,9.83,9.83,0,0,0,2.36-3.78s1,3.16-2,6.71-5.66,4-5.66,4,2.09-3,.51-4.8a16.63,16.63,0,0,1-1.31,3.43,6.17,6.17,0,0,0-.85,2.08c0,.07-2.95,1.35-4.15,2.67,0,0,.84-2.59-1.1-3a1.62,1.62,0,0,0-1.81.54,2.22,2.22,0,0,0-2.62-1.58c-1.54.28-1.75,2.21-1.75,3.23a4,4,0,0,0,.33,1.35,13,13,0,0,0,.81,1.66s-1.05.74-.68,1.54L57,78.38l-.79,1.38-.92-1a12.4,12.4,0,0,0-.49-3.66l-.59,2.2s-3.1-3.54-6.14-4.73v-.69s3.47-1.86,3.87-4.56c0,0,10.32-.55,11.89-9.9,0,0,4.49,1.54,6.78.63ZM65,76.14l-1.73.23,1.25.34-1.64.43,1.5.23-1.31.25,1.28.31-1.21.27,1.23.24-1.43.3,1.59.32-1.34.2,1.57.37-.91.17,1.21.44a2.42,2.42,0,0,1-2.58-2.89,2.89,2.89,0,0,1,3-2.62l-1.29.67,1.18.08L64,75.75l1.07.39Zm-4.32-1.59c-2.18-.54-1.61-3.63-1.61-3.63l.38,1.35.37-.82,0,1.86.63-1.42-.07,1.93.75-1.59L61,73.94l.72-1.54.07,1.9.67-1.88,0,1.64.71-1.58L63,73.64l.81-1.24a2.44,2.44,0,0,1-3.12,2.15Zm-7.48,3a39.1,39.1,0,0,1,2.46,3.12l-.31,2.38L53.66,81l-5.5.25c-.2-.55-.32-7.55-.32-7.55A8.1,8.1,0,0,1,51.9,76.2l-2.14.26a8.8,8.8,0,0,0,3.47,1.11ZM44.77,40l-1.17.84,1.09-.24-1.23,1,1.26-.39-1.16,1,1.55-.54-.9.77L45.62,42l-1,.71,1.48-.25c-.13.4-2.29,1.13-3-.45-.84-1.79,1.65-2.69,1.65-2.69l-.71.85.74-.17Zm-1.56,7.16c-1.1-.34-.94-1.61-.87-1.91l.83-.25.21,1.66.86-1.23.58.81s-.5,1.27-1.61.92Zm-.28,3.27.63,1.05s-.49,1.64-1.72,1.06-.45-2.34-.1-2.5l.46,1.84.73-1.45Zm1.89-6.18a8.33,8.33,0,0,0,2.57-.6s.08,1.19-.83,1.5-1.74-.9-1.74-.9Zm-1.49-.69s-1.1.36-1.61-.06-.29-1.6-.29-1.6a10.9,10.9,0,0,0,1.9,1.66ZM41.11,45a6,6,0,0,0,1.29,2.88s-1.09,1.62-1.91-.18a2.06,2.06,0,0,1,.62-2.7Zm-1.6,8.18C39,55,36.36,57.45,35.34,56.73s.12-2.78.12-2.78-.31,1.7.39,1.93c1.28.42,3.66-2.66,3.66-2.66Zm2.81,1.38s-6.09,8.23-6.47,3.5c0,0,.76,2.71,6.47-3.5ZM39.9,61.51l-1.59,1,1.53.28-1.77.63,2.13,0-1.84.78,2,.08L39,64.66l1.56.17-1.24.32,1.7.32s-2.8.75-3.34-1.29c-.79-3,2.24-2.67,2.24-2.67Zm-.08-2.62C42.35,60.81,44.66,57,44.66,57c-3.35,6.54-4.84,1.87-4.84,1.87Zm4.76-8.42c-1.07-.26-1.17-2-1.17-2l.88-.33.44,1.63.78-1.5.7,1s-.55,1.4-1.63,1.14ZM46,46.67l1.22-.44.25,1.88.9-1.84.94.78a1.82,1.82,0,0,1-1.86,1.57c-1.66,0-1.45-1.95-1.45-1.95Zm3.82-6.6-1.18.9,1.09-.25-1.24,1.05,1.27-.42-1.17,1.09,1.55-.6-.91.83,1.42-.49-1,.76,1.49-.28c-.14.43-2.32,1.23-3-.43-.82-1.9,1.69-2.88,1.69-2.88l-.73.91.75-.19Zm3.41,5.47a1.8,1.8,0,0,1-.79,3.11c-1.46.37-1.83-1.39-1.83-1.39l1.51-1,.64,1.57.47-2.27ZM50.05,46C48.43,46,49,44.39,49,44.39a5.37,5.37,0,0,0,2.83-.46S51.66,46,50.05,46Zm-.91,3.27.76,1.82.35-2.41.61.79c-.42,1.54-1.13,2.59-2.34,2.3s-1.33-1.91-1.33-1.91l2-.59ZM49,56.84a5.28,5.28,0,0,1-2.77,1.81A6.9,6.9,0,0,1,49,56.84Zm-.16-4,1.29-.24,0,1.82,1.08-1.83,1.39.94s-1.52,2.07-2.84,1.54-1-2.23-1-2.23Zm3.67-.53c-1.2-.48-.6-2.38-.6-2.38l1.56-.39-.51,1.7,1.42-1c0,.31-.66,2.55-1.87,2.08Zm0,3.78-.31,1.49.59-.63-.44,1.29,1.29-1.12-1.27,2.63L54,57.94l-1,2.8,1.66-2.29L53.67,61l1.48-1.86-1,2.68,1.37-2.14-.81,2.85L56.4,60l-.69,2.66,1.55-2.57-.52,2.45L58,60.33l-.19,1.89,1-2.13-.42,2,1.27-2-.2,1.17,1.26-1.62c0,1.13-3.39,5.74-7.21,3.39s-1-6.84-1-6.84Zm6.29.33a4.52,4.52,0,0,1-2.65-6.15l.2,1.81.7-1.39-.65,2.93,1.34-2.58-.63,3,1.21-2.32-.56,2.61,1.11-2.1-.53,2.82,1.3-2.58-.5,2.88,1-2.43-.29,2.52,1-2.33-.16,2.33.76-2-.08,2.21.84-2.46v2.4L63,53l0,2.22.73-2.69,0,2.09.74-2.53.05,1.77.86-2.3c.43,2.86-3.85,6-6.6,4.88Zm3.49-7.62c-4.39.25-7.41-3.45-8.57-5.28a7.11,7.11,0,0,1-.92-6.3L53,38.38l.59-.85-.82,2.56,1.3-1.58-1.18,2.64,1.53-1.67L53.36,42.2l1.82-2.13-1.47,3.15,1.78-2.17-1.25,2.88,1.86-2.19-1.16,2.71,1.75-1.94-.81,2.41,1.41-1.78-.73,2.66,1.52-2.27L57,46.88s1.62-2.28,1.63-2.32l-.49,2.66L59.33,45l-.43,2.46,1.07-2-.25,2.6,1-2.5-.3,2.75L61.57,46l-.18,2.36,1-2.4-.31,2.51,1.16-2.58-.09,2.59,1-2.66L64,48.17l1-2.7,0,2.24s.76-2.28.77-2.34-.1,1.76-.1,1.76l1.06-2.2c-.44,3.79-4.16,3.88-4.46,3.9Zm1.86-22.26A1.65,1.65,0,0,1,62,26.05c-.81-1.22.73-2.36.73-2.36a2.28,2.28,0,0,0,1.42,2.88Zm1.71-7s1.41,2.12-.6,2.61-1.8-2-1.78-2.05,2.13,1.93,2.38-.56Zm-1.48,5.17a.66.66,0,1,1,1.29.27.69.69,0,0,1-.8.57.68.68,0,0,1-.49-.84Zm-3.76-4.7s2.5-4.55,7.27-2.29a11.48,11.48,0,0,0-7.27,2.29ZM54.31,27c0,.07-1.25.56-1.76,4.94s-2.18,5.41-2.18,5.41L41.25,16.92a3.7,3.7,0,0,0,1.63-1.57L54.31,27ZM37.44,41.81l-2,2.75,2.81-2.28L37,44.59l1.7-1.89-.82,2.41,1.4-2.18-.56,2.81L40.13,43a12.47,12.47,0,0,1-3.42,7.48l1.08-3.62-1.91,2.79,1.25-3.32-2.16,3,1.51-3.45-2.12,2.74,1.27-2.8-2.17,2.45L34.6,46l-1.89,1.83,1.34-2.49L31.8,47.4l1.75-2.76-2.37,2.19,1.47-2.1-2.52,2a13.65,13.65,0,0,1,6.53-5.41l-1.61,2.13,2.39-1.67ZM32.51,59.24a8.32,8.32,0,0,1,.74-4.54c.53.49-.74,4.54-.74,4.54Zm-1.59-1.43a7.54,7.54,0,0,1,1.16-4.49c.13,1-1.16,4.49-1.16,4.49Zm0-5.6c-.25,1-1.8,5-1.8,5-.17-3.76,1.8-5,1.8-5Zm-1.31-1.15a44.8,44.8,0,0,1-2.1,4.79,6.62,6.62,0,0,1,2.1-4.79ZM45.3,54.28c-1.6-.57-.74-2.73.12-2.77l.37,2.2,1-1.81.82.85s-.74,2.1-2.35,1.53Zm1.69,6L45.91,61.6l1.45-.49-2.12,1.48,2.09-.77-1.61,1.5,1.64-.66L45.86,64l1.77-.63-1.91,1.52L48,64l-1.61,1.46,1.7-.69L46.9,66.08l1.73-.89-1,1.26,1.61-.92-1.2,1.34,1.7-.9-1,1.13,1.74-.27s-4.09,2.49-5.91-1.2S47,60.28,47,60.28ZM45.62,79.59l.25,1.81L43.54,83l-1-.54c-.24-6.29,2-9.23,2-9.23l.87,4.63-1.31,2.4,1.45-.7Zm-4.77,4.27.73.2,1.94,1.25,0,2a41.59,41.59,0,0,1-5.81-.8c-1-.21-2-.46-3-.74l1.07-1.61,5.08-.25Zm3.75,1.59-.27-.52-.66-.87,2.19.74,1,2.54c-.72,0-1.45,0-2.19,0l0-1.87Zm23.19-5.72c-.36-.66-1-1.64-1-1.64a3.55,3.55,0,0,0,1-2.18c.09-1.31-2.08-2.12-2.08-2.12a13.53,13.53,0,0,1,1.66-1.43A9.16,9.16,0,0,0,71,73.58a22.1,22.1,0,0,0-2.07-1.8,45.31,45.31,0,0,0,6.58-3.2,5.11,5.11,0,0,0,4.24.23l.66.3A41.47,41.47,0,0,1,67.68,81.25a1.78,1.78,0,0,0,.11-1.52Zm9.13-12.62c3.89-3.64,3-9.53,3-9.53a4.35,4.35,0,0,0,3.18-.95,7.78,7.78,0,0,1,3.23-1.26,40.94,40.94,0,0,1-5.14,12.49c-1.78-.21-4.24-.75-4.24-.75Zm5.11-12a2.8,2.8,0,0,1,2.23-.53,2.65,2.65,0,0,1-2.23.53Zm-1-3.09c3.19-1.61,3.66-4.75,4.19-6.25a7.5,7.5,0,0,1,2-2.66,41.49,41.49,0,0,1-.74,11.44A11.54,11.54,0,0,0,81.07,52Zm2.79-22.36a13.56,13.56,0,0,0-2,.9A8.19,8.19,0,0,0,83,27.76c.31.61.6,1.23.88,1.86Zm-2.31-.15,0-1.28-.3.74-.32-1.64-.22,1.34-.61-1.39.14,1.84-.69-1.14.06,1.32c-.22-.3-.82-2.77,1.3-2.37s.66,2.58.66,2.58ZM74.46,36s-.61,0-.79,1.23c-.42,2.73,3.08,2.84,3.08,2.84s.12.48-.48,1.36S74.78,44,74.78,44s-4.47-4-6-5.92.07-4.6.07-4.6a1.77,1.77,0,0,0,2.86-.67A4.22,4.22,0,0,0,74.46,36Zm-4.75-4s.43-1.1-.85-5.56A5.08,5.08,0,0,1,69.71,32Zm-1.42-2.25a.46.46,0,0,1-.19.89.45.45,0,0,1-.33-.53.45.45,0,0,1,.52-.36Zm-.79,2.2a.41.41,0,1,1-.8-.17.42.42,0,0,1,.49-.34.43.43,0,0,1,.31.51Zm0-3.45a.41.41,0,0,1-.32-.49.41.41,0,1,1,.81.17.42.42,0,0,1-.49.32Zm.73-17.11c.24.59.54,1.63-.23,1.92-1.09.39-.79-1-2.09-2,0,0,.54,2.21-.42,2.47s-1.19-2.09-2.52-2.62c0,0,1,2.59-.36,2.48s-.55-1.75-2.5-2.71c0,0,1.08,2.58.11,2.85-1.34.37-2.38-2.51-4.22-3,0,0,2.91,3.41,1.63,4.42-.51.4-1.75-1-1.75-1s-1.57-2.05-5.41-1.75c0,0,3.21.55,4.09,3.15L44.1,12.09a6.32,6.32,0,0,0,0-1.57l18.74-2a40.53,40.53,0,0,1,5.37,2.87ZM44,9.43a7.09,7.09,0,0,0-.85-2.1L46.36,5a41.32,41.32,0,0,1,14.45,2.7L44,9.43ZM44.44,5l.05,0s-2,1.43-2,1.4-.85-.88-1.14-1.18c1-.12,2-.2,3.07-.24Zm-14,10L12.67,28.33a6.43,6.43,0,0,1-3.14-1,41.21,41.21,0,0,1,12.6-14.6l7.63.48A8.77,8.77,0,0,0,30.4,15ZM9.15,28.09c.78.42,6.08,3.32,7.82,3.91,0,0-5.93,4.1-10.74,4.09a40.35,40.35,0,0,1,2.92-8ZM20.67,32.7a12.84,12.84,0,0,1-5.91,1.81,11.38,11.38,0,0,1,5.91-1.81Zm-.25,1.79a23.94,23.94,0,0,1-4.17,1.3,4.32,4.32,0,0,1,4.17-1.3Zm.2,1.43A14.23,14.23,0,0,1,16,37.54s2.19-2.43,4.61-1.62ZM21.14,39S16,43.49,15.6,43.65c0,0,2.46-4.34,5.54-4.61Zm.28,1.44a64.1,64.1,0,0,1-4.73,4.58s1.95-3.91,4.73-4.58Zm.11,2.08S17.38,47.76,16.2,49c0,0,2.2-5.9,5.33-6.41Zm.9,3.45S19.26,50,18.89,50.13c0,0,.79-3.19,3.54-4.12Zm2.78,1.13a19.34,19.34,0,0,1-2.33,2.7,5.39,5.39,0,0,1,2.33-2.7Zm.58,1.26c-.2,1.13-2.2,3.64-2.2,3.64a5.94,5.94,0,0,1,2.2-3.64ZM24.3,69.56s-.73-.4-2.22-2.72a33.54,33.54,0,0,1,1.12,3.73s-2.62-1.36-1.93-6.28a6.7,6.7,0,0,1,3,5.27Zm-.37,3.29a8.18,8.18,0,0,1-2.09,1.24s2.13.13,2.51.12c0,0-3.63,2-6.44-.38a15.35,15.35,0,0,1,6-1ZM25.18,75a2.84,2.84,0,0,0,4,.22s-.75.11-1.24.13-1.66,0-1.48-1,1.36-.55,1.64-.47a13,13,0,0,0,4.35.9,8,8,0,0,1-1.28,1.69,4.91,4.91,0,0,0,3.14-2,24,24,0,0,1,5-1.23l-.61,1.11.63,5.16-1.59,1.82,1.84-.79.3,1.74-5.07.69-1.63,2.18A41,41,0,0,1,15.93,74.11c.52.25,5.76,2.68,9.25.93ZM82.3,26.46c-.86-.23-3.59-.76-3.9,1.64,0,0-3.14-1-3.81,1.33,0,0-1.74.07-2.11.84a7.37,7.37,0,0,0-1-2.94c-.87-1.39-.8-2.92.26-3.64s2.72-1.42,2.91-2.32c0,0-2.75,1-2.89.14s1.63-2.29,4.81-.32a5.82,5.82,0,0,0-5.1-2.83s1.34-1.17-1.1-5.52A41.43,41.43,0,0,1,82.3,26.46ZM29.78,8.39a11.46,11.46,0,0,0-.25,3.77l-6-.38a42,42,0,0,1,6.26-3.39ZM6,37c1.4,0,7.21,0,8.91-1.08A29.68,29.68,0,0,1,6.6,42.85a57.77,57.77,0,0,0,5.84-2.29A61.11,61.11,0,0,1,6.5,45,50.41,50.41,0,0,0,16,40.05,26,26,0,0,1,6.8,51.64a50.35,50.35,0,0,0,8.45-4.75s-2.76,6.58-4.2,8.41l3.77-4.15a47.27,47.27,0,0,1-2.08,4.3s4.73-6,5.59-6.66c0,0-2,10.18-2.11,11.62,0,0,1.91-8.31,6.39-12,0,0-3.13,9.89-3.19,10.17,0,0,2.44-4.84,2.85-5.39,0,0-1,7.53-1.5,9.32a13.56,13.56,0,0,1-2-1.63A13,13,0,0,1,20,64.9a22.61,22.61,0,0,0,.42,4.58S16.25,62,7.65,60.72a40.91,40.91,0,0,1-1.79-23L6,37ZM18.3,70s-3.58-.55-6.23-5.26a20.33,20.33,0,0,0-1.51-2.45s5,1.29,8.9,7.25c0,0-3-1.61-4.27-2.54,0,0,3,2.73,3.11,3ZM8.23,62.16c.67.17,1.83.77,3.19,2.78,1.58,2.31,2.88,5.27,8.84,6.35l-3.91,1,4.56-.18a23.2,23.2,0,0,1-6,.8,41.24,41.24,0,0,1-6.69-10.8Z"/></g></g></svg>