<svg xmlns="http://www.w3.org/2000/svg" viewBox="0 0 92.32 92.32"><defs><style>.cls-1{fill:#FFB200;}</style></defs><g id="Layer_2" data-name="Layer 2"><g id="Vector_Graphics" data-name="Vector Graphics"><path class="cls-1" d="M46.16,0A46.16,46.16,0,1,0,92.32,46.16,46.22,46.22,0,0,0,46.16,0ZM87.35,46.16a41.39,41.39,0,0,1-1.41,10.69c2.12-16-3-26.16-6.54-30.44-3.67-4.47-5.22-5.83-5.41-7.64-.12-1.16-.21-2.43-.26-3.18A41.14,41.14,0,0,1,87.35,46.16ZM20.93,58.77a2.24,2.24,0,0,1-.59-2.89l.22,1.31.46-.56-.22,1.71.69-1.09,0,1.36.5-1.08.15,1.36.53-1.58L23,58.83l.28-1.43.65,1.28.19-1.74.43.68.16-1.36c1,3.26-2.24,3.69-3.79,2.51Zm.84,3.6s-1-.71-.87-1.52a1.94,1.94,0,0,1,.87,1.52ZM70.15,12.71a1.58,1.58,0,0,1,.12.41,1.85,1.85,0,0,1,.67.17c.37.28.73.57,1.09.86a5.14,5.14,0,0,1,.91,2l-1.06-1.49-.12.94-.69-1.43v1.11l-1.18-1.8.5,1.74-1.12-1.3.37,1.24-1.11-1,.8,1.36-1.86-.8,1.43,1.61L67,15.61,69,17.22s-3.85-1.18-1.74-3.1c0,0-.68-2,1.12-2.24a3,3,0,0,1,.59,0c.41.28.82.56,1.22.85ZM79,64.79s.74-3-2.36-1.92a2,2,0,0,0-2.74.31s1.43-4.72,5.22-2.49,1,6.34,1,6.34.38-1.93-1.11-2.24Zm-5.41,6.34a1.56,1.56,0,1,1,1.43-1.55,1.5,1.5,0,0,1-1.43,1.55Zm7-13.48A1.53,1.53,0,1,1,82,56.13a1.45,1.45,0,0,1-1.37,1.52ZM82,45.48l-.44,2.3-.31-2.49-.62,2.55-.31-2.17-.37,2.17L79.52,46l-.43,2.36-.31-1.68L78,49.14s-.25-5,3.73-4.72,3,5.66,3,5.66l-.62-1.93-.25,1.06-.31-2.55-.49,1.74-.19-2.3L82.26,48,82,45.48Zm-2.86-4.72a1.41,1.41,0,1,1,1.4,1.55,1.47,1.47,0,0,1-1.4-1.55Zm1.43-5.71s-1.24-1.49-2.36-.81a1.61,1.61,0,0,0-.56,2s-1.31-.69-2.18,2.11c0,0-1.68-4.85,1.87-5.9s5.53,3,5.53,3-1.43-1.06-2.3-.37Zm-4,14.22c-.74,14.9-12.05,23-19.76,22.17s-7-8.38-7-8.38c19.33,6.52,26.72-13.79,26.72-13.79ZM66,78.15l2-.81h-1.8l2.11-1.06L67,76.35,69.15,75l-2.05.56,1.74-1.37-1.74.56,1.55-1.49-1.74.68L68,72.81l-1.56.55L67.53,72l-1.68.93.75-1.06-1.55.75.43-.75-1.61.25s4.16-2.48,5.65,1.62-3.73,5.71-4.23,5.53l1.56-.87L66,78.15Zm-3.79-1.77a1.34,1.34,0,1,1-1.34-1.46,1.41,1.41,0,0,1,1.34,1.46ZM43,85.44l2.39-.4-2.11-.25,3.23-.65-2.8.16,3-.78-3,.09,2.83-1.3L43.73,83l2.61-1.27-2.82.71,2-1.15-2.64.87L44.73,81l-2.89,1.09.59-.53-1.31.28a10,10,0,0,1,6-1.09c2.95.6,3.38,1,3.63,2s-.59,1.9-1.52,2.49a12.93,12.93,0,0,1-7.52,1.42l2.71-.93L43,85.44Zm-5.66-7-.15-2-.5,1.83-.19-2.11L36,78.3l-.44-2-.25,2.14-.34-1.71L34.82,79l-.44-1.37-.12,2.48s-1.77-5.9,4.25-7.85a13.34,13.34,0,0,0,2.36,3.48,6.75,6.75,0,0,1-1.77,5l.1-1.28-.38.19L39.35,78,38.3,79.58l.34-2L37.89,79l.22-2.43-.78,1.9Zm-.62,6.61c-.15-.09-1.89-3-.4-3.23,1.85-.31.4,3.23.4,3.23Zm-5-4.44-1.56-1.58L31,80.76,29.19,79l.87,1.73L28,79l1.56,2.26L27.83,80l1.49,1.74-1.59-1,1.43,1.47-1.09-.59,1.06,1.17-1.58-.93,1.61,1.59a6.15,6.15,0,0,1-2.92-2.89,3,3,0,0,1,.25-3.32c.62-.81,2.14-.84,4,.24a6,6,0,0,1,2.36,3.48L31.4,79.67l.28,1ZM24.56,67.09l-.62,1.21.1-1.24-.72.84s.22-1.68,1.55-1.21.78,2,.78,2l-.53-1.21-.43.71-.13-1.12Zm-.31,6.37A2.57,2.57,0,0,1,24.5,71a3,3,0,0,1-.25,2.49Zm1.34-10.09a2.1,2.1,0,0,1,1.74,2.51l-.34-1-.19.34-.25-1.15-.34.84-.34-1.12-.37,1-.31-1.05-.47,1-.19-.81-.46,1-.19-.72-.62.93a1.89,1.89,0,0,1,2.33-1.73Zm-1.21-3a2,2,0,0,1,.81,1.31,1.84,1.84,0,0,1-.81-1.31ZM40.13,9.64A1.42,1.42,0,0,1,41.62,11a1.5,1.5,0,0,1-3,0,1.42,1.42,0,0,1,1.49-1.34ZM33.54,11.2c-1.74,2.11,1,2.73,1,2.73.25,1.06,1.92,1.37,1.92,1.37-.18.31-4.1,1.67-5.09-1.56s2.73-4.9,2.73-4.9c-1.61,1.8-.56,2.36-.56,2.36Zm-4.6,5.34a1.5,1.5,0,1,1-1.49-1.37,1.43,1.43,0,0,1,1.49,1.37ZM17.76,28.21c-2.44-2.74-7.34-.12-9.2,1A41.45,41.45,0,0,1,27.13,9.62c-9.27,9.67-9.37,18.59-9.37,18.59Zm4.29-.8a1.24,1.24,0,1,1-1.25,1.24,1.24,1.24,0,0,1,1.25-1.24ZM10.3,30.51s4-4.39,6.34-1.55c2.18,2.61-3,6.64-3.66,6.46s1.3-3.29-2.68-4.91Zm.5,4.22.5-.86-.75.55L11.3,33,10,34l.62-1.37-1,.93.25-1L9,33.65,9.12,33l-.93.49s1.93-2.17,3.17-1a2.22,2.22,0,0,1-.5,3.48l.62-1.56-.68.31Zm-1.8.6c.77.55-.65,1.64-1.4,1.64,0,0,.62-2.2,1.4-1.64Zm.65,4.09c-.34,1.4-2.08-1.08-2.08-1.08S10,38,9.65,39.42Zm.84,1.71-.59-.4,2.24.09-1.31-.62,1.43-.06-1.18-.44,1.27-.28L11,39.08l1.18-.37-1.4-.37.84-.34-1.52-.53a2.13,2.13,0,0,1,2.61,2.36c-.07,2.86-3.48,1.67-3.48,1.36l1.24-.06ZM7.13,42c-.68,0-.34-2.2-.34-2.2.56,0,1,2.23.34,2.2ZM6.3,44.33l.21-.71.41,1.64L7.2,43.8l.71,1.71-.12-2,.84,1.31-.32-1.68.75.81L8.9,42.62s1.84,2.28-.65,3.2c-2,.75-2.58-2.3-2.58-2.58l.63,1.09Zm2.29,2.48a3.89,3.89,0,0,0,2.15-2.23s2.94,6-.25,7.61c-2.55,1.27-4.75-5.44-4.75-5.81a3.34,3.34,0,0,0,2.85.43Zm2.09-4.25c4-.37,2.85-4.81,2.85-4.81s5.39,2.6,3.3,5.9c-2.21,3.47-6.15-1.09-6.15-1.09Zm3-6.18s4-3.17,4.19-4.47c0,0,2,5.25.44,9.28a8.48,8.48,0,0,0-4.63-4.81Zm4.91,9.47a.72.72,0,1,1-.68.72.7.7,0,0,1,.68-.72ZM19,41.5l.13,1.12.43-.74.06,1.18.5-.87-.19,1.74.87-1.37L20.74,44l.81-1.68v1.31l.93-1.56c0,.19-.43,3.17-2.48,2.55s-1-3.11-1-3.11Zm1.56-3a.87.87,0,1,1,.87.87.87.87,0,0,1-.87-.87Zm1.18-2.79c-2.86-.5-2.3-3.91-2.3-3.91a2.42,2.42,0,0,0,1.3.49s-.12,1.56.87,1.68,1.56-1,1.56-1a1.54,1.54,0,0,0,1.61-.5s-.19,3.73-3,3.23ZM23,23.62c-3-2.24-.68-6-.68-6L22.23,19l.56-.62L22.3,20l.87-1L22.3,21.2l1.3-1.62-.81,2.24,1.37-1.56-.75,2.43,1.37-2-.5,2.11L25.4,21l-.49,2.42,1.3-2.24-.12,2L27.2,21,27,22.44,28,20.82c.12,1.25-1.93,5-4.91,2.8Zm10.4-4.69c7.89-5.61,14.83-2.33,14.83-2.33-3.23.81-3,2.73-3,2.73s-2.43.25-2.61,2.05,2.85,2.36,2.85,2.36l.5.75a20.35,20.35,0,0,0-3.85.06,17.63,17.63,0,0,0-3.73,1.24A5.38,5.38,0,0,0,34.6,27.9a3.49,3.49,0,0,0-2.3,1.87c-3.67-.25-6,3-6,3a17.27,17.27,0,0,1,7.11-13.88Zm14.83-.4-1.37.74H48L46.65,20l1.12-.06L45.72,21.2l2.05-.56L46.65,22l1.49-.8-.74,1.18,1.3-1L48,22.75l1.37-1c-2.12,3.54-3.17.62-3.17.62A1.66,1.66,0,0,1,44,21.51c-.62-1.49,2.18-1.8,2.18-1.8,0-2.49,2.61-2.12,2.61-2.12l-1.12.75.56.19Zm3.23,1a.9.9,0,0,1-1.74,0,.9.9,0,0,1,1.74,0Zm-.31-6.36a1.34,1.34,0,1,1,1.34,1.39,1.37,1.37,0,0,1-1.34-1.39Zm2.05,7.23s.56,2.8,7.58,6.09c9.74,4.57,12.43,12,12.43,12A14.16,14.16,0,0,0,60,38.21c.31-12.54-10.87-14.16-10.87-14.16,2.92-4.41,4.16-3.6,4.16-3.6ZM58,17.1a1.45,1.45,0,0,0-1.8.43c-.43.75.68,2.24.68,2.24-1.24.56-.18,2-.18,2s-2.86-2-1.62-4.91c1.72-4,5.16-1.18,5.16-1.18C57.84,15.55,58,17.1,58,17.1ZM61.44,21a1.44,1.44,0,1,1,1.43,1.58A1.51,1.51,0,0,1,61.44,21Zm10.38,1L70,21.69l.62.81-2-.87L70,23l-2-.93,1.43,1.42-1.93-.8,1.37,1.24-2.11-.75,1.61,1.25-2-.5,1.74,1.3-2-.56,2.12,1.43L66,25.67l2,1H66.54l1.49,1-1.18-.13,1.74,1.31s-5-1.49-2.8-5.84,6-1,6-1Zm-1.18-5.53c1-.44,1.43,1.74,1.43,1.74-.44-.07-2.43-1.31-1.43-1.74ZM71,53.43a1.4,1.4,0,0,0,.25-1.8c-.69-.93-2.18-.06-2.18-.06-.18-1.12-2.23-.25-2.23-.25s2.29-3.48,5-1.18-.13,5.65-.13,5.65A2.08,2.08,0,0,0,71,53.43Zm-15-.81c-.74-2.79,7.89-8.94,10.25-5.28,2.49,3.86-9.21,9.18-10.25,5.28Zm10.25,4.47A1.37,1.37,0,1,1,64.8,55.6a1.43,1.43,0,0,1,1.36,1.49ZM43.73,69.39c-5.28,0-4.35-6.15-4.35-6.15L40,65.6l.56-.81-.06,2.43.56-1.68.19,2.36.56-1.68.31,2.18.31-1.87.5,1.93.37-2.11L44,68.46l.13-2.11.8,2.05V66.1L45.78,68l-.31-2.48,1,2-.25-2.36.93,1.43-.5-2.12.81,1.25-.06-2.36c.68.43,1.61,6-3.67,6Zm4,4a1.46,1.46,0,1,1-1.46-1.49,1.47,1.47,0,0,1,1.46,1.49Zm.19-12.61c-7.09-5-2.74-11.43-2.74-11.43-1,7.39,2.74,11.43,2.74,11.43ZM45,62.53a1.43,1.43,0,1,1-1.43-1.46A1.45,1.45,0,0,1,45,62.53ZM47.4,48.21s-.37,2.49,1.74,3c0,0,1.68,2,3.42-.44a1.32,1.32,0,0,0,1.3-.31s-.68,4.66-4.91,3.6-1.55-5.9-1.55-5.9Zm4.1-15.59c3-.74,1.12-3,1.12-3,.5-.93-.31-2.48-.31-2.48s3.29,2.67,1.8,5.65C52,37,49,33.93,49,33.93a2.14,2.14,0,0,0,2.55-1.31Zm-3.67-1.74a1.37,1.37,0,1,1,1.25-1.36,1.31,1.31,0,0,1-1.25,1.36Zm11.44,15a2.5,2.5,0,0,0-1.56.69A8.93,8.93,0,0,1,62.13,39c-1.31.87-1.31,3.17-1.31,3.17-2.49,1-1.55,3.78-1.55,3.78ZM55.66,42c-3.79,1.43-4.47-2.73-4.47-3.1l.56.8.19-1.11.49,2.11.31-1.93L53.18,41l.37-2.05L54,41.07,54.23,39l.63,2.17L55.1,39l.44,1.86.19-2.23.62,2.11.12-2.67.62,1.74V37.59l.69,1.55.12-2.23.43,1.24L58.65,36s.8,4.53-3,6Zm-1.61,4.29a1.5,1.5,0,1,1-1.49-1.43,1.45,1.45,0,0,1,1.49,1.43ZM52.74,56.41a1.4,1.4,0,1,1-1.43,1.4,1.42,1.42,0,0,1,1.43-1.4Zm2.18,6-.5-.57,1.93.44-1.06-.87,2.3.37L56.1,61l1.92.06-1.55-.69,2.61-.06-2-.62,2.18-.18-1.93-.44,1.74-.43-1.86-.38,2.3-.31-2.18-.49L59,57.09l-2-.31,1.74-.49L57,56.35l1.12-.44-1.8-.43s5-.64,3.48,4.22c-1.56,5-6.34,2.67-6.34,2.67l1.43.07ZM65.85,40.51c2.24-3.48,6.22-.5,6.22-.5l-1.62-.24.75.8-2.12-1,1.19,1.18-2.12-.87,1.43,1.37L67,40.32l1.68,1.31-2.17-.56,2,1.3-2.18-.55L68,43.06l-2.18-.62,2,1.3-1.55-.43,1.37,1-1.37-.25L68,45.11l-1.31-.25L67.84,46c-.68-.19-4.22-2-2-5.47Zm6.87,6.83a1.49,1.49,0,1,1,1.46-1.49,1.47,1.47,0,0,1-1.46,1.49ZM47.77,8.53l.56.43L47,8.78l.87.62-2.3-.13,2,.75L45.16,10l2.05.74H44.85l1.93.68-2.43.13,2.8.68-2.49.13,2.61.74-2.17.25,2.61.43-1.8.25,2.3.69c-.25.24-5,.55-4.42-3.67s4.73-2.67,4.73-2.67l-.75.19ZM42.3,32.75l1.18-.81-1,.06,1.37-.74-1.25.12,1.62-1.05-1.55.31,1.24-.93L42.68,30l.93-.8-1.18.31,1-1-1.3.44.81-.87-1.5.56.87-1.06-1.11.37.68-.8-1.18.56.37-.75-1.18.56.19-.5-1.37.31s3.54-2.23,5.53,1.37-2,4.91-2,4.91l.69-.87-.63.06Zm-7.89,6.64a2.05,2.05,0,0,1-.37-3c1.43-1.68,3.29-.06,3.29-.06a4.33,4.33,0,0,0-2.48.62,2.61,2.61,0,0,0-.44,2.48ZM33,33.74a2.88,2.88,0,0,1,2.86-2.36S33.23,33.06,33,33.74Zm3.36-1.05s-1.93,1.92-2.55,1.92c0,0,.75-2,2.55-1.92ZM38,38.27a1.55,1.55,0,0,1-1.87,1.93A2.49,2.49,0,0,0,38,38.27Zm-3.61-8.63c5.53-1.55,5.41,4.23,5.41,4.23a5.82,5.82,0,0,0-5.41-4.23Zm-4.53,7c1.43-2.73-1.68-3.79-1.68-3.79A2.18,2.18,0,0,1,30.87,34a2,2,0,0,1-1,2.67Zm1.21,4.41a.54.54,0,0,1-.55.53.53.53,0,1,1,0-1.06.54.54,0,0,1,.55.53Zm-2.22-1.62a.52.52,0,1,1,0,1,.52.52,0,1,1,0-1Zm.35,3.61c.13,0,2.27-.31,2.27-.31-.4,1.46-2.39,1.49-2.39,1.49l.12-1.18Zm2-5.37a.33.33,0,0,1,.28-.35.32.32,0,0,1,.28.35.32.32,0,0,1-.28.34.32.32,0,0,1-.28-.34Zm-4.72-2.64a4.55,4.55,0,0,0,1.06,1.67s-1.12.56-1.06-1.67Zm.12,5.9a8.52,8.52,0,0,0,1.53,1.83,1.67,1.67,0,0,1-.22.84A2.56,2.56,0,0,1,26.64,41Zm2.06,4s3,.93,4.66-3.23c0,0,6,2.05,6.64-5.22,0,0,6.52-4.14,9.33.87,2.05,3.67-4.42,9.44-4.42,9.44s-8.07,7.89-7.14,21.62a14.94,14.94,0,0,1-3.61-5.47,4.79,4.79,0,0,0-5.34-3.1A18.49,18.49,0,0,0,26.4,56.6c-1.31-1.31-.19-5.1.18-5.59l-1,.8L26,50.2l-.8.5s.37-2.68,2-3.17c0,0,.19,3.73.63,4.59,0,0,0-6.21.87-7.2Zm4.44,19a8,8,0,0,0-3.82-3c2.86-1.46,3.82,3,3.82,3Zm-5.9-2.7a3.35,3.35,0,0,1-1.09-2,2.4,2.4,0,0,1,1.09,2Zm-4.66-.53a2.15,2.15,0,0,1,.86,1.49,1.66,1.66,0,0,1-.86-1.49Zm.77,9.78s.41,1.83-.5,2.64a3.31,3.31,0,0,1,.5-2.64Zm3.2-.84a16.33,16.33,0,0,0,2.61-4.94l2.08,6.49-.59-5.15,3,5-1.46-4.94,3.3,4.19a35,35,0,0,1-1.21-3.6c.71,1.12,3.69,3.1,3.69,3.1a14.31,14.31,0,0,0,.28,1.5c-5.47,2.33-5.53,6.52-5.53,6.52-2.48-3-6.62-2.27-6.62-2.27-.65-.25-1.42-3.41.5-5.93Zm6,13.23c1.21-.87,2.14,2.17,2.14,2.17-.93-.09-3.35-1.3-2.14-2.17Zm8,1.37c.81,1.3-2,1.36-2.36,1.33,0,0,1.55-2.64,2.36-1.33Zm.09-3.51A24.37,24.37,0,0,0,41.84,77a11.73,11.73,0,0,0,3.51,2.67,29.07,29.07,0,0,0-4.76,1.06Zm8.74-1.43c2.79.62,3.23-1.43,3.23-1.43s.43.81,1.49-.44-.75-2.54-.75-2.54c1.31-.38.13-2.42.13-2.42s3.5,2.52,2.17,5.21c-2.11,4.29-6.27,1.62-6.27,1.62Zm24-49.13a1.55,1.55,0,1,1,1.49-1.55,1.52,1.52,0,0,1-1.49,1.55ZM66,13.68c-.5.13-1.49,2.05,1,3.6a21.37,21.37,0,0,1,3.42,2.49c-8.33-1.74-9-7.52-15.85-10.56A56.82,56.82,0,0,0,39.7,5.47,41.24,41.24,0,0,1,67.24,10.8,2.24,2.24,0,0,0,66,13.68Zm-59.84,37s2.39,3.88,5,2.29,1.43-6.21,1-7.88a6.71,6.71,0,0,0,4.75.46s-6.15,8.82,1.3,13.73c0,0-2.67,0-3.51,3.72-.8,3.54-.86,3.89-2.67,6.26a40.93,40.93,0,0,1-7-21l1.17,2.42ZM19.28,61s-1.86-.44-3.48,2.33c0,0,.25-4.29,3.48-2.33Zm-.77-2.77c-5.16-4.53-.81-8-.5-8.26s3.57-2.82,4.84-5.49a76.5,76.5,0,0,0,2.8-7.39,6.81,6.81,0,0,0,.84,1.61c-2.11,4.25,1.18,6.06,1.18,6.06a12.16,12.16,0,0,1-2.24,3c-1.08,1.15-1.15,4.53-1.15,4.53-6.05-.81-5.77,5.93-5.77,5.93Zm5-3a.76.76,0,0,1-.75.75.75.75,0,0,1-.74-.75.74.74,0,0,1,.74-.74.75.75,0,0,1,.75.74Zm-2.49,18a2.13,2.13,0,0,1,1.06-2.33s.25,1.77-1.06,2.33Zm4.17,3.51A5.72,5.72,0,0,0,25,81.52a41.38,41.38,0,0,1-6.5-4.81c.89-1.34,3.13-3.6,6.71,0ZM47.4,87.15c5.72-2.17,4.54-5.43,4.54-5.43,6.27.9,13.92-.86,18.17-2.07a41,41,0,0,1-23.06,7.7l.35-.2ZM12.76,70.3a19.47,19.47,0,0,0,1.52-2l-.12,1.56,1.08-2.08-.21,2L16,67.87v2l.87-2.6.09,1.49.84-2.21v1.83L18.51,66l.12,2.14.71-3.08.13,1.77L20,64.36l.18,1.71.66-2.83s3.92,5.3-3.37,12.5a41.4,41.4,0,0,1-4.71-5.44Z"/></g></g></svg>