<svg xmlns="http://www.w3.org/2000/svg" viewBox="0 0 92.32 92.32"><defs><style>.cls-1{fill:#FFB200;}</style></defs><g id="Layer_2" data-name="Layer 2"><g id="Vector_Graphics" data-name="Vector Graphics"><path class="cls-1" d="M46.16,0A46.16,46.16,0,1,0,92.32,46.16,46.22,46.22,0,0,0,46.16,0ZM67.57,78.44a.84.84,0,1,1-.79.84.81.81,0,0,1,.79-.84Zm-1.58-1a.84.84,0,1,1,.88-.83.85.85,0,0,1-.88.83Zm2.37-.28a2.65,2.65,0,0,0-2.7-2.82,6.15,6.15,0,0,0-1-5.59A23.5,23.5,0,0,1,72.5,70a5.62,5.62,0,0,0,5.74-.81,3,3,0,0,0,1.44.92A41.89,41.89,0,0,1,70,79.75a2.2,2.2,0,0,0-1.61-2.59Zm-5.12-2.62c-2.12,2.37-4.46.17-4.64-.22l1.43.51-.67-1.09,1.54,1.2-.77-1.37,2,1.35-1.26-1.8,1.9,1.4L61.42,72.6l1.86,1.14-1.6-1.95,2,1.18-1.59-1.78,1.78,1-1.24-1.47,1.18.46-1.37-1.72s3.54,2,.77,5.05ZM64,80.61a.79.79,0,1,1-.79-.8.8.8,0,0,1,.79.8Zm-2.83-2.09a.85.85,0,1,1-.85-.8.83.83,0,0,1,.85.8ZM32.63,76.88l.62.71.12-.73.69,1.6L34.24,77l.4,1.49.24-1.37.5,1.72.27-1.74.5,1.64.12-1.87.64,1.43L37,76.82l.51,1.37.17-1.6.37.77.35-1.49a2.7,2.7,0,0,1-2.71,3.35,2.84,2.84,0,0,1-3-2.34Zm.24,5.87c-1.66-.23.13-2.37.13-2.37.19.29,1.26,2.55-.13,2.37Zm2.61-.52s2.12,1.32,1.37,2-1.64-.81-1.37-2Zm3.59.85c-.64.79-1.41-.89-1.49-1.41,0,0,2.13.62,1.49,1.41Zm-3.42-8c-2.66.64-6.44-2.19-5.74-5.28l.73,1.84L31,70.2l.23,2.48.58-1.91.31,2.82s.39-2.4.39-2.34.44,3.07.44,3.07.47-2.78.47-2.7.46,2.61.46,2.61.31-2.48.31-2.42.62,2.55.62,2.55.08-2.47.08-2.4.85,2.77.85,2.77l0-2.84,1,2.47-.17-2.76.85,2.22-.23-2.57,1,2L37.85,71l.72,1.6-.31-2.49.62,1.35L38.74,69s2.34,4.77-3.09,6.07ZM16.62,63c-3.3.51-3.63-2.9-3.63-2.9l.71,1.07.06-1,.58,1.37.08-1.41.79,2-.11-2L16,62.26l-.13-2.11.75,1.59-.17-1.82,1.14,1.84s-.43-2.09-.43-2.15.93,1.39.93,1.39l-.37-2.26c.7.54,1.42,3.83-1.12,4.23Zm2.73,5c-.89,1-1.47-1.43-1.61-1.66,0,0,2.5.64,1.61,1.66Zm-1.93.89c-1,.75-2-1.72-1.78-2.49,0,0,2.76,1.74,1.78,2.49ZM12.64,51.58l-1.33,2.48L13,52.53l-1.34,2.86,1.74-2-.94,2.67,1.5-2L13.3,57l1.51-2.34-.37,2.13,1.16-2-.21,2.49,1-2.4,0,2,.64-2,0,1.49.75-1.59s.06,4-4,2.85S10,51.37,12.14,50.12l-.87,2.63,1.37-1.17ZM10.08,30.72c1.21-.65,1.31,1.33,1.31,1.33l-1.06-.46L10,32.8s-1.09-1.43.12-2.08Zm.84-3.79s.9-1.65,1.9-1.12.43,1.93.43,1.93l-.75-1.37-1.58.56ZM16,21.77s1.92-2.24,3-.34c.84,1.49-1.77,2.61-1.77,2.61l1.12-2.36L16,21.77ZM17.85,25a9.09,9.09,0,0,1,3.51-.53,24.07,24.07,0,0,0,3.88.22c1.21-.12,1.18.31,1.8.5a16.54,16.54,0,0,0,3.14,1.15,6.5,6.5,0,0,1,3.7,1.89c1.49,1.34,4.22,3.39,5.12,3.58a12.08,12.08,0,0,1,2.89,1.21,15.24,15.24,0,0,0,4.63,1c1.09-.06,3-.28,3-.28a7,7,0,0,0,2.33,7.4s-2.36,3.57-8.42,0-7.12-7.43-14-11.06C25,27.77,18.81,28.57,13.62,33c0,0-2.18-4.67,4.23-8Zm48.93,41.5,2.07.89-1.1-1.1,2.34.83-1.3-1.33,2.13.75-1.51-1.28,2,.62-1.54-1.25,1.91.42-1.45-1,1.51.21-1.74-1.22,1.37.27L70,62s3.53,1.6,1.43,4.5c-1.64,2.25-5.63.87-6,.35l1.83.33-.46-.62ZM63.07,60c-5.48-1.12-6-5.74-6-5.74l.56,1,.2-.78L58,56.3l.29-.79.12,1.39.4-.71L59,57.58l.54-1,.08,1.45.6-1.1.11,1.7.62-1.35L61,59.05l.62-1.37.17,1.7.52-1.45.16,1.56L63,57.93l.08,1.62L63.59,58l.29,1.57.43-1.72.38,1.64L65,57.66l.31,1.79.35-1.91.44,1.66.47-2.2L67,58.6l.41-1.87.27,1,.68-1.41A4.39,4.39,0,0,1,63.07,60ZM64.2,62.1a.62.62,0,0,1-1.24,0,.62.62,0,0,1,1.24,0Zm-3.48-.77a.64.64,0,1,1-.64-.66.65.65,0,0,1,.64.66ZM56,52.17c-2.18,1-4.3-1.5-4.76-3.6-1-4.41,2.15-6.27,2.15-6.27l-.85,1.11.91-.08c.06,0-1.45.89-1.45.89l1-.08-1.27.79,1-.19-1.39,1,1.26-.23-1.34,1,1.37-.27-1.25,1L52.84,47,51.5,48.24l1.26-.39L51.68,49,53,48.55l-1,1.08,1.37-.56-.85,1.47,1.22-.62-.66,1.32,1.12-.8-.5,1.24.85-.71-.35.85L55,51.2l-.25.93,1-.6-.12.52.85-.68-.5.8Zm.23,4.33a.57.57,0,0,1-.55.59.56.56,0,0,1-.54-.59.57.57,0,0,1,.54-.59.58.58,0,0,1,.55.59Zm-2.08-2.33a.61.61,0,1,1-.61-.62.62.62,0,0,1,.61.62Zm-10.66-7-1.77.93,1.68,0-2,.91,1.74-.16-1.93.9,1.74-.09L41,50.54l1.93-.25L40.68,51.6l2.4-.44-2.21,1.43L43,52,41,53.4l2.4-.62-2,1.64,2.08-.8L41.8,55.14l1.93-.87-1.46,1.08L44,54.86l-1.62,1.52,2.27-1.06L43,57.09l2.37-1.21-1.62,1.8L46,56.38l-1.33,1.86L46.55,57l-1,1.49,1.68-1.3-1,1.74L48,57.53l-.77,1.37s1.08-.83,1.27-1c0,0,0-.06,0,0l0,0c-.11.23-.53,1.28-.53,1.28L49.2,58l-.44,1,1.34-.81c-1.53,3-8.24.75-9.45-3.79-1.86-7,3.23-8.45,3.23-8.45l-1.33,1.18Zm3.11-1.74s-.47,6.87,4.78,9.85c0,0-6.77-1.68-4.78-9.85Zm2.4.9a.71.71,0,0,1-.7-.71.7.7,0,1,1,1.4,0,.7.7,0,0,1-.7.71Zm.55,2.88a.6.6,0,0,1-.59.6.61.61,0,0,1,0-1.21.6.6,0,0,1,.59.61Zm.25,2.56a.56.56,0,1,1,.55.59.57.57,0,0,1-.55-.59ZM51,37.62a4.3,4.3,0,0,1,.45-4.48c1.7-2.09,4.58-.86,4.52-.85-5.59,1.14-5,5.33-5,5.33Zm-4.93-9.84s3.15.7,2.61,2.59-3.77,1.47-3.77,1.47c.35-.58,3.33-2,3.33-2-.87-.21-2.17-2-2.17-2Zm1.78-1.35a18.69,18.69,0,0,1-3.13-1.12,6.76,6.76,0,0,0-3.37-1.47c-3.48-.37-4.62-1.53-4.62-1.53s2.46,0,5.63-3.11c3.92-3.84,5-3.35,5-3.35-1.49,6.6,5,5.92,5,5.92-.21,1.82,1.38,4.52,1.38,4.52l-2.19-.5a4.58,4.58,0,0,0,3.58,2,6.69,6.69,0,0,1,2.32,4c-1.82-1.55-4.84-1.13-4.84-1.13a9.82,9.82,0,0,0-4.83-4.23Zm-8.58,2.86,1.92.84-1.58-1.34,2.33,1-1.87-1.67,2.58.93-2.2-1.71,1.74.44-1.43-1,2.17.56L41,26.06l1.12.28-1.43-1.21s4.09,1.23,2.49,4.47c-1.4,2.83-4.6.22-4.6.22h.93l-.24-.53Zm-10-5.5,2,.06L29.44,23l2.08-.12-2.11-.75,1.49-.06-1.81-.81s3.06-.13,3,2.18c0,1.86-3.08,1.12-3.08,1.12l1.09-.44a8.84,8.84,0,0,1-.87-.34Zm.25-3.67c-3.54.28-4.32-.83-4.32-.83,1.71-2.58,3.39-3,4.35-3.05A13.19,13.19,0,0,0,37.36,15c3.66-2,5.56-1,5.56-1-1.71,1-2.58,2.46-5,4.88s-3,2.39-3,2.39a8.21,8.21,0,0,0-5.4-1.09Zm-7.36,0s2.23-.25,2.88,1.56-2.23,1.77-2.51,1.58L24.65,22l-2.51-1.87Zm1.11-1.71c-1.08-2.24,3.05-2.3,3.05-2.3-.25.35-2.24,4-3.05,2.3Zm1.9-6.18c.65-.87,1.93.41,2.17,1.15a6.24,6.24,0,0,0,1.15,1.71c-1.83.19-4-2-3.32-2.86ZM39.44,7.39c3.67,1.55,5.9,6.21,5.9,6.21-3.66-1.06-5.9-6.21-5.9-6.21Zm6.74,7.36c-.9.31-2.39,1.3-4.66,3.85a8.35,8.35,0,0,1-4.85,2.83,33,33,0,0,0,4.63-4.94c2.3-2.86,4.88-1.74,4.88-1.74ZM34.31,23.11s3,.8,2.43,2.73-3.11.5-3.11.5l2.27-1.06-1.59-2.17Zm44.48-2.05c-1.6-.8-5.69-2.49-9.61-1.36-5,1.45-6.67-.33-6.67-.33a4.58,4.58,0,0,0,3.17-3.79c.42-3.07-4.37-4.19-4.37-4.19a3.73,3.73,0,0,0-.57-3.75A41.34,41.34,0,0,1,78.79,21.06Zm-5,17.45a8.15,8.15,0,0,0-2.69-.75,2.31,2.31,0,0,1,2.69.75Zm-2.55-2.43s2.47-.76,3.46,1.31a6.8,6.8,0,0,0-3.46-1.31ZM74,41.32l-.67.29.09-.62-1.16.64.25-1.12-1.23,1,.42-1.16-1.33,1.35.42-1.54-1.29,1.45.27-1.3-1.1,1.49L69,40.56l-.89,1.34.15-1-.93,1.14A3,3,0,0,1,70.51,40C73.28,40,74,41.32,74,41.32ZM66.37,53a13.48,13.48,0,0,1-.94,2.24,10.83,10.83,0,0,1-4.24-.58s.45-1.89.06-2.47c0,0-.85,1.79-1.35,1.93A2.9,2.9,0,0,1,58,52s-.42-1,.19-1.14.84.6.84.6a7,7,0,0,1,.46,1.47s.89-.73,1-1.2c0,0,1.47.47,1.85.56a1.42,1.42,0,0,0,1.45,1.67,1.47,1.47,0,0,0,1.59-1.63l2.09-.21a3.86,3.86,0,0,1-.1,1.31,6.28,6.28,0,0,0,1.24-1.23c.46-.64.85-.62,1.16-.37s0,1,0,1a4.46,4.46,0,0,1-3,2.39A4.17,4.17,0,0,0,66.37,53ZM53.28,38.26a2.64,2.64,0,0,1,.1-3.09,3,3,0,0,1,3.19-.89s-3.73.43-3.29,4Zm11.08-.54a2.89,2.89,0,0,1,1.22.1,6.19,6.19,0,0,1-1.14.42l.5,1.61a1,1,0,0,1,1,.08,3,3,0,0,1-2.36.36A1.29,1.29,0,0,1,64.4,40S64,38.46,64,38.3a2.59,2.59,0,0,1-1.09.12,1.49,1.49,0,0,1,1-.49l-.23-1.33a4.82,4.82,0,0,1-1.06,0,3.27,3.27,0,0,1,2.7-.54,11.76,11.76,0,0,1-1.1.5l.21,1.18Zm-.52,11a2,2,0,0,0,1.78-1.68s.7,2.82-1.87,2.82-1.61-3-1.44-3.11c0,0,0,2,1.53,2Zm-2.4-7.67,0,.42-.89-1.37-.2.81-.81-1.18-.15.68-.82-.89-.05.64-.72-.62,0,.58-.62-.45,0,.47-.44-.54s2.94-1.42,5.43,1.83l-.68-.38ZM59.88,42.3c.75.06,1.83,1.2,1.83,1.2-1.56.56-2.16.14-2.16.14a1.23,1.23,0,0,0,.33-1.34Zm-1.76-.58s-1,.47-.74,1.36c0,0-.71.06-1.33-1.09,0,0,.58-.56,2.07-.27Zm-1.74-6.07a3.26,3.26,0,0,0-1.3,2.21s-.95-1.86,1.3-2.21Zm-.64,11.2a3.68,3.68,0,0,1,2.69-.16,8.61,8.61,0,0,1-2.69.16Zm2.59,1a9.15,9.15,0,0,1-2.8.51,3,3,0,0,1,2.8-.51Zm-2-3.69a16.26,16.26,0,0,0,3.75,1.1s-2.69.49-3.75-1.1Zm12.84.39a2.12,2.12,0,0,1-1.8-.66A2.41,2.41,0,0,1,69,43s-.54,1,.12,1.55Zm2-1.82a3.32,3.32,0,0,1,1.86.87,2.63,2.63,0,0,1-1.84.79c.64-.69,0-1.66,0-1.66ZM72,45.78s-2.32.95-4-.21c0,0,3.59.21,4,.21Zm.23,1.88A10,10,0,0,1,69,47.22a5.68,5.68,0,0,1,3.23.44Zm-2.7,10.83a.58.58,0,0,1,.57.59.57.57,0,0,1-.57.59.58.58,0,0,1-.58-.59.59.59,0,0,1,.58-.59Zm.36-8.84a7.25,7.25,0,0,1,2.57,1.7s-2.43-.71-2.57-1.7Zm.22-1.18a11.2,11.2,0,0,1,3.15,1,6.11,6.11,0,0,1-3.15-1ZM68.44,36l-.56-1.29-.38.69-.26-1.66L67,34.78l-.44-2.14L66.14,34l-.4-1.74-.27,1.55L64.89,32l-.18,1.53-.6-1.67L64,33.39l-.8-1.57,0,1.69L62.43,32l.08,1.74-.95-1.43.23,1.7-.91-1.2.31,1.64-.89-1.19.39,1.81L59.84,34l.33,1.64-.47-.79L59.76,36s-1.83-3.72,3.46-4.54A4.55,4.55,0,0,1,68.44,36Zm-5-14.21c1.31.1,2.08,2.76,2,4.52s0,3.79,0,3.79a9,9,0,0,1-1.68-4.75,20.49,20.49,0,0,0-.4-3.56ZM76,20.93s-7.71,2.89-10.29.9c0,0,4.26-1.21,5.22-1.55s3.89-.44,5.07.65ZM60.66,17l2.42.4-1.86-.9,2.24.06-2-.5,2.76-.21-2.83-.53,2.43-.41-2.36-.15,2.17-.62-2.45,0,1.39-.78-1.64.28.93-.56-1.93.31s3.55-2,4.76,1.9a2.77,2.77,0,0,1-4.76,2.27l1.87.15L60.66,17ZM58.11,7.42c3,.21,2.77,4,1.31,5l.09-.72-.47.41.53-1.9-1.09,1.28.72-2.52-1.09,1.8.44-2.08-1.12,2,.15-2.21-.68,2L57,8.32l-.71,2,0-2.05-.69,2.36-.09-1.56L55,10.8s-.77-3.67,3.11-3.38Zm-2.53,6.43a1,1,0,1,1-1,1,1,1,0,0,1,1-1Zm-1,5.59.62,1.8L55.5,20l.31,1.83.13-2,1,2.52-.12-2.42,1,2.11-.28-2.3,1.15,2L58,19.35l1.3,1.74-.84-2,.84.74-.46-1.36a2.57,2.57,0,0,1-.53,4.25c-2,1.34-4.23-1.21-3.7-3.26Zm3.29,4.48c2.18-.29,3.3-3.33,3.3-3.33a8.8,8.8,0,0,1,1.65,3.54c.25,4.68,1.49,6.13,1.49,6.13-3.74.17-5.15,1.91-5.15,1.91a11.79,11.79,0,0,0-1-2.94A4.91,4.91,0,0,0,58.39,26a7,7,0,0,0-.91,2.32A8.62,8.62,0,0,0,56,26.8a6.08,6.08,0,0,1-2.4-4.74,4.29,4.29,0,0,0,4.34,1.86ZM52,9.81l.71,1L50.9,9.44l.84,1.46L49.41,9.53l2.09,2.14-2.43-1.18,2,1.8-2.33-1,2.11,1.55-2.2-.68,2.54,1.58a2.65,2.65,0,0,1-2.51-4.28c2.83-2.43,4.91,1.18,4.91,1.18L52,9.81Zm-1.12,5.06-.62.31h.62l-1.36.75,1.21,0-2.55,1,2.42-.31s-2.36,1.31-2.27,1.31,2.27-.72,2.27-.72L49,18.48l1.62-.69-1.12,1.37,1.49-.9-1.31,1.37,1.87-1.09-1,1.3,1.56-1.05A9.1,9.1,0,0,0,51.43,20c.1,0,1.74-1.18,1.74-1.18s-1.28,3.25-4.56.59c-2.12-1.71.24-5,2.23-4.57Zm5.29,34.92A2.84,2.84,0,0,1,58.52,49s-1.56,1-2.39.83Zm1.24,9a.53.53,0,1,1-.56.53.54.54,0,0,1,.56-.53Zm9.46,1.93a.65.65,0,1,1-.61.65.63.63,0,0,1,.61-.65ZM71,55.57l.5.44-.28-.93.93,1.21L72,55.14l1.3,1.46-.62-1.8L74,56.26l-.53-1.65,1.33,1.24-.74-2,1.46,1.31-1-1.77,1.7,1.33L75,52.53l1.56,1-1.16-1.61,1.28.46-1-1.46.75.47-.62-1.15c.62.28,2.58,3.39.06,5.56-3.36,2.91-5.22,0-5.22,0l.5.22-.1-.47ZM74.64,48l.84,0L75,47.37l1,.34L75.2,47l1.46.74-1-1.24,1.49.62-1.12-1.18,1.4.59-1.18-1.24,1.52.5-1.37-1.28,1.43.41-1.4-1.06,1.43.28-1.36-1,1.14.21-1.18-1,.87.28L76.29,41.5c1.77.71,2.29,3.17,2,4.19-.93,3.82-3.7,2.27-3.7,2.27Zm2.47-8.67-.33-.08s.81-2.73-1-4.29-4.56-.41-4.56-.41,2.47-2.74,4.91-.27a4.3,4.3,0,0,1,1,5Zm-7.53-5.2A11.36,11.36,0,0,0,67,31.24a8.4,8.4,0,0,1-.4-1.93c-.16-1.95-.18-4.73-.35-5a14.86,14.86,0,0,0,3.23,2.05s.66,3.83,2.22,3.27-.19-2.11-.19-2.11a7.82,7.82,0,0,1-.66-.66s5.75.64,7.27,4.22c.45,1.08-.48,2.69-.48,2.69s-2.79-4.18-8,.31Zm6.11-7.16s2.07-.38,1.88-1-1.91-.58-3,.11-5.35-.4-7.48-2.57a21,21,0,0,0,6.36-.62c2.46-.77,5.28-.77,6.5-.17a41.08,41.08,0,0,1,3.69,6.45A3.92,3.92,0,0,0,81.2,30c-.81.77-2-.31-2-.31a21.72,21.72,0,0,0-3.56-2.73ZM46.16,5A41,41,0,0,1,56.5,6.29a6.12,6.12,0,0,0-2.74,2.59s-2.58-2.24-5.37-.66-.93,5.22-.84,5.35S46.28,13,43.2,9.06a9.8,9.8,0,0,0-4.9-3.33A40.68,40.68,0,0,1,46.16,5ZM38.29,8c1.15,1.46,3.29,4.63,3.29,4.63-2.08.06-4.66,1.46-6.92,2.08s-5,.87-6.28-1.81a5.35,5.35,0,0,0-2.33-2.66,41.69,41.69,0,0,1,9.22-3.79,4.31,4.31,0,0,1,3,1.55ZM24.07,11.41a11.67,11.67,0,0,0,0,2.19,18.41,18.41,0,0,1-2.16-.7c.71-.52,1.43-1,2.17-1.49Zm-3.18,3.12c1.43-1,3.64.62,3.64.62a4,4,0,0,1-2.86.84c-.44-.06-2.21-.4-.78-1.46Zm1.36,20c3.21,2.67.62,4.64.62,4.64a6.2,6.2,0,0,0-.62-4.64Zm3.5,5.24s.43,4.64-4.33,2.79c0,0,3.36,0,4.33-2.79Zm-1.66,5.42c-3.79,2.37-4.84-1.36-4.84-1.36,1.76,1.78,4.84,1.36,4.84,1.36ZM18.57,40a.88.88,0,1,1,.87.87.87.87,0,0,1-.87-.87Zm-3.13-4.25s2.34-2.61,4.92,1.16a8.73,8.73,0,0,0-4.92-1.16ZM17,41.34c-1,2,.5,4.73.5,4.73-2.82-2.7-.5-4.73-.5-4.73Zm-3.09.36c-.35-3.84,3-3.44,3-3.44a7.15,7.15,0,0,0-3,3.44ZM13.05,68c-2-.1.25-2.71.25-2.71.29.31,1.49,2.79-.25,2.71Zm1.87-21.31.64,1.65.35-.95L16,49.48,16.68,48l-.1,1.7.89-1.66-.21,2.63.89-1.92,0,2.57.72-2.16-.12,2.32.68-1.84.15,2,.54-1.79.14,2.12.52-2,.45,2.25.42-2.5.45,2,.27-2.18.46,2,.31-2.63.45,1.8.15-2.11L24,49.9l.37-2.49c.87,1.31-1,6.28-4.57,5.34-5.35-1.38-4.89-6.1-4.89-6.1ZM20.3,59.11l.15-1.9.95,3.27,0-2.57,1.12,2.9L22.25,58l1.14,2.16-.56-2.53,1.33,2.24-.71-3.07,1.41,2.3L24,56.26,25.23,58l-.72-2.24.81,1.16-.46-2c.93,1.1,2,6.15-1.39,6.65-4.24.62-4.35-4.37-4.35-4.37l1.18,1.92Zm5.49-27.4L23.7,30.26l.85,1.16-2.2-1.37,1.25,1.48-2.24-1.25,1.14,1.31-2.28-1.08,1.3,1.22-1.59-.64L21,32l-2.45-.7,1.33.93-1.33-.4,1,.56L18,32.11l.79.45-1.9-.41a11.11,11.11,0,0,1,11.26-1.52c6.57,2.68,8,6.14,10.24,8,2.77,2.3,4.28,4,6.75,4.66l-2-.29.37.6-1.49-1.39.08.65-1.47-1.62.11.66-1.14-1.63.16,1-1.18-2,0,1-1-1.93,0,1.28-1.1-2.4.08,1.2-1.07-2.13,0,.93-1.09-2.21,0,1.14-.91-2.1.12,1.31L32.19,33l.15,1.4-1.31-2,.23,1.16-1.59-2L30,33l-1.45-1.68L29,32.54,27.2,30.7l.62,1.38L25.87,30.3l.67,1.29L24.82,30.2l1,1.51Zm4.93,5.84-1-1.36.41,1.36-1.8-2,.81,2-1.41-1.84.91,2.38-1.33-1.68L28,38.57l-.89-1.29.23,1.56s-1.33-2.24.37-3.67c1-.87,3.1.77,4.12,2.3l-1.39-.7.25.78Zm-4.18,9.26c3.41-9,9.59-4.93,9.59-4.93l-1.94-.38.9,1.18-2.17-1.27,1.33,1.46-2.86-1.28,2,1.59-2.7-.87,2,1.52-2.8-.59L32,44.48l-3.32-.71L31,45l-2.49-.43,2.12,1-2.89-.34,2.51,1.15-2.51-.16,2.36.93L27.2,47l2.42,1L27,47.77l2.33.9L27,48.52l2.27.84-2.55-.28,2.58,1.15L26.52,50l2.57,1L27.2,51l1.93.69H27l2,.74-2.27,0,2.49.86-1.93,0,2.24.71-2.21.16,2.67.59-2,.34,2.17.56L28.6,56l2,.46-1.43.25,2.54.78-1.55,0,2.21.77-1.09.07c-6-2.61-5.62-9.18-4.73-11.5Zm9.17,17.93.93,2-.15-2.45L37,65.61V63.93l.56,1.61-.13-2.6c.28.09,1.84,5.31-3,5s-4-5.63-4-5.63l.47,1.65.21-1.18.16,2.17.43-1.3.16,2.67.53-1.89.28,2.39.43-2,.41,2.3.31-1.77.34,2,.28-2.18.56,2,.15-2.27.62,2,0-2.17ZM32.79,50.1a6.27,6.27,0,0,1,7.05-5.22l-1.42.41,1.21.43-2.64,0,1.61.56-2.83-.06L38,47,35.21,47l2,.59-3.07.12,2.58.72-2.86.18,2.52.53-2.86.28L36,50l-2.61.44,2.39.37-2.48.37,2.14.31L33,52.09l2.42.34L33,53.12l2.33.09-2.3.72,2.46,0-2.09.68h2.3l-2,.87,2.15-.25-1.77.84,2.11-.25-2,1,2.21-.28-1.8.83,2.23-.18L35.31,58l2.17-.31-1.52,1,2-.47L36.55,59l2.18-.34-1.43.87,2.11-.47-1.34,1,2-.41-.87.47,1.71,0c-4.6,1.74-9.38-3.92-8.14-10ZM44,61.14,42.4,62.3l1,.11L41.55,63l1.54.16-2,.52,1.65.23-2.13.83,2.24,0-2.32.83,1.84,0-1.82.8,2-.12-2,.83,2.3-.11-2.18.89,2.16-.12-1.91,1,2.38-.29-1.86,1.14,2.42-.5L42.17,70.4l1.89-.52-1.49,1.18,2-.49-1.08.93,1.63-.5L44,72l1.53-.54-1,1,1.63-.62-1.12,1,1.58-.63-.89.79,1.3-.52-.76.81L48,72.78l-.74.58,1.12-.06C46,74.54,41.08,71.56,40.33,68,39,61.69,44,61.14,44,61.14Zm2,7.17c-2.28-4.73,1.86-6.83,1.86-6.83l-1.24,1.57,1.06-.13L46,64.38l1.54-.5-1.64,1.43,1.57-.77-1.57,1.51,1.47-.52L46,66.92l1.63-.74-1.28,1.24L48,66.74l-1.4,1.45,1.63-.77L46.88,69l1.61-.91-1.07,1.33L49,68.54l-1,1.57,1.58-1-.75,1.49,1.31-1.1-.6,1.43,1.59-1.35L50.48,71l1.08-1-.38,1,1.31-1.18-.46,1,1.21-.7c-.54,1.37-5.12,2.53-7.19-1.78Zm5.67-2.26c-.94-.64-2.3-2.86.11-5.42l-.29.78.56-.2-1,1.3L52.3,62l-1.18,1.43s1.21-.6,1.44-.74l0,0,0,0c-.19.17-1,1.13-1,1.13l1-.49-1.24,1.61,1.7-1-1.1,1.72,1.66-1.16-.87,1.59L54.06,65l-.51,1.62,1.34-1.45-.45,1.51,1.18-1.45-.23,1,1.14-1.16s-.85,3.69-4.81,1Zm4.56,4.21-.5-.77,1.89.93-.69-1,1.76,1.18L57.6,69.06l1.89.89L58,68.29l2,.77-1.62-1.39,2,.64L58.68,67l1.8.42L58.7,66.11l1.29.38-1.56-1.41S62.36,66.7,60,70c-1.74,2.4-4.66.41-4.87,0l1.14.27Zm2.21-6.78a7.26,7.26,0,0,1-4.16-5.3c4.83,8.22,12.78,5.3,12.78,5.3a8.74,8.74,0,0,1-8.62,0ZM73.37,68l1.32.23-1.14-.64,2.34.08-1.78-.64,1.85,0-1.6-.62,1.82.14-1.94-.79,1.88-.06-2-.79,1.43.07L74,64.21s3.06.33,2.65,3.13-3.87,1.28-3.87,1.28l1.28-.19L73.37,68Zm4.07-4.73a.65.65,0,1,1,.65.67.66.66,0,0,1-.65-.67Zm2.87,3.25a.76.76,0,1,1-.76.76.76.76,0,0,1,.76-.76Zm-.54-2.25a.71.71,0,1,1,.71.76.73.73,0,0,1-.71-.76ZM82,66.42a1.18,1.18,0,0,0-.54-.63s1.37-1.18.81-2.26-1.83-1.37-2.27-1c0,0-1.36-1.89-2.67-1a1.88,1.88,0,0,0-1,1.92A15.07,15.07,0,0,1,70.88,61a7,7,0,0,0,.75-2.7.5.5,0,0,0,0-.13s4.29.56,6.19-3.2c1.34-2.67-.72-5.87-.72-5.87s4.94-3.54.44-8.79A6.77,6.77,0,0,0,79,35.44,3.69,3.69,0,0,0,80,32.58a5.66,5.66,0,0,1,1.09,2c.31,1.09,1,2,1.86,1.74s.66-1.71.35-2.24a28.45,28.45,0,0,0-2-2.14A8.12,8.12,0,0,0,84.45,31,41.11,41.11,0,0,1,82,66.42ZM18.67,15.51a3.72,3.72,0,0,0,3.19,1.69v1.31c-1-.37-4-.47-6.93,2.79-1.79,2-2.85,2.5-3.4,2.58a41.74,41.74,0,0,1,7.14-8.37ZM9,28.38l.32,1.44s-2.88,3.54,2,7.64c0,0-.46,4.94,1.09,7.77,1.46,2.67-1.05,3.41-1.05,3.41a4.79,4.79,0,0,0-2.55,4.45c.25,3,1.71,3.79,2,6.55s0,3.86-1.32,5.36A41.13,41.13,0,0,1,9,28.38Zm3.38,41.33c2,.18,2.59-.49,2.59-.49,3.31,2.49,3.89.15,3.89.15,2.9-.48,1.18-3.38.83-3.71s-1.88-1.18-1.28-2.38,1.82-.91,2.94-.56,1.49,1.7,4.1.93,2-5.88,2-5.88c2.15,3,1.43,6.69,1.37,7.85s-.74,3-.77,4.16C28,73.16,30.12,75.37,31,77a4.46,4.46,0,0,1,.12,3.48,2.52,2.52,0,0,0-.74,2.17c.37,1.91,3.6,1.24,3.6,1.24a4,4,0,0,0,.52,1.82,41.33,41.33,0,0,1-22.12-16ZM38.08,86.55c.5-.44,1.1-1.12.77-1.68,0,0,2.14.22,1.9-1.74s-2.4-2.21-1.12-4.82c.56-1.15,1.86-1.86,1.43-6.61,0,0,5.81,7.24,13.63.34,0,0,3.14,3,3.14,5.16s-.06,3.35,3.08,4c0,0,1.67,3.14,4.84-.21a3.13,3.13,0,0,0,1,.79,41.11,41.11,0,0,1-28.68,4.74Z"/></g></g></svg>